<svg width="360" height="395" viewBox="0 0 360 395" fill="none" xmlns="http://www.w3.org/2000/svg">
<path d="M245.58 366.765L245.628 365.766L245.58 366.765ZM519.496 229.978L520.179 230.709L520.273 230.621L520.342 230.512L519.496 229.978ZM468.251 15.4645L468.411 16.4515L468.251 15.4645ZM90.0149 2L97.1624 11.069L101.443 0.344626L90.0149 2ZM-13.7704 394.973C29.0373 384.874 106.594 361.039 245.531 367.764L245.628 365.766C106.379 359.026 28.5742 382.929 -14.2296 393.027L-13.7704 394.973ZM245.531 367.764C390.153 374.764 468.028 279.464 520.179 230.709L518.813 229.248C466.44 278.211 389.229 372.717 245.628 365.766L245.531 367.764ZM520.342 230.512C543.768 193.369 570.109 133.205 570.978 85.4062C571.413 61.4901 565.47 40.4715 549.361 27.07C533.261 13.6761 507.262 8.10691 468.09 14.4774L468.411 16.4515C507.327 10.1226 532.624 15.7483 548.082 28.6076C563.53 41.4592 569.408 61.7521 568.978 85.3698C568.119 132.638 541.995 192.431 518.65 229.445L520.342 230.512ZM468.09 14.4774C284.945 44.2627 183.738 37.277 98.7468 4.40838L98.0254 6.27374C183.501 39.3296 285.122 46.2601 468.411 16.4515L468.09 14.4774Z" fill="url(#banner31)" fill-opacity="0.7"/>
<defs>
<radialGradient id="banner31" cx="0" cy="0" r="1" gradientUnits="userSpaceOnUse" gradientTransform="translate(321.549 179.516) rotate(99.9353) scale(403.875 612.658)">
<stop stop-color="#C0C2CE"/>
<stop offset="1" stop-color="#C0C2CE" stop-opacity="0"/>
</radialGradient>
</defs>
</svg>
