<svg width="120" height="928" viewBox="0 0 120 928" fill="none" xmlns="http://www.w3.org/2000/svg">
<path d="M4.04767e-05 928L8.3296 900.36L28.1015 921.394L4.04767e-05 928ZM119.04 3.44506C83.492 53.6291 52.6944 121.664 52.6944 199L47.6944 199C47.6944 120.336 79.008 51.3093 114.96 0.554925L119.04 3.44506ZM52.6944 199C52.6944 237.234 69.0314 265.45 85.7314 292.823C102.347 320.058 119.5 346.672 119.5 381L114.5 381C114.5 348.328 98.25 322.942 81.463 295.427C64.7603 268.05 47.6944 238.766 47.6944 199L52.6944 199ZM119.5 381C119.5 415.28 102.413 445.836 85.7417 473.66C77.3523 487.662 69.0855 500.934 62.8866 513.848C56.6932 526.749 52.6944 539.042 52.6944 551L47.6944 551C47.6944 537.958 52.0464 524.876 58.379 511.684C64.7061 498.503 73.1407 484.963 81.4527 471.09C98.1845 443.164 114.5 413.72 114.5 381L119.5 381ZM52.6944 551C52.6944 562.916 56.6671 573.834 62.8249 585.064C69.0282 596.377 77.2417 607.67 85.6916 620.635C102.508 646.436 119.5 677.799 119.5 724.5L114.5 724.5C114.5 679.201 98.0892 648.814 81.5028 623.365C73.2513 610.705 64.7634 598.998 58.4407 587.468C52.0725 575.854 47.6944 564.084 47.6944 551L52.6944 551ZM119.5 724.5C119.5 764.493 103.467 802.801 82.8702 835.606C62.2607 868.431 36.9607 895.936 18.1473 914.372L14.6479 910.8C33.3122 892.511 58.3135 865.314 78.6357 832.947C98.9704 800.56 114.5 763.188 114.5 724.5L119.5 724.5Z" fill="url(#roadmap21)" fill-opacity="0.7"/>
<defs>
<linearGradient id="roadmap21" x1="-3.87424" y1="922.613" x2="504.634" y2="340.786" gradientUnits="userSpaceOnUse">
<stop/>
<stop offset="1" stop-opacity="0"/>
</linearGradient>
</defs>
</svg>
