<svg width="538" height="381" viewBox="0 0 538 381" fill="none" xmlns="http://www.w3.org/2000/svg">
<path d="M514.488 47V46.16H516.42V39.728L514.896 40.688L514.476 39.956L516.696 38.54H517.404V46.16H519.216V47H514.488ZM521.455 48.368L520.999 48.02C521.175 47.836 521.299 47.66 521.371 47.492C521.451 47.332 521.503 47.168 521.527 47H520.951V45.776H522.175V46.64C522.175 46.968 522.123 47.272 522.019 47.552C521.915 47.832 521.727 48.104 521.455 48.368ZM526.526 47.108C525.558 47.108 524.822 46.736 524.318 45.992C523.814 45.248 523.562 44.172 523.562 42.764C523.562 41.348 523.814 40.272 524.318 39.536C524.822 38.8 525.558 38.432 526.526 38.432C527.502 38.432 528.238 38.8 528.734 39.536C529.238 40.264 529.49 41.336 529.49 42.752C529.49 44.168 529.234 45.248 528.722 45.992C528.218 46.736 527.486 47.108 526.526 47.108ZM526.526 46.256C527.198 46.256 527.694 45.972 528.014 45.404C528.342 44.836 528.506 43.952 528.506 42.752C528.506 41.552 528.346 40.676 528.026 40.124C527.706 39.564 527.206 39.284 526.526 39.284C525.854 39.284 525.354 39.564 525.026 40.124C524.706 40.684 524.546 41.56 524.546 42.752C524.546 43.952 524.706 44.836 525.026 45.404C525.354 45.972 525.854 46.256 526.526 46.256ZM533.721 47.108C532.753 47.108 532.017 46.736 531.513 45.992C531.009 45.248 530.757 44.172 530.757 42.764C530.757 41.348 531.009 40.272 531.513 39.536C532.017 38.8 532.753 38.432 533.721 38.432C534.697 38.432 535.433 38.8 535.929 39.536C536.433 40.264 536.685 41.336 536.685 42.752C536.685 44.168 536.429 45.248 535.917 45.992C535.413 46.736 534.681 47.108 533.721 47.108ZM533.721 46.256C534.393 46.256 534.889 45.972 535.209 45.404C535.537 44.836 535.701 43.952 535.701 42.752C535.701 41.552 535.541 40.676 535.221 40.124C534.901 39.564 534.401 39.284 533.721 39.284C533.049 39.284 532.549 39.564 532.221 40.124C531.901 40.684 531.741 41.56 531.741 42.752C531.741 43.952 531.901 44.836 532.221 45.404C532.549 45.972 533.049 46.256 533.721 46.256Z" fill="#6C707B"/>
<path d="M516.6 123.108C515.632 123.108 514.896 122.736 514.392 121.992C513.888 121.248 513.636 120.172 513.636 118.764C513.636 117.348 513.888 116.272 514.392 115.536C514.896 114.8 515.632 114.432 516.6 114.432C517.576 114.432 518.312 114.8 518.808 115.536C519.312 116.264 519.564 117.336 519.564 118.752C519.564 120.168 519.308 121.248 518.796 121.992C518.292 122.736 517.56 123.108 516.6 123.108ZM516.6 122.256C517.272 122.256 517.768 121.972 518.088 121.404C518.416 120.836 518.58 119.952 518.58 118.752C518.58 117.552 518.42 116.676 518.1 116.124C517.78 115.564 517.28 115.284 516.6 115.284C515.928 115.284 515.428 115.564 515.1 116.124C514.78 116.684 514.62 117.56 514.62 118.752C514.62 119.952 514.78 120.836 515.1 121.404C515.428 121.972 515.928 122.256 516.6 122.256ZM521.455 124.368L520.999 124.02C521.175 123.836 521.299 123.66 521.371 123.492C521.451 123.332 521.503 123.168 521.527 123H520.951V121.776H522.175V122.64C522.175 122.968 522.123 123.272 522.019 123.552C521.915 123.832 521.727 124.104 521.455 124.368ZM524.27 123L528.206 115.392H523.73V114.54H529.322V115.284L525.362 123H524.27ZM533.901 123.108C533.357 123.108 532.837 123.02 532.341 122.844C531.845 122.668 531.425 122.42 531.081 122.1L531.453 121.32C532.197 121.928 533.009 122.232 533.889 122.232C534.473 122.232 534.933 122.068 535.269 121.74C535.605 121.412 535.773 120.98 535.773 120.444C535.773 119.892 535.613 119.44 535.293 119.088C534.973 118.736 534.533 118.56 533.973 118.56C533.165 118.56 532.529 118.896 532.065 119.568H531.345V114.54H536.253V115.38H532.317V118.404C532.781 117.94 533.393 117.708 534.153 117.708C534.681 117.708 535.141 117.82 535.533 118.044C535.925 118.268 536.225 118.584 536.433 118.992C536.649 119.392 536.757 119.86 536.757 120.396C536.757 120.924 536.641 121.392 536.409 121.8C536.177 122.208 535.845 122.528 535.413 122.76C534.989 122.992 534.485 123.108 533.901 123.108Z" fill="#6C707B"/>
<path d="M516.6 199.108C515.632 199.108 514.896 198.736 514.392 197.992C513.888 197.248 513.636 196.172 513.636 194.764C513.636 193.348 513.888 192.272 514.392 191.536C514.896 190.8 515.632 190.432 516.6 190.432C517.576 190.432 518.312 190.8 518.808 191.536C519.312 192.264 519.564 193.336 519.564 194.752C519.564 196.168 519.308 197.248 518.796 197.992C518.292 198.736 517.56 199.108 516.6 199.108ZM516.6 198.256C517.272 198.256 517.768 197.972 518.088 197.404C518.416 196.836 518.58 195.952 518.58 194.752C518.58 193.552 518.42 192.676 518.1 192.124C517.78 191.564 517.28 191.284 516.6 191.284C515.928 191.284 515.428 191.564 515.1 192.124C514.78 192.684 514.62 193.56 514.62 194.752C514.62 195.952 514.78 196.836 515.1 197.404C515.428 197.972 515.928 198.256 516.6 198.256ZM521.455 200.368L520.999 200.02C521.175 199.836 521.299 199.66 521.371 199.492C521.451 199.332 521.503 199.168 521.527 199H520.951V197.776H522.175V198.64C522.175 198.968 522.123 199.272 522.019 199.552C521.915 199.832 521.727 200.104 521.455 200.368ZM526.706 199.108C526.162 199.108 525.642 199.02 525.146 198.844C524.65 198.668 524.23 198.42 523.886 198.1L524.258 197.32C525.002 197.928 525.814 198.232 526.694 198.232C527.278 198.232 527.738 198.068 528.074 197.74C528.41 197.412 528.578 196.98 528.578 196.444C528.578 195.892 528.418 195.44 528.098 195.088C527.778 194.736 527.338 194.56 526.778 194.56C525.97 194.56 525.334 194.896 524.87 195.568H524.15V190.54H529.058V191.38H525.122V194.404C525.586 193.94 526.198 193.708 526.958 193.708C527.486 193.708 527.946 193.82 528.338 194.044C528.73 194.268 529.03 194.584 529.238 194.992C529.454 195.392 529.562 195.86 529.562 196.396C529.562 196.924 529.446 197.392 529.214 197.8C528.982 198.208 528.65 198.528 528.218 198.76C527.794 198.992 527.29 199.108 526.706 199.108ZM533.721 199.108C532.753 199.108 532.017 198.736 531.513 197.992C531.009 197.248 530.757 196.172 530.757 194.764C530.757 193.348 531.009 192.272 531.513 191.536C532.017 190.8 532.753 190.432 533.721 190.432C534.697 190.432 535.433 190.8 535.929 191.536C536.433 192.264 536.685 193.336 536.685 194.752C536.685 196.168 536.429 197.248 535.917 197.992C535.413 198.736 534.681 199.108 533.721 199.108ZM533.721 198.256C534.393 198.256 534.889 197.972 535.209 197.404C535.537 196.836 535.701 195.952 535.701 194.752C535.701 193.552 535.541 192.676 535.221 192.124C534.901 191.564 534.401 191.284 533.721 191.284C533.049 191.284 532.549 191.564 532.221 192.124C531.901 192.684 531.741 193.56 531.741 194.752C531.741 195.952 531.901 196.836 532.221 197.404C532.549 197.972 533.049 198.256 533.721 198.256Z" fill="#6C707B"/>
<path d="M516.6 275.108C515.632 275.108 514.896 274.736 514.392 273.992C513.888 273.248 513.636 272.172 513.636 270.764C513.636 269.348 513.888 268.272 514.392 267.536C514.896 266.8 515.632 266.432 516.6 266.432C517.576 266.432 518.312 266.8 518.808 267.536C519.312 268.264 519.564 269.336 519.564 270.752C519.564 272.168 519.308 273.248 518.796 273.992C518.292 274.736 517.56 275.108 516.6 275.108ZM516.6 274.256C517.272 274.256 517.768 273.972 518.088 273.404C518.416 272.836 518.58 271.952 518.58 270.752C518.58 269.552 518.42 268.676 518.1 268.124C517.78 267.564 517.28 267.284 516.6 267.284C515.928 267.284 515.428 267.564 515.1 268.124C514.78 268.684 514.62 269.56 514.62 270.752C514.62 271.952 514.78 272.836 515.1 273.404C515.428 273.972 515.928 274.256 516.6 274.256ZM521.455 276.368L520.999 276.02C521.175 275.836 521.299 275.66 521.371 275.492C521.451 275.332 521.503 275.168 521.527 275H520.951V273.776H522.175V274.64C522.175 274.968 522.123 275.272 522.019 275.552C521.915 275.832 521.727 276.104 521.455 276.368ZM524.006 275V274.256L526.898 271.136C527.306 270.688 527.598 270.28 527.774 269.912C527.958 269.544 528.05 269.168 528.05 268.784C528.05 267.8 527.478 267.308 526.334 267.308C525.478 267.308 524.722 267.628 524.066 268.268L523.694 267.5C524.006 267.18 524.402 266.924 524.882 266.732C525.37 266.532 525.882 266.432 526.418 266.432C527.266 266.432 527.914 266.632 528.362 267.032C528.818 267.424 529.046 267.984 529.046 268.712C529.046 269.216 528.922 269.712 528.674 270.2C528.426 270.68 528.046 271.192 527.534 271.736L525.266 274.16H529.394V275H524.006ZM533.901 275.108C533.357 275.108 532.837 275.02 532.341 274.844C531.845 274.668 531.425 274.42 531.081 274.1L531.453 273.32C532.197 273.928 533.009 274.232 533.889 274.232C534.473 274.232 534.933 274.068 535.269 273.74C535.605 273.412 535.773 272.98 535.773 272.444C535.773 271.892 535.613 271.44 535.293 271.088C534.973 270.736 534.533 270.56 533.973 270.56C533.165 270.56 532.529 270.896 532.065 271.568H531.345V266.54H536.253V267.38H532.317V270.404C532.781 269.94 533.393 269.708 534.153 269.708C534.681 269.708 535.141 269.82 535.533 270.044C535.925 270.268 536.225 270.584 536.433 270.992C536.649 271.392 536.757 271.86 536.757 272.396C536.757 272.924 536.641 273.392 536.409 273.8C536.177 274.208 535.845 274.528 535.413 274.76C534.989 274.992 534.485 275.108 533.901 275.108Z" fill="#6C707B"/>
<path d="M516.6 351.108C515.632 351.108 514.896 350.736 514.392 349.992C513.888 349.248 513.636 348.172 513.636 346.764C513.636 345.348 513.888 344.272 514.392 343.536C514.896 342.8 515.632 342.432 516.6 342.432C517.576 342.432 518.312 342.8 518.808 343.536C519.312 344.264 519.564 345.336 519.564 346.752C519.564 348.168 519.308 349.248 518.796 349.992C518.292 350.736 517.56 351.108 516.6 351.108ZM516.6 350.256C517.272 350.256 517.768 349.972 518.088 349.404C518.416 348.836 518.58 347.952 518.58 346.752C518.58 345.552 518.42 344.676 518.1 344.124C517.78 343.564 517.28 343.284 516.6 343.284C515.928 343.284 515.428 343.564 515.1 344.124C514.78 344.684 514.62 345.56 514.62 346.752C514.62 347.952 514.78 348.836 515.1 349.404C515.428 349.972 515.928 350.256 516.6 350.256ZM521.455 352.368L520.999 352.02C521.175 351.836 521.299 351.66 521.371 351.492C521.451 351.332 521.503 351.168 521.527 351H520.951V349.776H522.175V350.64C522.175 350.968 522.123 351.272 522.019 351.552C521.915 351.832 521.727 352.104 521.455 352.368ZM526.526 351.108C525.558 351.108 524.822 350.736 524.318 349.992C523.814 349.248 523.562 348.172 523.562 346.764C523.562 345.348 523.814 344.272 524.318 343.536C524.822 342.8 525.558 342.432 526.526 342.432C527.502 342.432 528.238 342.8 528.734 343.536C529.238 344.264 529.49 345.336 529.49 346.752C529.49 348.168 529.234 349.248 528.722 349.992C528.218 350.736 527.486 351.108 526.526 351.108ZM526.526 350.256C527.198 350.256 527.694 349.972 528.014 349.404C528.342 348.836 528.506 347.952 528.506 346.752C528.506 345.552 528.346 344.676 528.026 344.124C527.706 343.564 527.206 343.284 526.526 343.284C525.854 343.284 525.354 343.564 525.026 344.124C524.706 344.684 524.546 345.56 524.546 346.752C524.546 347.952 524.706 348.836 525.026 349.404C525.354 349.972 525.854 350.256 526.526 350.256ZM533.721 351.108C532.753 351.108 532.017 350.736 531.513 349.992C531.009 349.248 530.757 348.172 530.757 346.764C530.757 345.348 531.009 344.272 531.513 343.536C532.017 342.8 532.753 342.432 533.721 342.432C534.697 342.432 535.433 342.8 535.929 343.536C536.433 344.264 536.685 345.336 536.685 346.752C536.685 348.168 536.429 349.248 535.917 349.992C535.413 350.736 534.681 351.108 533.721 351.108ZM533.721 350.256C534.393 350.256 534.889 349.972 535.209 349.404C535.537 348.836 535.701 347.952 535.701 346.752C535.701 345.552 535.541 344.676 535.221 344.124C534.901 343.564 534.401 343.284 533.721 343.284C533.049 343.284 532.549 343.564 532.221 344.124C531.901 344.684 531.741 345.56 531.741 346.752C531.741 347.952 531.901 348.836 532.221 349.404C532.549 349.972 533.049 350.256 533.721 350.256Z" fill="#6C707B"/>
<rect x="3" y="347" width="500" height="1" fill="url(#graph21)" fill-opacity="0.1"/>
<rect x="502" y="43" width="1" height="305" fill="url(#graph22)" fill-opacity="0.1"/>
<rect x="422" width="1" height="348" fill="url(#graph23)" fill-opacity="0.1"/>
<rect x="340" width="1" height="348" fill="url(#graph24)" fill-opacity="0.1"/>
<rect x="179" width="1" height="348" fill="url(#graph25)" fill-opacity="0.1"/>
<rect x="100" width="1" height="348" fill="url(#graph26)" fill-opacity="0.1"/>
<rect x="259" width="1" height="348" fill="url(#graph27)" fill-opacity="0.1"/>
<path d="M38.4042 375V374.256L41.2962 371.136C41.7042 370.688 41.9962 370.28 42.1722 369.912C42.3562 369.544 42.4482 369.168 42.4482 368.784C42.4482 367.8 41.8762 367.308 40.7322 367.308C39.8762 367.308 39.1202 367.628 38.4642 368.268L38.0922 367.5C38.4042 367.18 38.8002 366.924 39.2802 366.732C39.7682 366.532 40.2802 366.432 40.8162 366.432C41.6642 366.432 42.3122 366.632 42.7602 367.032C43.2162 367.424 43.4442 367.984 43.4442 368.712C43.4442 369.216 43.3202 369.712 43.0722 370.2C42.8242 370.68 42.4442 371.192 41.9322 371.736L39.6642 374.16H43.7922V375H38.4042ZM48.2995 375.108C47.7555 375.108 47.2355 375.02 46.7395 374.844C46.2435 374.668 45.8235 374.42 45.4795 374.1L45.8515 373.32C46.5955 373.928 47.4075 374.232 48.2875 374.232C48.8715 374.232 49.3315 374.068 49.6675 373.74C50.0035 373.412 50.1715 372.98 50.1715 372.444C50.1715 371.892 50.0115 371.44 49.6915 371.088C49.3715 370.736 48.9315 370.56 48.3715 370.56C47.5635 370.56 46.9275 370.896 46.4635 371.568H45.7435V366.54H50.6515V367.38H46.7155V370.404C47.1795 369.94 47.7915 369.708 48.5515 369.708C49.0795 369.708 49.5395 369.82 49.9315 370.044C50.3235 370.268 50.6235 370.584 50.8315 370.992C51.0475 371.392 51.1555 371.86 51.1555 372.396C51.1555 372.924 51.0395 373.392 50.8075 373.8C50.5755 374.208 50.2435 374.528 49.8115 374.76C49.3875 374.992 48.8835 375.108 48.2995 375.108ZM55.8409 375V366.54H56.7649V373.368L61.8649 366.54H62.6209V375H61.7089V368.148L56.5969 375H55.8409ZM69.5117 375.108C68.7117 375.108 68.0677 374.864 67.5797 374.376C67.0917 373.88 66.8157 373.216 66.7517 372.384H65.5877V375H64.6397V369.168H65.5877V371.592H66.7637C66.8597 370.808 67.1477 370.192 67.6277 369.744C68.1157 369.288 68.7437 369.06 69.5117 369.06C70.0797 369.06 70.5717 369.184 70.9877 369.432C71.4037 369.68 71.7237 370.032 71.9477 370.488C72.1797 370.936 72.2957 371.468 72.2957 372.084C72.2957 372.7 72.1797 373.236 71.9477 373.692C71.7237 374.14 71.4037 374.488 70.9877 374.736C70.5717 374.984 70.0797 375.108 69.5117 375.108ZM69.5117 374.328C70.0637 374.328 70.4997 374.136 70.8197 373.752C71.1477 373.36 71.3117 372.804 71.3117 372.084C71.3117 371.356 71.1477 370.8 70.8197 370.416C70.4997 370.032 70.0637 369.84 69.5117 369.84C68.9677 369.84 68.5317 370.032 68.2037 370.416C67.8757 370.8 67.7117 371.356 67.7117 372.084C67.7117 372.804 67.8757 373.36 68.2037 373.752C68.5317 374.136 68.9677 374.328 69.5117 374.328ZM73.4212 375.132L73.0612 374.364C73.4212 374.212 73.7052 374 73.9132 373.728C74.1212 373.448 74.2652 373.064 74.3452 372.576C74.4332 372.088 74.4772 371.448 74.4772 370.656V369.168H78.7132V375H77.7412V369.948H75.3892V370.692C75.3892 371.604 75.3212 372.356 75.1852 372.948C75.0572 373.54 74.8492 374.008 74.5612 374.352C74.2732 374.696 73.8932 374.956 73.4212 375.132Z" fill="#6C707B"/>
<path d="M122.084 375V374.256L124.976 371.136C125.384 370.688 125.676 370.28 125.852 369.912C126.036 369.544 126.128 369.168 126.128 368.784C126.128 367.8 125.556 367.308 124.412 367.308C123.556 367.308 122.8 367.628 122.144 368.268L121.772 367.5C122.084 367.18 122.48 366.924 122.96 366.732C123.448 366.532 123.96 366.432 124.496 366.432C125.344 366.432 125.992 366.632 126.44 367.032C126.896 367.424 127.124 367.984 127.124 368.712C127.124 369.216 127 369.712 126.752 370.2C126.504 370.68 126.124 371.192 125.612 371.736L123.344 374.16H127.472V375H122.084ZM131.979 375.108C131.435 375.108 130.915 375.02 130.419 374.844C129.923 374.668 129.503 374.42 129.159 374.1L129.531 373.32C130.275 373.928 131.087 374.232 131.967 374.232C132.551 374.232 133.011 374.068 133.347 373.74C133.683 373.412 133.851 372.98 133.851 372.444C133.851 371.892 133.691 371.44 133.371 371.088C133.051 370.736 132.611 370.56 132.051 370.56C131.243 370.56 130.607 370.896 130.143 371.568H129.423V366.54H134.331V367.38H130.395V370.404C130.859 369.94 131.471 369.708 132.231 369.708C132.759 369.708 133.219 369.82 133.611 370.044C134.003 370.268 134.303 370.584 134.511 370.992C134.727 371.392 134.835 371.86 134.835 372.396C134.835 372.924 134.719 373.392 134.487 373.8C134.255 374.208 133.923 374.528 133.491 374.76C133.067 374.992 132.563 375.108 131.979 375.108ZM138.705 375L142.437 366.54H143.277L147.009 375H145.989L145.053 372.84H140.649L139.725 375H138.705ZM142.845 367.692L141.009 372.012H144.705L142.869 367.692H142.845ZM148.179 375V369.168H151.023C151.711 369.168 152.219 369.3 152.547 369.564C152.875 369.82 153.039 370.2 153.039 370.704C153.039 371.008 152.951 371.272 152.775 371.496C152.607 371.72 152.375 371.884 152.079 371.988C152.439 372.076 152.719 372.244 152.919 372.492C153.127 372.74 153.231 373.04 153.231 373.392C153.231 373.888 153.047 374.28 152.679 374.568C152.311 374.856 151.791 375 151.119 375H148.179ZM149.103 371.7H150.975C151.343 371.7 151.627 371.62 151.827 371.46C152.027 371.292 152.127 371.056 152.127 370.752C152.127 370.456 152.027 370.228 151.827 370.068C151.627 369.908 151.343 369.828 150.975 369.828H149.103V371.7ZM149.103 374.34H151.083C151.483 374.34 151.787 374.256 151.995 374.088C152.203 373.92 152.307 373.672 152.307 373.344C152.307 373.024 152.203 372.78 151.995 372.612C151.787 372.444 151.483 372.36 151.083 372.36H149.103V374.34ZM154.741 375V369.168H158.833V369.948H155.713V375H154.741Z" fill="#6C707B"/>
<path d="M201.828 375V374.16H203.76V367.728L202.236 368.688L201.816 367.956L204.036 366.54H204.744V374.16H206.556V375H201.828ZM211.135 375.108C210.167 375.108 209.431 374.736 208.927 373.992C208.423 373.248 208.171 372.172 208.171 370.764C208.171 369.348 208.423 368.272 208.927 367.536C209.431 366.8 210.167 366.432 211.135 366.432C212.111 366.432 212.847 366.8 213.343 367.536C213.847 368.264 214.099 369.336 214.099 370.752C214.099 372.168 213.843 373.248 213.331 373.992C212.827 374.736 212.095 375.108 211.135 375.108ZM211.135 374.256C211.807 374.256 212.303 373.972 212.623 373.404C212.951 372.836 213.115 371.952 213.115 370.752C213.115 369.552 212.955 368.676 212.635 368.124C212.315 367.564 211.815 367.284 211.135 367.284C210.463 367.284 209.963 367.564 209.635 368.124C209.315 368.684 209.155 369.56 209.155 370.752C209.155 371.952 209.315 372.836 209.635 373.404C209.963 373.972 210.463 374.256 211.135 374.256ZM222.409 375.108C221.625 375.108 220.941 374.932 220.357 374.58C219.781 374.22 219.333 373.716 219.013 373.068C218.701 372.42 218.545 371.652 218.545 370.764C218.545 369.876 218.701 369.108 219.013 368.46C219.325 367.812 219.769 367.312 220.345 366.96C220.929 366.608 221.617 366.432 222.409 366.432C223.209 366.432 223.897 366.608 224.473 366.96C225.057 367.312 225.505 367.812 225.817 368.46C226.137 369.1 226.297 369.864 226.297 370.752C226.297 371.64 226.137 372.412 225.817 373.068C225.497 373.716 225.045 374.22 224.461 374.58C223.885 374.932 223.201 375.108 222.409 375.108ZM222.409 374.232C223.313 374.232 224.013 373.928 224.509 373.32C225.005 372.712 225.253 371.86 225.253 370.764C225.253 369.668 225.005 368.82 224.509 368.22C224.013 367.612 223.313 367.308 222.409 367.308C221.521 367.308 220.829 367.612 220.333 368.22C219.837 368.82 219.589 369.668 219.589 370.764C219.589 371.852 219.837 372.704 220.333 373.32C220.829 373.928 221.521 374.232 222.409 374.232ZM227.972 375V369.168H228.944V371.604H230.036L231.944 369.168H233.012L230.984 371.796C231.192 371.876 231.38 372.008 231.548 372.192C231.716 372.376 231.904 372.64 232.112 372.984L233.312 375H232.268L231.212 373.236C231.012 372.892 230.82 372.664 230.636 372.552C230.452 372.44 230.192 372.384 229.856 372.384H228.944V375H227.972ZM235.5 375V369.948H233.388V369.168H238.596V369.948H236.472V375H235.5Z" fill="#6C707B"/>
<path d="M281.264 375V374.256L284.156 371.136C284.564 370.688 284.856 370.28 285.032 369.912C285.216 369.544 285.308 369.168 285.308 368.784C285.308 367.8 284.736 367.308 283.592 367.308C282.736 367.308 281.98 367.628 281.324 368.268L280.952 367.5C281.264 367.18 281.66 366.924 282.14 366.732C282.628 366.532 283.14 366.432 283.676 366.432C284.524 366.432 285.172 366.632 285.62 367.032C286.076 367.424 286.304 367.984 286.304 368.712C286.304 369.216 286.18 369.712 285.932 370.2C285.684 370.68 285.304 371.192 284.792 371.736L282.524 374.16H286.652V375H281.264ZM291.159 375.108C290.615 375.108 290.095 375.02 289.599 374.844C289.103 374.668 288.683 374.42 288.339 374.1L288.711 373.32C289.455 373.928 290.267 374.232 291.147 374.232C291.731 374.232 292.191 374.068 292.527 373.74C292.863 373.412 293.031 372.98 293.031 372.444C293.031 371.892 292.871 371.44 292.551 371.088C292.231 370.736 291.791 370.56 291.231 370.56C290.423 370.56 289.787 370.896 289.323 371.568H288.603V366.54H293.511V367.38H289.575V370.404C290.039 369.94 290.651 369.708 291.411 369.708C291.939 369.708 292.399 369.82 292.791 370.044C293.183 370.268 293.483 370.584 293.691 370.992C293.907 371.392 294.015 371.86 294.015 372.396C294.015 372.924 293.899 373.392 293.667 373.8C293.435 374.208 293.103 374.528 292.671 374.76C292.247 374.992 291.743 375.108 291.159 375.108ZM297.86 376.884V374.172H298.688C299.104 373.652 299.412 372.948 299.612 372.06C299.812 371.164 299.912 370.052 299.912 368.724V366.54H305.528V374.172H306.728V376.884H305.828V375H298.748V376.884H297.86ZM299.72 374.172H304.532V367.368H300.836V368.796C300.836 370.084 300.744 371.16 300.56 372.024C300.384 372.888 300.104 373.604 299.72 374.172ZM310.596 375.108C309.676 375.108 308.948 374.84 308.412 374.304C307.876 373.76 307.608 373.024 307.608 372.096C307.608 371.496 307.728 370.968 307.968 370.512C308.208 370.048 308.536 369.692 308.952 369.444C309.376 369.188 309.864 369.06 310.416 369.06C311.208 369.06 311.828 369.316 312.276 369.828C312.724 370.332 312.948 371.028 312.948 371.916V372.288H308.556C308.588 372.952 308.78 373.46 309.132 373.812C309.484 374.156 309.972 374.328 310.596 374.328C310.948 374.328 311.284 374.276 311.604 374.172C311.924 374.06 312.228 373.88 312.516 373.632L312.852 374.316C312.588 374.564 312.252 374.76 311.844 374.904C311.436 375.04 311.02 375.108 310.596 375.108ZM310.44 369.78C309.888 369.78 309.452 369.952 309.132 370.296C308.812 370.64 308.624 371.092 308.568 371.652H312.108C312.084 371.06 311.928 370.6 311.64 370.272C311.36 369.944 310.96 369.78 310.44 369.78ZM314.46 375V369.168H315.432V371.604H316.524L318.432 369.168H319.5L317.472 371.796C317.68 371.876 317.868 372.008 318.036 372.192C318.204 372.376 318.392 372.64 318.6 372.984L319.8 375H318.756L317.7 373.236C317.5 372.892 317.308 372.664 317.124 372.552C316.94 372.44 316.68 372.384 316.344 372.384H315.432V375H314.46Z" fill="#6C707B"/>
<path d="M328.189 375V374.256L331.081 371.136C331.489 370.688 331.781 370.28 331.957 369.912C332.141 369.544 332.233 369.168 332.233 368.784C332.233 367.8 331.661 367.308 330.517 367.308C329.661 367.308 328.905 367.628 328.249 368.268L327.877 367.5C328.189 367.18 328.585 366.924 329.065 366.732C329.553 366.532 330.065 366.432 330.601 366.432C331.449 366.432 332.097 366.632 332.545 367.032C333.001 367.424 333.229 367.984 333.229 368.712C333.229 369.216 333.105 369.712 332.857 370.2C332.609 370.68 332.229 371.192 331.717 371.736L329.449 374.16H333.577V375H328.189ZM337.905 375.108C336.937 375.108 336.201 374.736 335.697 373.992C335.193 373.248 334.941 372.172 334.941 370.764C334.941 369.348 335.193 368.272 335.697 367.536C336.201 366.8 336.937 366.432 337.905 366.432C338.881 366.432 339.617 366.8 340.113 367.536C340.617 368.264 340.869 369.336 340.869 370.752C340.869 372.168 340.613 373.248 340.101 373.992C339.597 374.736 338.865 375.108 337.905 375.108ZM337.905 374.256C338.577 374.256 339.073 373.972 339.393 373.404C339.721 372.836 339.885 371.952 339.885 370.752C339.885 369.552 339.725 368.676 339.405 368.124C339.085 367.564 338.585 367.284 337.905 367.284C337.233 367.284 336.733 367.564 336.405 368.124C336.085 368.684 335.925 369.56 335.925 370.752C335.925 371.952 336.085 372.836 336.405 373.404C336.733 373.972 337.233 374.256 337.905 374.256ZM342.58 375V374.256L345.472 371.136C345.88 370.688 346.172 370.28 346.348 369.912C346.532 369.544 346.624 369.168 346.624 368.784C346.624 367.8 346.052 367.308 344.908 367.308C344.052 367.308 343.296 367.628 342.64 368.268L342.268 367.5C342.58 367.18 342.976 366.924 343.456 366.732C343.944 366.532 344.456 366.432 344.992 366.432C345.84 366.432 346.488 366.632 346.936 367.032C347.392 367.424 347.62 367.984 347.62 368.712C347.62 369.216 347.496 369.712 347.248 370.2C347 370.68 346.62 371.192 346.108 371.736L343.84 374.16H347.968V375H342.58ZM349.775 375V374.256L352.667 371.136C353.075 370.688 353.367 370.28 353.543 369.912C353.727 369.544 353.819 369.168 353.819 368.784C353.819 367.8 353.247 367.308 352.103 367.308C351.247 367.308 350.491 367.628 349.835 368.268L349.463 367.5C349.775 367.18 350.171 366.924 350.651 366.732C351.139 366.532 351.651 366.432 352.187 366.432C353.035 366.432 353.683 366.632 354.131 367.032C354.587 367.424 354.815 367.984 354.815 368.712C354.815 369.216 354.691 369.712 354.443 370.2C354.195 370.68 353.815 371.192 353.303 371.736L351.035 374.16H355.163V375H349.775Z" fill="black"/>
<path d="M4.18938 375V374.256L7.08138 371.136C7.48938 370.688 7.78138 370.28 7.95738 369.912C8.14138 369.544 8.23338 369.168 8.23338 368.784C8.23338 367.8 7.66138 367.308 6.51738 367.308C5.66138 367.308 4.90538 367.628 4.24938 368.268L3.87738 367.5C4.18938 367.18 4.58538 366.924 5.06538 366.732C5.55338 366.532 6.06538 366.432 6.60138 366.432C7.44938 366.432 8.09738 366.632 8.54538 367.032C9.00138 367.424 9.22938 367.984 9.22938 368.712C9.22938 369.216 9.10538 369.712 8.85738 370.2C8.60938 370.68 8.22938 371.192 7.71738 371.736L5.44938 374.16H9.57738V375H4.18938ZM13.9047 375.108C12.9367 375.108 12.2007 374.736 11.6967 373.992C11.1927 373.248 10.9407 372.172 10.9407 370.764C10.9407 369.348 11.1927 368.272 11.6967 367.536C12.2007 366.8 12.9367 366.432 13.9047 366.432C14.8807 366.432 15.6167 366.8 16.1127 367.536C16.6167 368.264 16.8687 369.336 16.8687 370.752C16.8687 372.168 16.6127 373.248 16.1007 373.992C15.5967 374.736 14.8647 375.108 13.9047 375.108ZM13.9047 374.256C14.5767 374.256 15.0727 373.972 15.3927 373.404C15.7207 372.836 15.8847 371.952 15.8847 370.752C15.8847 369.552 15.7247 368.676 15.4047 368.124C15.0847 367.564 14.5847 367.284 13.9047 367.284C13.2327 367.284 12.7327 367.564 12.4047 368.124C12.0847 368.684 11.9247 369.56 11.9247 370.752C11.9247 371.952 12.0847 372.836 12.4047 373.404C12.7327 373.972 13.2327 374.256 13.9047 374.256ZM18.58 375V374.256L21.472 371.136C21.88 370.688 22.172 370.28 22.348 369.912C22.532 369.544 22.624 369.168 22.624 368.784C22.624 367.8 22.052 367.308 20.908 367.308C20.052 367.308 19.296 367.628 18.64 368.268L18.268 367.5C18.58 367.18 18.976 366.924 19.456 366.732C19.944 366.532 20.456 366.432 20.992 366.432C21.84 366.432 22.488 366.632 22.936 367.032C23.392 367.424 23.62 367.984 23.62 368.712C23.62 369.216 23.496 369.712 23.248 370.2C23 370.68 22.62 371.192 22.108 371.736L19.84 374.16H23.968V375H18.58ZM26.1833 375V374.16H28.1153V367.728L26.5913 368.688L26.1713 367.956L28.3913 366.54H29.0993V374.16H30.9113V375H26.1833Z" fill="black"/>
<path d="M362.541 375V374.256L365.433 371.136C365.841 370.688 366.133 370.28 366.309 369.912C366.493 369.544 366.585 369.168 366.585 368.784C366.585 367.8 366.013 367.308 364.869 367.308C364.013 367.308 363.257 367.628 362.601 368.268L362.229 367.5C362.541 367.18 362.937 366.924 363.417 366.732C363.905 366.532 364.417 366.432 364.953 366.432C365.801 366.432 366.449 366.632 366.897 367.032C367.353 367.424 367.581 367.984 367.581 368.712C367.581 369.216 367.457 369.712 367.209 370.2C366.961 370.68 366.581 371.192 366.069 371.736L363.801 374.16H367.929V375H362.541ZM372.436 375.108C371.892 375.108 371.372 375.02 370.876 374.844C370.38 374.668 369.96 374.42 369.616 374.1L369.988 373.32C370.732 373.928 371.544 374.232 372.424 374.232C373.008 374.232 373.468 374.068 373.804 373.74C374.14 373.412 374.308 372.98 374.308 372.444C374.308 371.892 374.148 371.44 373.828 371.088C373.508 370.736 373.068 370.56 372.508 370.56C371.7 370.56 371.064 370.896 370.6 371.568H369.88V366.54H374.788V367.38H370.852V370.404C371.316 369.94 371.928 369.708 372.688 369.708C373.216 369.708 373.676 369.82 374.068 370.044C374.46 370.268 374.76 370.584 374.968 370.992C375.184 371.392 375.292 371.86 375.292 372.396C375.292 372.924 375.176 373.392 374.944 373.8C374.712 374.208 374.38 374.528 373.948 374.76C373.524 374.992 373.02 375.108 372.436 375.108ZM383.218 377.16V374.052C383.074 374.388 382.87 374.648 382.606 374.832C382.342 375.016 382.026 375.108 381.658 375.108C381.234 375.108 380.862 374.984 380.542 374.736C380.23 374.488 379.986 374.14 379.81 373.692C379.634 373.236 379.546 372.7 379.546 372.084C379.546 371.156 379.738 370.42 380.122 369.876C380.506 369.332 381.018 369.06 381.658 369.06C382.026 369.06 382.342 369.152 382.606 369.336C382.87 369.52 383.074 369.78 383.218 370.116V366.54H384.19V370.104C384.334 369.768 384.538 369.512 384.802 369.336C385.066 369.152 385.382 369.06 385.75 369.06C386.382 369.06 386.89 369.332 387.274 369.876C387.666 370.42 387.862 371.156 387.862 372.084C387.862 373.004 387.67 373.74 387.286 374.292C386.902 374.836 386.39 375.108 385.75 375.108C385.382 375.108 385.066 375.016 384.802 374.832C384.538 374.648 384.334 374.392 384.19 374.064V377.16H383.218ZM381.874 374.34C382.298 374.34 382.63 374.148 382.87 373.764C383.11 373.38 383.23 372.82 383.23 372.084C383.23 371.348 383.106 370.788 382.858 370.404C382.618 370.02 382.29 369.828 381.874 369.828C381.458 369.828 381.126 370.02 380.878 370.404C380.638 370.788 380.518 371.348 380.518 372.084C380.518 372.82 380.638 373.38 380.878 373.764C381.126 374.148 381.458 374.34 381.874 374.34ZM385.522 374.34C385.938 374.34 386.27 374.148 386.518 373.764C386.766 373.38 386.89 372.82 386.89 372.084C386.89 371.348 386.766 370.788 386.518 370.404C386.27 370.02 385.938 369.828 385.522 369.828C385.106 369.828 384.778 370.02 384.538 370.404C384.298 370.788 384.178 371.348 384.178 372.084C384.178 372.82 384.294 373.38 384.526 373.764C384.766 374.148 385.098 374.34 385.522 374.34ZM392.073 375.108C391.153 375.108 390.425 374.84 389.889 374.304C389.353 373.76 389.085 373.024 389.085 372.096C389.085 371.496 389.205 370.968 389.445 370.512C389.685 370.048 390.013 369.692 390.429 369.444C390.853 369.188 391.341 369.06 391.893 369.06C392.685 369.06 393.305 369.316 393.753 369.828C394.201 370.332 394.425 371.028 394.425 371.916V372.288H390.033C390.065 372.952 390.257 373.46 390.609 373.812C390.961 374.156 391.449 374.328 392.073 374.328C392.425 374.328 392.761 374.276 393.081 374.172C393.401 374.06 393.705 373.88 393.993 373.632L394.329 374.316C394.065 374.564 393.729 374.76 393.321 374.904C392.913 375.04 392.497 375.108 392.073 375.108ZM391.917 369.78C391.365 369.78 390.929 369.952 390.609 370.296C390.289 370.64 390.101 371.092 390.045 371.652H393.585C393.561 371.06 393.405 370.6 393.117 370.272C392.837 369.944 392.437 369.78 391.917 369.78ZM395.937 375V369.168H398.781C399.469 369.168 399.977 369.3 400.305 369.564C400.633 369.82 400.797 370.2 400.797 370.704C400.797 371.008 400.709 371.272 400.533 371.496C400.365 371.72 400.133 371.884 399.837 371.988C400.197 372.076 400.477 372.244 400.677 372.492C400.885 372.74 400.989 373.04 400.989 373.392C400.989 373.888 400.805 374.28 400.437 374.568C400.069 374.856 399.549 375 398.877 375H395.937ZM396.861 371.7H398.733C399.101 371.7 399.385 371.62 399.585 371.46C399.785 371.292 399.885 371.056 399.885 370.752C399.885 370.456 399.785 370.228 399.585 370.068C399.385 369.908 399.101 369.828 398.733 369.828H396.861V371.7ZM396.861 374.34H398.841C399.241 374.34 399.545 374.256 399.753 374.088C399.961 373.92 400.065 373.672 400.065 373.344C400.065 373.024 399.961 372.78 399.753 372.612C399.545 372.444 399.241 372.36 398.841 372.36H396.861V374.34Z" fill="#6C707B"/>
<path d="M444.549 375V374.256L447.441 371.136C447.849 370.688 448.141 370.28 448.317 369.912C448.501 369.544 448.593 369.168 448.593 368.784C448.593 367.8 448.021 367.308 446.877 367.308C446.021 367.308 445.265 367.628 444.609 368.268L444.237 367.5C444.549 367.18 444.945 366.924 445.425 366.732C445.913 366.532 446.425 366.432 446.961 366.432C447.809 366.432 448.457 366.632 448.905 367.032C449.361 367.424 449.589 367.984 449.589 368.712C449.589 369.216 449.465 369.712 449.217 370.2C448.969 370.68 448.589 371.192 448.077 371.736L445.809 374.16H449.937V375H444.549ZM454.444 375.108C453.9 375.108 453.38 375.02 452.884 374.844C452.388 374.668 451.968 374.42 451.624 374.1L451.996 373.32C452.74 373.928 453.552 374.232 454.432 374.232C455.016 374.232 455.476 374.068 455.812 373.74C456.148 373.412 456.316 372.98 456.316 372.444C456.316 371.892 456.156 371.44 455.836 371.088C455.516 370.736 455.076 370.56 454.516 370.56C453.708 370.56 453.072 370.896 452.608 371.568H451.888V366.54H456.796V367.38H452.86V370.404C453.324 369.94 453.936 369.708 454.696 369.708C455.224 369.708 455.684 369.82 456.076 370.044C456.468 370.268 456.768 370.584 456.976 370.992C457.192 371.392 457.3 371.86 457.3 372.396C457.3 372.924 457.184 373.392 456.952 373.8C456.72 374.208 456.388 374.528 455.956 374.76C455.532 374.992 455.028 375.108 454.444 375.108ZM463.749 375.108C463.349 375.108 462.989 375.032 462.669 374.88C462.357 374.72 462.109 374.504 461.925 374.232C461.741 373.96 461.649 373.656 461.649 373.32C461.649 372.896 461.757 372.56 461.973 372.312C462.197 372.064 462.561 371.888 463.065 371.784C463.577 371.672 464.273 371.616 465.153 371.616H465.537V371.244C465.537 370.748 465.433 370.392 465.225 370.176C465.025 369.952 464.701 369.84 464.253 369.84C463.901 369.84 463.561 369.892 463.233 369.996C462.905 370.092 462.569 370.252 462.225 370.476L461.889 369.768C462.193 369.552 462.561 369.38 462.993 369.252C463.433 369.124 463.853 369.06 464.253 369.06C465.005 369.06 465.561 369.244 465.921 369.612C466.289 369.98 466.473 370.552 466.473 371.328V375H465.561V373.992C465.409 374.336 465.173 374.608 464.853 374.808C464.541 375.008 464.173 375.108 463.749 375.108ZM463.905 374.376C464.385 374.376 464.777 374.212 465.081 373.884C465.385 373.548 465.537 373.124 465.537 372.612V372.252H465.165C464.517 372.252 464.005 372.284 463.629 372.348C463.261 372.404 463.001 372.508 462.849 372.66C462.705 372.804 462.633 373.004 462.633 373.26C462.633 373.588 462.745 373.856 462.969 374.064C463.201 374.272 463.513 374.376 463.905 374.376ZM468.37 375V369.168H473.458V375H472.486V369.948H469.342V375H468.37ZM475.39 377.16V369.168H476.338V370.212C476.514 369.852 476.774 369.572 477.118 369.372C477.47 369.164 477.878 369.06 478.342 369.06C478.862 369.06 479.314 369.184 479.698 369.432C480.09 369.672 480.39 370.02 480.598 370.476C480.814 370.924 480.922 371.46 480.922 372.084C480.922 372.7 480.814 373.236 480.598 373.692C480.39 374.14 480.09 374.488 479.698 374.736C479.314 374.984 478.862 375.108 478.342 375.108C477.894 375.108 477.494 375.008 477.142 374.808C476.79 374.608 476.53 374.332 476.362 373.98V377.16H475.39ZM478.138 374.328C478.682 374.328 479.118 374.136 479.446 373.752C479.774 373.36 479.938 372.804 479.938 372.084C479.938 371.356 479.774 370.8 479.446 370.416C479.118 370.032 478.682 369.84 478.138 369.84C477.594 369.84 477.158 370.032 476.83 370.416C476.502 370.8 476.338 371.356 476.338 372.084C476.338 372.804 476.502 373.36 476.83 373.752C477.158 374.136 477.594 374.328 478.138 374.328Z" fill="#6C707B"/>
<rect x="259" y="361" width="1" height="20" fill="black" fill-opacity="0.05"/>
<rect x="340" y="361" width="1" height="20" fill="black" fill-opacity="0.05"/>
<rect x="422" y="361" width="1" height="20" fill="black" fill-opacity="0.05"/>
<rect x="502" y="361" width="1" height="20" fill="black" fill-opacity="0.05"/>
<rect x="179" y="361" width="1" height="20" fill="black" fill-opacity="0.05"/>
<rect x="100" y="361" width="1" height="20" fill="black" fill-opacity="0.05"/>
<path d="M2.15639 344.647C0.856661 345.113 0.180723 346.544 0.646637 347.844C1.11255 349.143 2.54389 349.819 3.84361 349.353L2.15639 344.647ZM137.038 282.259L136.832 279.768L137.038 282.259ZM287.336 237.076L288.991 238.95L287.336 237.076ZM377.653 123.53L375.381 122.488L377.653 123.53ZM502 43L476.359 29.7393L477.695 58.5758L502 43ZM3.84361 349.353C11.0275 346.778 19.4076 341.637 28.6619 335.499C38.0216 329.29 48.3165 322.031 59.6696 314.871C82.335 300.577 108.564 287.12 137.244 284.751L136.832 279.768C106.917 282.239 79.8472 296.235 57.0025 310.642C45.6005 317.832 35.0875 325.236 25.898 331.332C16.6031 337.498 8.69265 342.304 2.15639 344.647L3.84361 349.353ZM137.244 284.751C202.815 279.333 242.451 280.049 288.991 238.95L285.682 235.202C240.615 274.999 202.836 274.314 136.832 279.768L137.244 284.751ZM288.991 238.95C340.814 193.187 363.655 160.062 379.926 124.571L375.381 122.488C359.451 157.235 337.078 189.815 285.682 235.202L288.991 238.95ZM379.926 124.571C390.1 102.379 400.881 84.3315 416.134 71.1037C431.331 57.9254 451.17 49.3594 479.773 46.5295L479.28 41.5538C449.856 44.4649 428.981 53.3449 412.859 67.3263C396.793 81.2582 385.652 100.084 375.381 122.488L379.926 124.571Z" fill="url(#graph28)" fill-opacity="0.7"/>
<path d="M1.605 345.925C0.459229 346.696 0.15496 348.249 0.925398 349.395C1.69584 350.541 3.24923 350.845 4.395 350.075L1.605 345.925ZM124.319 213.984L123.356 211.677L123.356 211.677L124.319 213.984ZM216 0L195.656 20.4802L223.564 27.8589L216 0ZM4.395 350.075C11.8017 345.094 18.7153 335.791 25.898 324.667C29.5192 319.059 33.2734 312.88 37.2302 306.423C41.1946 299.954 45.3745 293.185 49.879 286.341C67.9233 258.925 90.9828 230.609 125.282 216.291L123.356 211.677C87.6319 226.589 63.8852 255.966 45.7024 283.592C41.1502 290.509 36.9345 297.336 32.9671 303.81C28.9921 310.297 25.2781 316.409 21.6975 321.955C14.4766 333.138 8.05157 341.591 1.605 345.925L4.395 350.075ZM125.282 216.291C149.895 206.017 166.094 178.699 178.91 143.907C191.769 108.997 201.527 65.6421 212.673 22.3634L207.831 21.1163C196.62 64.6464 186.961 107.583 174.218 142.178C161.431 176.891 145.842 202.291 123.356 211.677L125.282 216.291Z" fill="url(#graph29)"/>
<rect x="231" width="59" height="35" rx="5" fill="#D88538"/>
<path d="M242.526 22V20.516H244.752V14.174L243.03 15.21L242.33 13.894L245.27 12.13H246.544V20.516H248.63V22H242.526ZM253.595 22.14C252.428 22.14 251.537 21.7013 250.921 20.824C250.305 19.9373 249.997 18.6773 249.997 17.044C249.997 15.392 250.305 14.1367 250.921 13.278C251.537 12.4193 252.428 11.99 253.595 11.99C254.771 11.99 255.662 12.4193 256.269 13.278C256.885 14.1367 257.193 15.3873 257.193 17.03C257.193 18.6727 256.885 19.9373 256.269 20.824C255.653 21.7013 254.761 22.14 253.595 22.14ZM253.595 20.67C254.229 20.67 254.696 20.3807 254.995 19.802C255.303 19.214 255.457 18.29 255.457 17.03C255.457 15.7793 255.303 14.874 254.995 14.314C254.696 13.7447 254.229 13.46 253.595 13.46C252.969 13.46 252.503 13.7447 252.195 14.314C251.887 14.874 251.733 15.7793 251.733 17.03C251.733 18.29 251.887 19.214 252.195 19.802C252.503 20.3807 252.969 20.67 253.595 20.67ZM261.989 22.14C260.822 22.14 259.931 21.7013 259.315 20.824C258.699 19.9373 258.391 18.6773 258.391 17.044C258.391 15.392 258.699 14.1367 259.315 13.278C259.931 12.4193 260.822 11.99 261.989 11.99C263.165 11.99 264.056 12.4193 264.663 13.278C265.279 14.1367 265.587 15.3873 265.587 17.03C265.587 18.6727 265.279 19.9373 264.663 20.824C264.047 21.7013 263.156 22.14 261.989 22.14ZM261.989 20.67C262.624 20.67 263.09 20.3807 263.389 19.802C263.697 19.214 263.851 18.29 263.851 17.03C263.851 15.7793 263.697 14.874 263.389 14.314C263.09 13.7447 262.624 13.46 261.989 13.46C261.364 13.46 260.897 13.7447 260.589 14.314C260.281 14.874 260.127 15.7793 260.127 17.03C260.127 18.29 260.281 19.214 260.589 19.802C260.897 20.3807 261.364 20.67 261.989 20.67ZM270.496 22.392L269.348 21.72L275.116 11.738L276.25 12.41L270.496 22.392ZM269.292 18.024C268.508 18.024 267.896 17.7533 267.458 17.212C267.019 16.6707 266.8 15.9333 266.8 15C266.8 14.0667 267.019 13.334 267.458 12.802C267.896 12.2607 268.508 11.99 269.292 11.99C270.076 11.99 270.687 12.2607 271.126 12.802C271.564 13.334 271.784 14.0667 271.784 15C271.784 15.9333 271.564 16.6707 271.126 17.212C270.687 17.7533 270.076 18.024 269.292 18.024ZM269.292 16.848C269.628 16.848 269.889 16.6987 270.076 16.4C270.262 16.092 270.356 15.6253 270.356 15C270.356 14.3747 270.262 13.9127 270.076 13.614C269.889 13.3153 269.628 13.166 269.292 13.166C268.956 13.166 268.694 13.3153 268.508 13.614C268.321 13.9033 268.228 14.3653 268.228 15C268.228 15.6347 268.321 16.1013 268.508 16.4C268.694 16.6987 268.956 16.848 269.292 16.848ZM276.32 22.14C275.536 22.14 274.924 21.8693 274.486 21.328C274.047 20.7867 273.828 20.0493 273.828 19.116C273.828 18.1827 274.047 17.45 274.486 16.918C274.924 16.3767 275.536 16.106 276.32 16.106C277.104 16.106 277.715 16.3767 278.154 16.918C278.592 17.45 278.812 18.1827 278.812 19.116C278.812 20.0493 278.592 20.7867 278.154 21.328C277.715 21.8693 277.104 22.14 276.32 22.14ZM276.32 20.964C276.656 20.964 276.917 20.8147 277.104 20.516C277.29 20.208 277.384 19.7413 277.384 19.116C277.384 18.4907 277.29 18.0287 277.104 17.73C276.917 17.4313 276.656 17.282 276.32 17.282C275.984 17.282 275.722 17.4313 275.536 17.73C275.349 18.0193 275.256 18.4813 275.256 19.116C275.256 19.7507 275.349 20.2173 275.536 20.516C275.722 20.8147 275.984 20.964 276.32 20.964Z" fill="white"/>
<defs>
<linearGradient id="graph21" x1="503" y1="347" x2="3" y2="347" gradientUnits="userSpaceOnUse">
<stop/>
<stop offset="1" stop-opacity="0"/>
</linearGradient>
<linearGradient id="graph22" x1="502.5" y1="43" x2="502.5" y2="348" gradientUnits="userSpaceOnUse">
<stop stop-opacity="0.2"/>
<stop offset="1"/>
</linearGradient>
<linearGradient id="graph23" x1="422.5" y1="0" x2="422.5" y2="348" gradientUnits="userSpaceOnUse">
<stop stop-opacity="0.2"/>
<stop offset="1"/>
</linearGradient>
<linearGradient id="graph24" x1="340.5" y1="0" x2="340.5" y2="348" gradientUnits="userSpaceOnUse">
<stop stop-opacity="0.2"/>
<stop offset="1"/>
</linearGradient>
<linearGradient id="graph25" x1="179.5" y1="0" x2="179.5" y2="348" gradientUnits="userSpaceOnUse">
<stop stop-opacity="0.2"/>
<stop offset="1"/>
</linearGradient>
<linearGradient id="graph26" x1="100.5" y1="0" x2="100.5" y2="348" gradientUnits="userSpaceOnUse">
<stop stop-opacity="0.2"/>
<stop offset="1"/>
</linearGradient>
<linearGradient id="graph27" x1="259.5" y1="0" x2="259.5" y2="348" gradientUnits="userSpaceOnUse">
<stop stop-opacity="0.2"/>
<stop offset="1"/>
</linearGradient>
<linearGradient id="graph28" x1="499.097" y1="32.9335" x2="-36.3364" y2="129.987" gradientUnits="userSpaceOnUse">
<stop/>
<stop offset="1" stop-opacity="0"/>
</linearGradient>
<linearGradient id="graph29" x1="214.209" y1="-61.2168" x2="52.7403" y2="-79.9828" gradientUnits="userSpaceOnUse">
<stop stop-color="#EB872A"/>
<stop offset="1" stop-color="#FEE60D" stop-opacity="0"/>
</linearGradient>
</defs>
</svg>
