<svg width="1603" height="593" viewBox="0 0 1603 593" fill="none" xmlns="http://www.w3.org/2000/svg">
    <path d="M1568.23 18V16.74H1571.13V7.092L1568.84 8.532L1568.21 7.434L1571.54 5.31H1572.61V16.74H1575.32V18H1568.23ZM1578.68 20.052L1578 19.53C1578.26 19.254 1578.45 18.99 1578.56 18.738C1578.68 18.498 1578.75 18.252 1578.79 18H1577.93V16.164H1579.76V17.46C1579.76 17.952 1579.68 18.408 1579.53 18.828C1579.37 19.248 1579.09 19.656 1578.68 20.052ZM1586.29 18.162C1584.84 18.162 1583.73 17.604 1582.98 16.488C1582.22 15.372 1581.84 13.758 1581.84 11.646C1581.84 9.522 1582.22 7.908 1582.98 6.804C1583.73 5.7 1584.84 5.148 1586.29 5.148C1587.75 5.148 1588.86 5.7 1589.6 6.804C1590.36 7.896 1590.73 9.504 1590.73 11.628C1590.73 13.752 1590.35 15.372 1589.58 16.488C1588.83 17.604 1587.73 18.162 1586.29 18.162ZM1586.29 16.884C1587.3 16.884 1588.04 16.458 1588.52 15.606C1589.01 14.754 1589.26 13.428 1589.26 11.628C1589.26 9.828 1589.02 8.514 1588.54 7.686C1588.06 6.846 1587.31 6.426 1586.29 6.426C1585.28 6.426 1584.53 6.846 1584.04 7.686C1583.56 8.526 1583.32 9.84 1583.32 11.628C1583.32 13.428 1583.56 14.754 1584.04 15.606C1584.53 16.458 1585.28 16.884 1586.29 16.884ZM1597.08 18.162C1595.63 18.162 1594.53 17.604 1593.77 16.488C1593.01 15.372 1592.64 13.758 1592.64 11.646C1592.64 9.522 1593.01 7.908 1593.77 6.804C1594.53 5.7 1595.63 5.148 1597.08 5.148C1598.55 5.148 1599.65 5.7 1600.39 6.804C1601.15 7.896 1601.53 9.504 1601.53 11.628C1601.53 13.752 1601.14 15.372 1600.38 16.488C1599.62 17.604 1598.52 18.162 1597.08 18.162ZM1597.08 16.884C1598.09 16.884 1598.83 16.458 1599.31 15.606C1599.81 14.754 1600.05 13.428 1600.05 11.628C1600.05 9.828 1599.81 8.514 1599.33 7.686C1598.85 6.846 1598.1 6.426 1597.08 6.426C1596.07 6.426 1595.32 6.846 1594.83 7.686C1594.35 8.526 1594.11 9.84 1594.11 11.628C1594.11 13.428 1594.35 14.754 1594.83 15.606C1595.32 16.458 1596.07 16.884 1597.08 16.884Z" fill="#6C707B"/>
    <path d="M1571.4 150.162C1569.95 150.162 1568.84 149.604 1568.09 148.488C1567.33 147.372 1566.95 145.758 1566.95 143.646C1566.95 141.522 1567.33 139.908 1568.09 138.804C1568.84 137.7 1569.95 137.148 1571.4 137.148C1572.86 137.148 1573.97 137.7 1574.71 138.804C1575.47 139.896 1575.85 141.504 1575.85 143.628C1575.85 145.752 1575.46 147.372 1574.69 148.488C1573.94 149.604 1572.84 150.162 1571.4 150.162ZM1571.4 148.884C1572.41 148.884 1573.15 148.458 1573.63 147.606C1574.12 146.754 1574.37 145.428 1574.37 143.628C1574.37 141.828 1574.13 140.514 1573.65 139.686C1573.17 138.846 1572.42 138.426 1571.4 138.426C1570.39 138.426 1569.64 138.846 1569.15 139.686C1568.67 140.526 1568.43 141.84 1568.43 143.628C1568.43 145.428 1568.67 146.754 1569.15 147.606C1569.64 148.458 1570.39 148.884 1571.4 148.884ZM1578.68 152.052L1578 151.53C1578.26 151.254 1578.45 150.99 1578.56 150.738C1578.68 150.498 1578.75 150.252 1578.79 150H1577.93V148.164H1579.76V149.46C1579.76 149.952 1579.68 150.408 1579.53 150.828C1579.37 151.248 1579.09 151.656 1578.68 152.052ZM1582.9 150L1588.81 138.588H1582.09V137.31H1590.48V138.426L1584.54 150H1582.9ZM1597.35 150.162C1596.54 150.162 1595.76 150.03 1595.01 149.766C1594.27 149.502 1593.64 149.13 1593.12 148.65L1593.68 147.48C1594.8 148.392 1596.01 148.848 1597.33 148.848C1598.21 148.848 1598.9 148.602 1599.4 148.11C1599.91 147.618 1600.16 146.97 1600.16 146.166C1600.16 145.338 1599.92 144.66 1599.44 144.132C1598.96 143.604 1598.3 143.34 1597.46 143.34C1596.25 143.34 1595.29 143.844 1594.6 144.852H1593.52V137.31H1600.88V138.57H1594.98V143.106C1595.67 142.41 1596.59 142.062 1597.73 142.062C1598.52 142.062 1599.21 142.23 1599.8 142.566C1600.39 142.902 1600.84 143.376 1601.15 143.988C1601.47 144.588 1601.64 145.29 1601.64 146.094C1601.64 146.886 1601.46 147.588 1601.11 148.2C1600.77 148.812 1600.27 149.292 1599.62 149.64C1598.98 149.988 1598.23 150.162 1597.35 150.162Z" fill="#6C707B"/>
    <path d="M1571.4 282.162C1569.95 282.162 1568.84 281.604 1568.09 280.488C1567.33 279.372 1566.95 277.758 1566.95 275.646C1566.95 273.522 1567.33 271.908 1568.09 270.804C1568.84 269.7 1569.95 269.148 1571.4 269.148C1572.86 269.148 1573.97 269.7 1574.71 270.804C1575.47 271.896 1575.85 273.504 1575.85 275.628C1575.85 277.752 1575.46 279.372 1574.69 280.488C1573.94 281.604 1572.84 282.162 1571.4 282.162ZM1571.4 280.884C1572.41 280.884 1573.15 280.458 1573.63 279.606C1574.12 278.754 1574.37 277.428 1574.37 275.628C1574.37 273.828 1574.13 272.514 1573.65 271.686C1573.17 270.846 1572.42 270.426 1571.4 270.426C1570.39 270.426 1569.64 270.846 1569.15 271.686C1568.67 272.526 1568.43 273.84 1568.43 275.628C1568.43 277.428 1568.67 278.754 1569.15 279.606C1569.64 280.458 1570.39 280.884 1571.4 280.884ZM1578.68 284.052L1578 283.53C1578.26 283.254 1578.45 282.99 1578.56 282.738C1578.68 282.498 1578.75 282.252 1578.79 282H1577.93V280.164H1579.76V281.46C1579.76 281.952 1579.68 282.408 1579.53 282.828C1579.37 283.248 1579.09 283.656 1578.68 284.052ZM1586.56 282.162C1585.74 282.162 1584.96 282.03 1584.22 281.766C1583.47 281.502 1582.84 281.13 1582.33 280.65L1582.89 279.48C1584 280.392 1585.22 280.848 1586.54 280.848C1587.42 280.848 1588.11 280.602 1588.61 280.11C1589.11 279.618 1589.37 278.97 1589.37 278.166C1589.37 277.338 1589.13 276.66 1588.65 276.132C1588.17 275.604 1587.51 275.34 1586.67 275.34C1585.45 275.34 1584.5 275.844 1583.8 276.852H1582.72V269.31H1590.09V270.57H1584.18V275.106C1584.88 274.41 1585.8 274.062 1586.94 274.062C1587.73 274.062 1588.42 274.23 1589.01 274.566C1589.59 274.902 1590.04 275.376 1590.36 275.988C1590.68 276.588 1590.84 277.29 1590.84 278.094C1590.84 278.886 1590.67 279.588 1590.32 280.2C1589.97 280.812 1589.47 281.292 1588.83 281.64C1588.19 281.988 1587.43 282.162 1586.56 282.162ZM1597.08 282.162C1595.63 282.162 1594.53 281.604 1593.77 280.488C1593.01 279.372 1592.64 277.758 1592.64 275.646C1592.64 273.522 1593.01 271.908 1593.77 270.804C1594.53 269.7 1595.63 269.148 1597.08 269.148C1598.55 269.148 1599.65 269.7 1600.39 270.804C1601.15 271.896 1601.53 273.504 1601.53 275.628C1601.53 277.752 1601.14 279.372 1600.38 280.488C1599.62 281.604 1598.52 282.162 1597.08 282.162ZM1597.08 280.884C1598.09 280.884 1598.83 280.458 1599.31 279.606C1599.81 278.754 1600.05 277.428 1600.05 275.628C1600.05 273.828 1599.81 272.514 1599.33 271.686C1598.85 270.846 1598.1 270.426 1597.08 270.426C1596.07 270.426 1595.32 270.846 1594.83 271.686C1594.35 272.526 1594.11 273.84 1594.11 275.628C1594.11 277.428 1594.35 278.754 1594.83 279.606C1595.32 280.458 1596.07 280.884 1597.08 280.884Z" fill="#6C707B"/>
    <path d="M1571.4 414.162C1569.95 414.162 1568.84 413.604 1568.09 412.488C1567.33 411.372 1566.95 409.758 1566.95 407.646C1566.95 405.522 1567.33 403.908 1568.09 402.804C1568.84 401.7 1569.95 401.148 1571.4 401.148C1572.86 401.148 1573.97 401.7 1574.71 402.804C1575.47 403.896 1575.85 405.504 1575.85 407.628C1575.85 409.752 1575.46 411.372 1574.69 412.488C1573.94 413.604 1572.84 414.162 1571.4 414.162ZM1571.4 412.884C1572.41 412.884 1573.15 412.458 1573.63 411.606C1574.12 410.754 1574.37 409.428 1574.37 407.628C1574.37 405.828 1574.13 404.514 1573.65 403.686C1573.17 402.846 1572.42 402.426 1571.4 402.426C1570.39 402.426 1569.64 402.846 1569.15 403.686C1568.67 404.526 1568.43 405.84 1568.43 407.628C1568.43 409.428 1568.67 410.754 1569.15 411.606C1569.64 412.458 1570.39 412.884 1571.4 412.884ZM1578.68 416.052L1578 415.53C1578.26 415.254 1578.45 414.99 1578.56 414.738C1578.68 414.498 1578.75 414.252 1578.79 414H1577.93V412.164H1579.76V413.46C1579.76 413.952 1579.68 414.408 1579.53 414.828C1579.37 415.248 1579.09 415.656 1578.68 416.052ZM1582.51 414V412.884L1586.85 408.204C1587.46 407.532 1587.9 406.92 1588.16 406.368C1588.44 405.816 1588.57 405.252 1588.57 404.676C1588.57 403.2 1587.72 402.462 1586 402.462C1584.72 402.462 1583.58 402.942 1582.6 403.902L1582.04 402.75C1582.51 402.27 1583.1 401.886 1583.82 401.598C1584.55 401.298 1585.32 401.148 1586.13 401.148C1587.4 401.148 1588.37 401.448 1589.04 402.048C1589.73 402.636 1590.07 403.476 1590.07 404.568C1590.07 405.324 1589.88 406.068 1589.51 406.8C1589.14 407.52 1588.57 408.288 1587.8 409.104L1584.4 412.74H1590.59V414H1582.51ZM1597.35 414.162C1596.54 414.162 1595.76 414.03 1595.01 413.766C1594.27 413.502 1593.64 413.13 1593.12 412.65L1593.68 411.48C1594.8 412.392 1596.01 412.848 1597.33 412.848C1598.21 412.848 1598.9 412.602 1599.4 412.11C1599.91 411.618 1600.16 410.97 1600.16 410.166C1600.16 409.338 1599.92 408.66 1599.44 408.132C1598.96 407.604 1598.3 407.34 1597.46 407.34C1596.25 407.34 1595.29 407.844 1594.6 408.852H1593.52V401.31H1600.88V402.57H1594.98V407.106C1595.67 406.41 1596.59 406.062 1597.73 406.062C1598.52 406.062 1599.21 406.23 1599.8 406.566C1600.39 406.902 1600.84 407.376 1601.15 407.988C1601.47 408.588 1601.64 409.29 1601.64 410.094C1601.64 410.886 1601.46 411.588 1601.11 412.2C1600.77 412.812 1600.27 413.292 1599.62 413.64C1598.98 413.988 1598.23 414.162 1597.35 414.162Z" fill="#6C707B"/>
    <path d="M1571.4 546.162C1569.95 546.162 1568.84 545.604 1568.09 544.488C1567.33 543.372 1566.95 541.758 1566.95 539.646C1566.95 537.522 1567.33 535.908 1568.09 534.804C1568.84 533.7 1569.95 533.148 1571.4 533.148C1572.86 533.148 1573.97 533.7 1574.71 534.804C1575.47 535.896 1575.85 537.504 1575.85 539.628C1575.85 541.752 1575.46 543.372 1574.69 544.488C1573.94 545.604 1572.84 546.162 1571.4 546.162ZM1571.4 544.884C1572.41 544.884 1573.15 544.458 1573.63 543.606C1574.12 542.754 1574.37 541.428 1574.37 539.628C1574.37 537.828 1574.13 536.514 1573.65 535.686C1573.17 534.846 1572.42 534.426 1571.4 534.426C1570.39 534.426 1569.64 534.846 1569.15 535.686C1568.67 536.526 1568.43 537.84 1568.43 539.628C1568.43 541.428 1568.67 542.754 1569.15 543.606C1569.64 544.458 1570.39 544.884 1571.4 544.884ZM1578.68 548.052L1578 547.53C1578.26 547.254 1578.45 546.99 1578.56 546.738C1578.68 546.498 1578.75 546.252 1578.79 546H1577.93V544.164H1579.76V545.46C1579.76 545.952 1579.68 546.408 1579.53 546.828C1579.37 547.248 1579.09 547.656 1578.68 548.052ZM1586.29 546.162C1584.84 546.162 1583.73 545.604 1582.98 544.488C1582.22 543.372 1581.84 541.758 1581.84 539.646C1581.84 537.522 1582.22 535.908 1582.98 534.804C1583.73 533.7 1584.84 533.148 1586.29 533.148C1587.75 533.148 1588.86 533.7 1589.6 534.804C1590.36 535.896 1590.73 537.504 1590.73 539.628C1590.73 541.752 1590.35 543.372 1589.58 544.488C1588.83 545.604 1587.73 546.162 1586.29 546.162ZM1586.29 544.884C1587.3 544.884 1588.04 544.458 1588.52 543.606C1589.01 542.754 1589.26 541.428 1589.26 539.628C1589.26 537.828 1589.02 536.514 1588.54 535.686C1588.06 534.846 1587.31 534.426 1586.29 534.426C1585.28 534.426 1584.53 534.846 1584.04 535.686C1583.56 536.526 1583.32 537.84 1583.32 539.628C1583.32 541.428 1583.56 542.754 1584.04 543.606C1584.53 544.458 1585.28 544.884 1586.29 544.884ZM1597.08 546.162C1595.63 546.162 1594.53 545.604 1593.77 544.488C1593.01 543.372 1592.64 541.758 1592.64 539.646C1592.64 537.522 1593.01 535.908 1593.77 534.804C1594.53 533.7 1595.63 533.148 1597.08 533.148C1598.55 533.148 1599.65 533.7 1600.39 534.804C1601.15 535.896 1601.53 537.504 1601.53 539.628C1601.53 541.752 1601.14 543.372 1600.38 544.488C1599.62 545.604 1598.52 546.162 1597.08 546.162ZM1597.08 544.884C1598.09 544.884 1598.83 544.458 1599.31 543.606C1599.81 542.754 1600.05 541.428 1600.05 539.628C1600.05 537.828 1599.81 536.514 1599.33 535.686C1598.85 534.846 1598.1 534.426 1597.08 534.426C1596.07 534.426 1595.32 534.846 1594.83 535.686C1594.35 536.526 1594.11 537.84 1594.11 539.628C1594.11 541.428 1594.35 542.754 1594.83 543.606C1595.32 544.458 1596.07 544.884 1597.08 544.884Z" fill="#6C707B"/>
    <rect x="3" y="539" width="1548" height="1" fill="url(#graph1)" fill-opacity="0.1"/>
    <rect x="1550" y="2" width="1" height="538" fill="url(#graph2)" fill-opacity="0.1"/>
    <rect x="1293" y="2" width="1" height="538" fill="url(#graph3)" fill-opacity="0.1"/>
    <rect x="1035" y="2" width="1" height="538" fill="url(#graph4)" fill-opacity="0.1"/>
    <rect x="519" y="2" width="1" height="538" fill="url(#paint4_linear_1:2)" fill-opacity="0.1"/>
    <rect x="261" y="2" width="1" height="538" fill="url(#graph6)" fill-opacity="0.1"/>
    <rect x="777" y="2" width="1" height="538" fill="url(#graph7)" fill-opacity="0.1"/>
    <path d="M101.856 582V580.884L106.194 576.204C106.806 575.532 107.244 574.92 107.508 574.368C107.784 573.816 107.922 573.252 107.922 572.676C107.922 571.2 107.064 570.462 105.348 570.462C104.064 570.462 102.93 570.942 101.946 571.902L101.388 570.75C101.856 570.27 102.45 569.886 103.17 569.598C103.902 569.298 104.67 569.148 105.474 569.148C106.746 569.148 107.718 569.448 108.39 570.048C109.074 570.636 109.416 571.476 109.416 572.568C109.416 573.324 109.23 574.068 108.858 574.8C108.486 575.52 107.916 576.288 107.148 577.104L103.746 580.74H109.938V582H101.856ZM116.699 582.162C115.883 582.162 115.103 582.03 114.359 581.766C113.615 581.502 112.985 581.13 112.469 580.65L113.027 579.48C114.143 580.392 115.361 580.848 116.681 580.848C117.557 580.848 118.247 580.602 118.751 580.11C119.255 579.618 119.507 578.97 119.507 578.166C119.507 577.338 119.267 576.66 118.787 576.132C118.307 575.604 117.647 575.34 116.807 575.34C115.595 575.34 114.641 575.844 113.945 576.852H112.865V569.31H120.227V570.57H114.323V575.106C115.019 574.41 115.937 574.062 117.077 574.062C117.869 574.062 118.559 574.23 119.147 574.566C119.735 574.902 120.185 575.376 120.497 575.988C120.821 576.588 120.983 577.29 120.983 578.094C120.983 578.886 120.809 579.588 120.461 580.2C120.113 580.812 119.615 581.292 118.967 581.64C118.331 581.988 117.575 582.162 116.699 582.162ZM128.011 582V569.31H129.397V579.552L137.047 569.31H138.181V582H136.813V571.722L129.145 582H128.011ZM148.518 582.162C147.318 582.162 146.352 581.796 145.62 581.064C144.888 580.32 144.474 579.324 144.378 578.076H142.632V582H141.21V573.252H142.632V576.888H144.396C144.54 575.712 144.972 574.788 145.692 574.116C146.424 573.432 147.366 573.09 148.518 573.09C149.37 573.09 150.108 573.276 150.732 573.648C151.356 574.02 151.836 574.548 152.172 575.232C152.52 575.904 152.694 576.702 152.694 577.626C152.694 578.55 152.52 579.354 152.172 580.038C151.836 580.71 151.356 581.232 150.732 581.604C150.108 581.976 149.37 582.162 148.518 582.162ZM148.518 580.992C149.346 580.992 150 580.704 150.48 580.128C150.972 579.54 151.218 578.706 151.218 577.626C151.218 576.534 150.972 575.7 150.48 575.124C150 574.548 149.346 574.26 148.518 574.26C147.702 574.26 147.048 574.548 146.556 575.124C146.064 575.7 145.818 576.534 145.818 577.626C145.818 578.706 146.064 579.54 146.556 580.128C147.048 580.704 147.702 580.992 148.518 580.992ZM154.382 582.198L153.842 581.046C154.382 580.818 154.808 580.5 155.12 580.092C155.432 579.672 155.648 579.096 155.768 578.364C155.9 577.632 155.966 576.672 155.966 575.484V573.252H162.32V582H160.862V574.422H157.334V575.538C157.334 576.906 157.232 578.034 157.028 578.922C156.836 579.81 156.524 580.512 156.092 581.028C155.66 581.544 155.09 581.934 154.382 582.198Z" fill="#6C707B"/>
    <path d="M362.626 582V580.884L366.964 576.204C367.576 575.532 368.014 574.92 368.278 574.368C368.554 573.816 368.692 573.252 368.692 572.676C368.692 571.2 367.834 570.462 366.118 570.462C364.834 570.462 363.7 570.942 362.716 571.902L362.158 570.75C362.626 570.27 363.22 569.886 363.94 569.598C364.672 569.298 365.44 569.148 366.244 569.148C367.516 569.148 368.488 569.448 369.16 570.048C369.844 570.636 370.186 571.476 370.186 572.568C370.186 573.324 370 574.068 369.628 574.8C369.256 575.52 368.686 576.288 367.918 577.104L364.516 580.74H370.708V582H362.626ZM377.469 582.162C376.653 582.162 375.873 582.03 375.129 581.766C374.385 581.502 373.755 581.13 373.239 580.65L373.797 579.48C374.913 580.392 376.131 580.848 377.451 580.848C378.327 580.848 379.017 580.602 379.521 580.11C380.025 579.618 380.277 578.97 380.277 578.166C380.277 577.338 380.037 576.66 379.557 576.132C379.077 575.604 378.417 575.34 377.577 575.34C376.365 575.34 375.411 575.844 374.715 576.852H373.635V569.31H380.997V570.57H375.093V575.106C375.789 574.41 376.707 574.062 377.847 574.062C378.639 574.062 379.329 574.23 379.917 574.566C380.505 574.902 380.955 575.376 381.267 575.988C381.591 576.588 381.753 577.29 381.753 578.094C381.753 578.886 381.579 579.588 381.231 580.2C380.883 580.812 380.385 581.292 379.737 581.64C379.101 581.988 378.345 582.162 377.469 582.162ZM387.557 582L393.155 569.31H394.415L400.013 582H398.483L397.079 578.76H390.473L389.087 582H387.557ZM393.767 571.038L391.013 577.518H396.557L393.803 571.038H393.767ZM401.768 582V573.252H406.034C407.066 573.252 407.828 573.45 408.32 573.846C408.812 574.23 409.058 574.8 409.058 575.556C409.058 576.012 408.926 576.408 408.662 576.744C408.41 577.08 408.062 577.326 407.618 577.482C408.158 577.614 408.578 577.866 408.878 578.238C409.19 578.61 409.346 579.06 409.346 579.588C409.346 580.332 409.07 580.92 408.518 581.352C407.966 581.784 407.186 582 406.178 582H401.768ZM403.154 577.05H405.962C406.514 577.05 406.94 576.93 407.24 576.69C407.54 576.438 407.69 576.084 407.69 575.628C407.69 575.184 407.54 574.842 407.24 574.602C406.94 574.362 406.514 574.242 405.962 574.242H403.154V577.05ZM403.154 581.01H406.124C406.724 581.01 407.18 580.884 407.492 580.632C407.804 580.38 407.96 580.008 407.96 579.516C407.96 579.036 407.804 578.67 407.492 578.418C407.18 578.166 406.724 578.04 406.124 578.04H403.154V581.01ZM411.612 582V573.252H417.75V574.422H413.07V582H411.612Z" fill="#6C707B"/>
    <path d="M620.492 582V580.74H623.39V571.092L621.104 572.532L620.474 571.434L623.804 569.31H624.866V580.74H627.584V582H620.492ZM634.453 582.162C633.001 582.162 631.897 581.604 631.141 580.488C630.385 579.372 630.007 577.758 630.007 575.646C630.007 573.522 630.385 571.908 631.141 570.804C631.897 569.7 633.001 569.148 634.453 569.148C635.917 569.148 637.021 569.7 637.765 570.804C638.521 571.896 638.899 573.504 638.899 575.628C638.899 577.752 638.515 579.372 637.747 580.488C636.991 581.604 635.893 582.162 634.453 582.162ZM634.453 580.884C635.461 580.884 636.205 580.458 636.685 579.606C637.177 578.754 637.423 577.428 637.423 575.628C637.423 573.828 637.183 572.514 636.703 571.686C636.223 570.846 635.473 570.426 634.453 570.426C633.445 570.426 632.695 570.846 632.203 571.686C631.723 572.526 631.483 573.84 631.483 575.628C631.483 577.428 631.723 578.754 632.203 579.606C632.695 580.458 633.445 580.884 634.453 580.884ZM651.363 582.162C650.187 582.162 649.161 581.898 648.285 581.37C647.421 580.83 646.749 580.074 646.269 579.102C645.801 578.13 645.567 576.978 645.567 575.646C645.567 574.314 645.801 573.162 646.269 572.19C646.737 571.218 647.403 570.468 648.267 569.94C649.143 569.412 650.175 569.148 651.363 569.148C652.563 569.148 653.595 569.412 654.459 569.94C655.335 570.468 656.007 571.218 656.475 572.19C656.955 573.15 657.195 574.296 657.195 575.628C657.195 576.96 656.955 578.118 656.475 579.102C655.995 580.074 655.317 580.83 654.441 581.37C653.577 581.898 652.551 582.162 651.363 582.162ZM651.363 580.848C652.719 580.848 653.769 580.392 654.513 579.48C655.257 578.568 655.629 577.29 655.629 575.646C655.629 574.002 655.257 572.73 654.513 571.83C653.769 570.918 652.719 570.462 651.363 570.462C650.031 570.462 648.993 570.918 648.249 571.83C647.505 572.73 647.133 574.002 647.133 575.646C647.133 577.278 647.505 578.556 648.249 579.48C648.993 580.392 650.031 580.848 651.363 580.848ZM659.708 582V573.252H661.166V576.906H662.804L665.666 573.252H667.268L664.226 577.194C664.538 577.314 664.82 577.512 665.072 577.788C665.324 578.064 665.606 578.46 665.918 578.976L667.718 582H666.152L664.568 579.354C664.268 578.838 663.98 578.496 663.704 578.328C663.428 578.16 663.038 578.076 662.534 578.076H661.166V582H659.708ZM671 582V574.422H667.832V573.252H675.644V574.422H672.458V582H671Z" fill="#6C707B"/>
    <path d="M877.895 582V580.884L882.233 576.204C882.845 575.532 883.283 574.92 883.547 574.368C883.823 573.816 883.961 573.252 883.961 572.676C883.961 571.2 883.103 570.462 881.387 570.462C880.103 570.462 878.969 570.942 877.985 571.902L877.427 570.75C877.895 570.27 878.489 569.886 879.209 569.598C879.941 569.298 880.709 569.148 881.513 569.148C882.785 569.148 883.757 569.448 884.429 570.048C885.113 570.636 885.455 571.476 885.455 572.568C885.455 573.324 885.269 574.068 884.897 574.8C884.525 575.52 883.955 576.288 883.187 577.104L879.785 580.74H885.977V582H877.895ZM892.738 582.162C891.922 582.162 891.142 582.03 890.398 581.766C889.654 581.502 889.024 581.13 888.508 580.65L889.066 579.48C890.182 580.392 891.4 580.848 892.72 580.848C893.596 580.848 894.286 580.602 894.79 580.11C895.294 579.618 895.546 578.97 895.546 578.166C895.546 577.338 895.306 576.66 894.826 576.132C894.346 575.604 893.686 575.34 892.846 575.34C891.634 575.34 890.68 575.844 889.984 576.852H888.904V569.31H896.266V570.57H890.362V575.106C891.058 574.41 891.976 574.062 893.116 574.062C893.908 574.062 894.598 574.23 895.186 574.566C895.774 574.902 896.224 575.376 896.536 575.988C896.86 576.588 897.022 577.29 897.022 578.094C897.022 578.886 896.848 579.588 896.5 580.2C896.152 580.812 895.654 581.292 895.006 581.64C894.37 581.988 893.614 582.162 892.738 582.162ZM902.79 584.826V580.758H904.032C904.656 579.978 905.118 578.922 905.418 577.59C905.718 576.246 905.868 574.578 905.868 572.586V569.31H914.292V580.758H916.092V584.826H914.742V582H904.122V584.826H902.79ZM905.58 580.758H912.798V570.552H907.254V572.694C907.254 574.626 907.116 576.24 906.84 577.536C906.576 578.832 906.156 579.906 905.58 580.758ZM921.894 582.162C920.514 582.162 919.422 581.76 918.618 580.956C917.814 580.14 917.412 579.036 917.412 577.644C917.412 576.744 917.592 575.952 917.952 575.268C918.312 574.572 918.804 574.038 919.428 573.666C920.064 573.282 920.796 573.09 921.624 573.09C922.812 573.09 923.742 573.474 924.414 574.242C925.086 574.998 925.422 576.042 925.422 577.374V577.932H918.834C918.882 578.928 919.17 579.69 919.698 580.218C920.226 580.734 920.958 580.992 921.894 580.992C922.422 580.992 922.926 580.914 923.406 580.758C923.886 580.59 924.342 580.32 924.774 579.948L925.278 580.974C924.882 581.346 924.378 581.64 923.766 581.856C923.154 582.06 922.53 582.162 921.894 582.162ZM921.66 574.17C920.832 574.17 920.178 574.428 919.698 574.944C919.218 575.46 918.936 576.138 918.852 576.978H924.162C924.126 576.09 923.892 575.4 923.46 574.908C923.04 574.416 922.44 574.17 921.66 574.17ZM927.69 582V573.252H929.148V576.906H930.786L933.648 573.252H935.25L932.208 577.194C932.52 577.314 932.802 577.512 933.054 577.788C933.306 578.064 933.588 578.46 933.9 578.976L935.7 582H934.134L932.55 579.354C932.25 578.838 931.962 578.496 931.686 578.328C931.41 578.16 931.02 578.076 930.516 578.076H929.148V582H927.69Z" fill="#6C707B"/>
    <path d="M750.379 584V582.512L756.163 576.272C756.979 575.376 757.563 574.56 757.915 573.824C758.283 573.088 758.467 572.336 758.467 571.568C758.467 569.6 757.323 568.616 755.035 568.616C753.323 568.616 751.811 569.256 750.499 570.536L749.755 569C750.379 568.36 751.171 567.848 752.131 567.464C753.107 567.064 754.131 566.864 755.203 566.864C756.899 566.864 758.195 567.264 759.091 568.064C760.003 568.848 760.459 569.968 760.459 571.424C760.459 572.432 760.211 573.424 759.715 574.4C759.219 575.36 758.459 576.384 757.435 577.472L752.899 582.32H761.155V584H750.379ZM769.809 584.216C767.873 584.216 766.401 583.472 765.393 581.984C764.385 580.496 763.881 578.344 763.881 575.528C763.881 572.696 764.385 570.544 765.393 569.072C766.401 567.6 767.873 566.864 769.809 566.864C771.761 566.864 773.233 567.6 774.225 569.072C775.233 570.528 775.737 572.672 775.737 575.504C775.737 578.336 775.225 580.496 774.201 581.984C773.193 583.472 771.729 584.216 769.809 584.216ZM769.809 582.512C771.153 582.512 772.145 581.944 772.785 580.808C773.441 579.672 773.769 577.904 773.769 575.504C773.769 573.104 773.449 571.352 772.809 570.248C772.169 569.128 771.169 568.568 769.809 568.568C768.465 568.568 767.465 569.128 766.809 570.248C766.169 571.368 765.849 573.12 765.849 575.504C765.849 577.904 766.169 579.672 766.809 580.808C767.465 581.944 768.465 582.512 769.809 582.512ZM779.16 584V582.512L784.944 576.272C785.76 575.376 786.344 574.56 786.696 573.824C787.064 573.088 787.248 572.336 787.248 571.568C787.248 569.6 786.104 568.616 783.816 568.616C782.104 568.616 780.592 569.256 779.28 570.536L778.536 569C779.16 568.36 779.952 567.848 780.912 567.464C781.888 567.064 782.912 566.864 783.984 566.864C785.68 566.864 786.976 567.264 787.872 568.064C788.784 568.848 789.24 569.968 789.24 571.424C789.24 572.432 788.992 573.424 788.496 574.4C788 575.36 787.24 576.384 786.216 577.472L781.68 582.32H789.936V584H779.16ZM793.551 584V582.512L799.335 576.272C800.151 575.376 800.735 574.56 801.087 573.824C801.455 573.088 801.639 572.336 801.639 571.568C801.639 569.6 800.495 568.616 798.207 568.616C796.495 568.616 794.983 569.256 793.671 570.536L792.927 569C793.551 568.36 794.343 567.848 795.303 567.464C796.279 567.064 797.303 566.864 798.375 566.864C800.071 566.864 801.367 567.264 802.263 568.064C803.175 568.848 803.631 569.968 803.631 571.424C803.631 572.432 803.383 573.424 802.887 574.4C802.391 575.36 801.631 576.384 800.607 577.472L796.071 582.32H804.327V584H793.551Z" fill="black"/>
    <path d="M5.37875 584V582.512L11.1628 576.272C11.9788 575.376 12.5628 574.56 12.9148 573.824C13.2828 573.088 13.4668 572.336 13.4668 571.568C13.4668 569.6 12.3228 568.616 10.0348 568.616C8.32275 568.616 6.81075 569.256 5.49875 570.536L4.75475 569C5.37875 568.36 6.17075 567.848 7.13075 567.464C8.10675 567.064 9.13075 566.864 10.2028 566.864C11.8988 566.864 13.1948 567.264 14.0908 568.064C15.0028 568.848 15.4588 569.968 15.4588 571.424C15.4588 572.432 15.2108 573.424 14.7148 574.4C14.2188 575.36 13.4588 576.384 12.4348 577.472L7.89875 582.32H16.1548V584H5.37875ZM24.8094 584.216C22.8734 584.216 21.4014 583.472 20.3934 581.984C19.3854 580.496 18.8814 578.344 18.8814 575.528C18.8814 572.696 19.3854 570.544 20.3934 569.072C21.4014 567.6 22.8734 566.864 24.8094 566.864C26.7614 566.864 28.2334 567.6 29.2254 569.072C30.2334 570.528 30.7374 572.672 30.7374 575.504C30.7374 578.336 30.2254 580.496 29.2014 581.984C28.1934 583.472 26.7294 584.216 24.8094 584.216ZM24.8094 582.512C26.1534 582.512 27.1454 581.944 27.7854 580.808C28.4414 579.672 28.7694 577.904 28.7694 575.504C28.7694 573.104 28.4494 571.352 27.8094 570.248C27.1694 569.128 26.1694 568.568 24.8094 568.568C23.4654 568.568 22.4654 569.128 21.8094 570.248C21.1694 571.368 20.8494 573.12 20.8494 575.504C20.8494 577.904 21.1694 579.672 21.8094 580.808C22.4654 581.944 23.4654 582.512 24.8094 582.512ZM34.16 584V582.512L39.944 576.272C40.76 575.376 41.344 574.56 41.696 573.824C42.064 573.088 42.248 572.336 42.248 571.568C42.248 569.6 41.104 568.616 38.816 568.616C37.104 568.616 35.592 569.256 34.28 570.536L33.536 569C34.16 568.36 34.952 567.848 35.912 567.464C36.888 567.064 37.912 566.864 38.984 566.864C40.68 566.864 41.976 567.264 42.872 568.064C43.784 568.848 44.24 569.968 44.24 571.424C44.24 572.432 43.992 573.424 43.496 574.4C43 575.36 42.24 576.384 41.216 577.472L36.68 582.32H44.936V584H34.16ZM49.3666 584V582.32H53.2306V569.456L50.1826 571.376L49.3426 569.912L53.7826 567.08H55.1986V582.32H58.8226V584H49.3666Z" fill="black"/>
    <path d="M1136.06 582V580.884L1140.4 576.204C1141.01 575.532 1141.45 574.92 1141.71 574.368C1141.99 573.816 1142.13 573.252 1142.13 572.676C1142.13 571.2 1141.27 570.462 1139.55 570.462C1138.27 570.462 1137.14 570.942 1136.15 571.902L1135.59 570.75C1136.06 570.27 1136.66 569.886 1137.38 569.598C1138.11 569.298 1138.88 569.148 1139.68 569.148C1140.95 569.148 1141.92 569.448 1142.6 570.048C1143.28 570.636 1143.62 571.476 1143.62 572.568C1143.62 573.324 1143.44 574.068 1143.06 574.8C1142.69 575.52 1142.12 576.288 1141.35 577.104L1137.95 580.74H1144.14V582H1136.06ZM1150.9 582.162C1150.09 582.162 1149.31 582.03 1148.56 581.766C1147.82 581.502 1147.19 581.13 1146.67 580.65L1147.23 579.48C1148.35 580.392 1149.57 580.848 1150.89 580.848C1151.76 580.848 1152.45 580.602 1152.96 580.11C1153.46 579.618 1153.71 578.97 1153.71 578.166C1153.71 577.338 1153.47 576.66 1152.99 576.132C1152.51 575.604 1151.85 575.34 1151.01 575.34C1149.8 575.34 1148.85 575.844 1148.15 576.852H1147.07V569.31H1154.43V570.57H1148.53V575.106C1149.22 574.41 1150.14 574.062 1151.28 574.062C1152.07 574.062 1152.76 574.23 1153.35 574.566C1153.94 574.902 1154.39 575.376 1154.7 575.988C1155.03 576.588 1155.19 577.29 1155.19 578.094C1155.19 578.886 1155.01 579.588 1154.67 580.2C1154.32 580.812 1153.82 581.292 1153.17 581.64C1152.54 581.988 1151.78 582.162 1150.9 582.162ZM1167.08 585.24V580.578C1166.86 581.082 1166.55 581.472 1166.16 581.748C1165.76 582.024 1165.29 582.162 1164.74 582.162C1164.1 582.162 1163.54 581.976 1163.06 581.604C1162.59 581.232 1162.23 580.71 1161.96 580.038C1161.7 579.354 1161.57 578.55 1161.57 577.626C1161.57 576.234 1161.86 575.13 1162.43 574.314C1163.01 573.498 1163.78 573.09 1164.74 573.09C1165.29 573.09 1165.76 573.228 1166.16 573.504C1166.55 573.78 1166.86 574.17 1167.08 574.674V569.31H1168.53V574.656C1168.75 574.152 1169.06 573.768 1169.45 573.504C1169.85 573.228 1170.32 573.09 1170.87 573.09C1171.82 573.09 1172.58 573.498 1173.16 574.314C1173.75 575.13 1174.04 576.234 1174.04 577.626C1174.04 579.006 1173.75 580.11 1173.18 580.938C1172.6 581.754 1171.83 582.162 1170.87 582.162C1170.32 582.162 1169.85 582.024 1169.45 581.748C1169.06 581.472 1168.75 581.088 1168.53 580.596V585.24H1167.08ZM1165.06 581.01C1165.7 581.01 1166.19 580.722 1166.55 580.146C1166.91 579.57 1167.09 578.73 1167.09 577.626C1167.09 576.522 1166.91 575.682 1166.54 575.106C1166.18 574.53 1165.68 574.242 1165.06 574.242C1164.44 574.242 1163.94 574.53 1163.57 575.106C1163.21 575.682 1163.03 576.522 1163.03 577.626C1163.03 578.73 1163.21 579.57 1163.57 580.146C1163.94 580.722 1164.44 581.01 1165.06 581.01ZM1170.53 581.01C1171.16 581.01 1171.65 580.722 1172.03 580.146C1172.4 579.57 1172.58 578.73 1172.58 577.626C1172.58 576.522 1172.4 575.682 1172.03 575.106C1171.65 574.53 1171.16 574.242 1170.53 574.242C1169.91 574.242 1169.42 574.53 1169.06 575.106C1168.7 575.682 1168.52 576.522 1168.52 577.626C1168.52 578.73 1168.69 579.57 1169.04 580.146C1169.4 580.722 1169.9 581.01 1170.53 581.01ZM1180.36 582.162C1178.98 582.162 1177.89 581.76 1177.08 580.956C1176.28 580.14 1175.88 579.036 1175.88 577.644C1175.88 576.744 1176.06 575.952 1176.42 575.268C1176.78 574.572 1177.27 574.038 1177.89 573.666C1178.53 573.282 1179.26 573.09 1180.09 573.09C1181.28 573.09 1182.21 573.474 1182.88 574.242C1183.55 574.998 1183.89 576.042 1183.89 577.374V577.932H1177.3C1177.35 578.928 1177.63 579.69 1178.16 580.218C1178.69 580.734 1179.42 580.992 1180.36 580.992C1180.89 580.992 1181.39 580.914 1181.87 580.758C1182.35 580.59 1182.81 580.32 1183.24 579.948L1183.74 580.974C1183.35 581.346 1182.84 581.64 1182.23 581.856C1181.62 582.06 1180.99 582.162 1180.36 582.162ZM1180.12 574.17C1179.3 574.17 1178.64 574.428 1178.16 574.944C1177.68 575.46 1177.4 576.138 1177.32 576.978H1182.63C1182.59 576.09 1182.36 575.4 1181.92 574.908C1181.5 574.416 1180.9 574.17 1180.12 574.17ZM1186.15 582V573.252H1190.42C1191.45 573.252 1192.21 573.45 1192.71 573.846C1193.2 574.23 1193.44 574.8 1193.44 575.556C1193.44 576.012 1193.31 576.408 1193.05 576.744C1192.8 577.08 1192.45 577.326 1192 577.482C1192.54 577.614 1192.96 577.866 1193.26 578.238C1193.58 578.61 1193.73 579.06 1193.73 579.588C1193.73 580.332 1193.46 580.92 1192.9 581.352C1192.35 581.784 1191.57 582 1190.56 582H1186.15ZM1187.54 577.05H1190.35C1190.9 577.05 1191.33 576.93 1191.63 576.69C1191.93 576.438 1192.08 576.084 1192.08 575.628C1192.08 575.184 1191.93 574.842 1191.63 574.602C1191.33 574.362 1190.9 574.242 1190.35 574.242H1187.54V577.05ZM1187.54 581.01H1190.51C1191.11 581.01 1191.57 580.884 1191.88 580.632C1192.19 580.38 1192.35 580.008 1192.35 579.516C1192.35 579.036 1192.19 578.67 1191.88 578.418C1191.57 578.166 1191.11 578.04 1190.51 578.04H1187.54V581.01Z" fill="#6C707B"/>
    <path d="M1395.07 582V580.884L1399.41 576.204C1400.02 575.532 1400.46 574.92 1400.73 574.368C1401 573.816 1401.14 573.252 1401.14 572.676C1401.14 571.2 1400.28 570.462 1398.57 570.462C1397.28 570.462 1396.15 570.942 1395.16 571.902L1394.61 570.75C1395.07 570.27 1395.67 569.886 1396.39 569.598C1397.12 569.298 1397.89 569.148 1398.69 569.148C1399.96 569.148 1400.94 569.448 1401.61 570.048C1402.29 570.636 1402.63 571.476 1402.63 572.568C1402.63 573.324 1402.45 574.068 1402.08 574.8C1401.7 575.52 1401.13 576.288 1400.37 577.104L1396.96 580.74H1403.16V582H1395.07ZM1409.92 582.162C1409.1 582.162 1408.32 582.03 1407.58 581.766C1406.83 581.502 1406.2 581.13 1405.69 580.65L1406.24 579.48C1407.36 580.392 1408.58 580.848 1409.9 580.848C1410.77 580.848 1411.46 580.602 1411.97 580.11C1412.47 579.618 1412.72 578.97 1412.72 578.166C1412.72 577.338 1412.48 576.66 1412 576.132C1411.52 575.604 1410.86 575.34 1410.02 575.34C1408.81 575.34 1407.86 575.844 1407.16 576.852H1406.08V569.31H1413.44V570.57H1407.54V575.106C1408.24 574.41 1409.15 574.062 1410.29 574.062C1411.09 574.062 1411.78 574.23 1412.36 574.566C1412.95 574.902 1413.4 575.376 1413.71 575.988C1414.04 576.588 1414.2 577.29 1414.2 578.094C1414.2 578.886 1414.03 579.588 1413.68 580.2C1413.33 580.812 1412.83 581.292 1412.18 581.64C1411.55 581.988 1410.79 582.162 1409.92 582.162ZM1423.87 582.162C1423.27 582.162 1422.73 582.048 1422.25 581.82C1421.79 581.58 1421.41 581.256 1421.14 580.848C1420.86 580.44 1420.72 579.984 1420.72 579.48C1420.72 578.844 1420.89 578.34 1421.21 577.968C1421.55 577.596 1422.09 577.332 1422.85 577.176C1423.62 577.008 1424.66 576.924 1425.98 576.924H1426.56V576.366C1426.56 575.622 1426.4 575.088 1426.09 574.764C1425.79 574.428 1425.3 574.26 1424.63 574.26C1424.1 574.26 1423.59 574.338 1423.1 574.494C1422.61 574.638 1422.1 574.878 1421.59 575.214L1421.08 574.152C1421.54 573.828 1422.09 573.57 1422.74 573.378C1423.4 573.186 1424.03 573.09 1424.63 573.09C1425.76 573.09 1426.59 573.366 1427.13 573.918C1427.68 574.47 1427.96 575.328 1427.96 576.492V582H1426.59V580.488C1426.36 581.004 1426.01 581.412 1425.53 581.712C1425.06 582.012 1424.51 582.162 1423.87 582.162ZM1424.11 581.064C1424.83 581.064 1425.42 580.818 1425.87 580.326C1426.33 579.822 1426.56 579.186 1426.56 578.418V577.878H1426C1425.03 577.878 1424.26 577.926 1423.69 578.022C1423.14 578.106 1422.75 578.262 1422.52 578.49C1422.31 578.706 1422.2 579.006 1422.2 579.39C1422.2 579.882 1422.37 580.284 1422.7 580.596C1423.05 580.908 1423.52 581.064 1424.11 581.064ZM1430.81 582V573.252H1438.44V582H1436.98V574.422H1432.26V582H1430.81ZM1441.33 585.24V573.252H1442.76V574.818C1443.02 574.278 1443.41 573.858 1443.93 573.558C1444.45 573.246 1445.07 573.09 1445.76 573.09C1446.54 573.09 1447.22 573.276 1447.8 573.648C1448.38 574.008 1448.83 574.53 1449.15 575.214C1449.47 575.886 1449.63 576.69 1449.63 577.626C1449.63 578.55 1449.47 579.354 1449.15 580.038C1448.83 580.71 1448.38 581.232 1447.8 581.604C1447.22 581.976 1446.54 582.162 1445.76 582.162C1445.09 582.162 1444.49 582.012 1443.96 581.712C1443.43 581.412 1443.04 580.998 1442.79 580.47V585.24H1441.33ZM1445.46 580.992C1446.27 580.992 1446.93 580.704 1447.42 580.128C1447.91 579.54 1448.16 578.706 1448.16 577.626C1448.16 576.534 1447.91 575.7 1447.42 575.124C1446.93 574.548 1446.27 574.26 1445.46 574.26C1444.64 574.26 1443.99 574.548 1443.49 575.124C1443 575.7 1442.76 576.534 1442.76 577.626C1442.76 578.706 1443 579.54 1443.49 580.128C1443.99 580.704 1444.64 580.992 1445.46 580.992Z" fill="#6C707B"/>
    <rect x="261" y="564" width="1" height="24" fill="black" fill-opacity="0.05"/>
    <rect x="519" y="564" width="1" height="24" fill="black" fill-opacity="0.05"/>
    <rect x="777" y="564" width="1" height="24" fill="black" fill-opacity="0.05"/>
    <rect x="1035" y="564" width="1" height="24" fill="black" fill-opacity="0.05"/>
    <rect x="1293" y="564" width="1" height="24" fill="black" fill-opacity="0.05"/>
    <rect x="676" y="18" width="86" height="43" rx="5" fill="#D88538"/>
    <path d="M688.616 48V45.456H692.432V34.584L689.48 36.36L688.28 34.104L693.32 31.08H695.504V45.456H699.08V48H688.616ZM707.591 48.24C705.591 48.24 704.063 47.488 703.007 45.984C701.951 44.464 701.423 42.304 701.423 39.504C701.423 36.672 701.951 34.52 703.007 33.048C704.063 31.576 705.591 30.84 707.591 30.84C709.607 30.84 711.135 31.576 712.175 33.048C713.231 34.52 713.759 36.664 713.759 39.48C713.759 42.296 713.231 44.464 712.175 45.984C711.119 47.488 709.591 48.24 707.591 48.24ZM707.591 45.72C708.679 45.72 709.479 45.224 709.991 44.232C710.519 43.224 710.783 41.64 710.783 39.48C710.783 37.336 710.519 35.784 709.991 34.824C709.479 33.848 708.679 33.36 707.591 33.36C706.519 33.36 705.719 33.848 705.191 34.824C704.663 35.784 704.399 37.336 704.399 39.48C704.399 41.64 704.663 43.224 705.191 44.232C705.719 45.224 706.519 45.72 707.591 45.72ZM721.981 48.24C719.981 48.24 718.453 47.488 717.397 45.984C716.341 44.464 715.813 42.304 715.813 39.504C715.813 36.672 716.341 34.52 717.397 33.048C718.453 31.576 719.981 30.84 721.981 30.84C723.997 30.84 725.525 31.576 726.565 33.048C727.621 34.52 728.149 36.664 728.149 39.48C728.149 42.296 727.621 44.464 726.565 45.984C725.509 47.488 723.981 48.24 721.981 48.24ZM721.981 45.72C723.069 45.72 723.869 45.224 724.381 44.232C724.909 43.224 725.173 41.64 725.173 39.48C725.173 37.336 724.909 35.784 724.381 34.824C723.869 33.848 723.069 33.36 721.981 33.36C720.909 33.36 720.109 33.848 719.581 34.824C719.053 35.784 718.789 37.336 718.789 39.48C718.789 41.64 719.053 43.224 719.581 44.232C720.109 45.224 720.909 45.72 721.981 45.72ZM736.564 48.672L734.596 47.52L744.484 30.408L746.428 31.56L736.564 48.672ZM734.5 41.184C733.156 41.184 732.108 40.72 731.356 39.792C730.604 38.864 730.228 37.6 730.228 36C730.228 34.4 730.604 33.144 731.356 32.232C732.108 31.304 733.156 30.84 734.5 30.84C735.844 30.84 736.892 31.304 737.644 32.232C738.396 33.144 738.772 34.4 738.772 36C738.772 37.6 738.396 38.864 737.644 39.792C736.892 40.72 735.844 41.184 734.5 41.184ZM734.5 39.168C735.076 39.168 735.524 38.912 735.844 38.4C736.164 37.872 736.324 37.072 736.324 36C736.324 34.928 736.164 34.136 735.844 33.624C735.524 33.112 735.076 32.856 734.5 32.856C733.924 32.856 733.476 33.112 733.156 33.624C732.836 34.12 732.676 34.912 732.676 36C732.676 37.088 732.836 37.888 733.156 38.4C733.476 38.912 733.924 39.168 734.5 39.168ZM746.548 48.24C745.204 48.24 744.156 47.776 743.404 46.848C742.652 45.92 742.276 44.656 742.276 43.056C742.276 41.456 742.652 40.2 743.404 39.288C744.156 38.36 745.204 37.896 746.548 37.896C747.892 37.896 748.94 38.36 749.692 39.288C750.444 40.2 750.82 41.456 750.82 43.056C750.82 44.656 750.444 45.92 749.692 46.848C748.94 47.776 747.892 48.24 746.548 48.24ZM746.548 46.224C747.124 46.224 747.572 45.968 747.892 45.456C748.212 44.928 748.372 44.128 748.372 43.056C748.372 41.984 748.212 41.192 747.892 40.68C747.572 40.168 747.124 39.912 746.548 39.912C745.972 39.912 745.524 40.168 745.204 40.68C744.884 41.176 744.724 41.968 744.724 43.056C744.724 44.144 744.884 44.944 745.204 45.456C745.524 45.968 745.972 46.224 746.548 46.224Z" fill="white"/>
    <path d="M2.51314 537.548C1.15886 537.817 0.278979 539.133 0.547865 540.487C0.816751 541.841 2.13259 542.721 3.48686 542.452L2.51314 537.548ZM418.544 428.833L418.43 426.336L418.544 428.833ZM884.5 351.249L885.598 353.495L884.5 351.249ZM1164.5 156.278L1162.57 154.684L1164.5 156.278ZM1550 18L1524.89 3.75688L1525.11 32.6236L1550 18ZM3.48686 542.452C24.9674 538.187 50.3846 529.583 79.1348 519.02C107.955 508.431 140.123 495.874 175.377 483.56C245.828 458.952 328.183 435.471 418.658 431.331L418.43 426.336C327.25 430.508 244.368 454.166 173.728 478.84C138.437 491.167 106.096 503.787 77.4105 514.327C48.6545 524.892 23.5679 533.368 2.51314 537.548L3.48686 542.452ZM418.658 431.331C622.427 422.006 743.03 423.226 885.598 353.495L883.402 349.004C741.97 418.178 622.573 416.994 418.43 426.336L418.658 431.331ZM885.598 353.495C1045.77 275.156 1116.2 218.553 1166.43 157.872L1162.57 154.684C1112.97 214.608 1043.23 270.83 883.402 349.004L885.598 353.495ZM1166.43 157.872C1200.59 116.597 1237.3 83.2067 1292.13 59.6692C1347.01 36.1055 1420.23 22.3362 1527.52 20.6711L1527.44 15.6717C1419.81 17.3421 1345.87 31.1549 1290.15 55.0748C1234.38 79.0211 1197.06 113.017 1162.57 154.684L1166.43 157.872Z" fill="url(#graph8)" fill-opacity="0.7"/>
    <path d="M2.21977 537.625C0.908026 538.056 0.193962 539.468 0.624869 540.78C1.05578 542.092 2.46848 542.806 3.78023 542.375L2.21977 537.625ZM375.5 338.976L375 336.527L375.5 338.976ZM657 18L632.338 33.0032L657.662 46.8599L657 18ZM3.78023 542.375C25.4588 535.254 46.2087 521.724 68.3663 504.96C79.4548 496.57 90.9521 487.326 103.115 477.63C115.289 467.924 128.149 457.751 142.017 447.458C197.44 406.319 268.964 363.254 376 341.426L375 336.527C267.036 358.544 194.846 402.018 139.036 443.443C125.096 453.791 112.178 464.01 99.998 473.72C87.8066 483.439 76.3738 492.632 65.3495 500.973C43.2818 517.669 23.0765 530.773 2.21977 537.625L3.78023 542.375ZM376 341.426C451.465 326.036 501.562 283.883 541.783 228.852C581.887 173.98 612.388 105.953 648.394 38.9362L643.99 36.5697C607.736 104.047 577.579 171.401 537.746 225.902C498.029 280.244 448.91 321.454 375 336.527L376 341.426Z" fill="url(#graph9)"/>
    <defs>
        <linearGradient id="graph1" x1="1551" y1="539" x2="3" y2="539" gradientUnits="userSpaceOnUse">
            <stop/>
            <stop offset="1" stop-opacity="0"/>
        </linearGradient>
        <linearGradient id="graph2" x1="1550.5" y1="2" x2="1550.5" y2="540" gradientUnits="userSpaceOnUse">
            <stop stop-opacity="0.2"/>
            <stop offset="1"/>
        </linearGradient>
        <linearGradient id="graph3" x1="1293.5" y1="2" x2="1293.5" y2="540" gradientUnits="userSpaceOnUse">
            <stop stop-opacity="0.2"/>
            <stop offset="1"/>
        </linearGradient>
        <linearGradient id="graph4" x1="1035.5" y1="2" x2="1035.5" y2="540" gradientUnits="userSpaceOnUse">
            <stop stop-opacity="0.2"/>
            <stop offset="1"/>
        </linearGradient>
        <linearGradient id="graph5" x1="519.5" y1="2" x2="519.5" y2="540" gradientUnits="userSpaceOnUse">
            <stop stop-opacity="0.2"/>
            <stop offset="1"/>
        </linearGradient>
        <linearGradient id="graph6" x1="261.5" y1="2" x2="261.5" y2="540" gradientUnits="userSpaceOnUse">
            <stop stop-opacity="0.2"/>
            <stop offset="1"/>
        </linearGradient>
        <linearGradient id="graph7" x1="777.5" y1="2" x2="777.5" y2="540" gradientUnits="userSpaceOnUse">
            <stop stop-opacity="0.2"/>
            <stop offset="1"/>
        </linearGradient>
        <linearGradient id="graph8" x1="1541" y1="0.714732" x2="-7.6285" y2="507.525" gradientUnits="userSpaceOnUse">
            <stop/>
            <stop offset="1" stop-opacity="0"/>
        </linearGradient>
        <linearGradient id="graph9" x1="651.5" y1="-73.8252" x2="175.942" y2="-186.959" gradientUnits="userSpaceOnUse">
            <stop stop-color="#EB872A"/>
            <stop offset="1" stop-color="#FEE60D" stop-opacity="0"/>
        </linearGradient>
    </defs>
</svg>
