<svg width="653" height="396" viewBox="0 0 653 396" fill="none" xmlns="http://www.w3.org/2000/svg">
<path d="M625.736 19V18.02H627.99V10.516L626.212 11.636L625.722 10.782L628.312 9.13H629.138V18.02H631.252V19H625.736ZM633.865 20.596L633.333 20.19C633.538 19.9753 633.683 19.77 633.767 19.574C633.86 19.3873 633.921 19.196 633.949 19H633.277V17.572H634.705V18.58C634.705 18.9627 634.644 19.3173 634.523 19.644C634.401 19.9707 634.182 20.288 633.865 20.596ZM639.78 19.126C638.651 19.126 637.792 18.692 637.204 17.824C636.616 16.956 636.322 15.7007 636.322 14.058C636.322 12.406 636.616 11.1507 637.204 10.292C637.792 9.43333 638.651 9.004 639.78 9.004C640.919 9.004 641.777 9.43333 642.356 10.292C642.944 11.1413 643.238 12.392 643.238 14.044C643.238 15.696 642.939 16.956 642.342 17.824C641.754 18.692 640.9 19.126 639.78 19.126ZM639.78 18.132C640.564 18.132 641.143 17.8007 641.516 17.138C641.899 16.4753 642.09 15.444 642.09 14.044C642.09 12.644 641.903 11.622 641.53 10.978C641.157 10.3247 640.573 9.998 639.78 9.998C638.996 9.998 638.413 10.3247 638.03 10.978C637.657 11.6313 637.47 12.6533 637.47 14.044C637.47 15.444 637.657 16.4753 638.03 17.138C638.413 17.8007 638.996 18.132 639.78 18.132ZM648.175 19.126C647.045 19.126 646.187 18.692 645.599 17.824C645.011 16.956 644.717 15.7007 644.717 14.058C644.717 12.406 645.011 11.1507 645.599 10.292C646.187 9.43333 647.045 9.004 648.175 9.004C649.313 9.004 650.172 9.43333 650.751 10.292C651.339 11.1413 651.633 12.392 651.633 14.044C651.633 15.696 651.334 16.956 650.737 17.824C650.149 18.692 649.295 19.126 648.175 19.126ZM648.175 18.132C648.959 18.132 649.537 17.8007 649.911 17.138C650.293 16.4753 650.485 15.444 650.485 14.044C650.485 12.644 650.298 11.622 649.925 10.978C649.551 10.3247 648.968 9.998 648.175 9.998C647.391 9.998 646.807 10.3247 646.425 10.978C646.051 11.6313 645.865 12.6533 645.865 14.044C645.865 15.444 646.051 16.4753 646.425 17.138C646.807 17.8007 647.391 18.132 648.175 18.132Z" fill="#6C707B"/>
<path d="M628.2 106.126C627.071 106.126 626.212 105.692 625.624 104.824C625.036 103.956 624.742 102.701 624.742 101.058C624.742 99.406 625.036 98.1507 625.624 97.292C626.212 96.4333 627.071 96.004 628.2 96.004C629.339 96.004 630.197 96.4333 630.776 97.292C631.364 98.1413 631.658 99.392 631.658 101.044C631.658 102.696 631.359 103.956 630.762 104.824C630.174 105.692 629.32 106.126 628.2 106.126ZM628.2 105.132C628.984 105.132 629.563 104.801 629.936 104.138C630.319 103.475 630.51 102.444 630.51 101.044C630.51 99.644 630.323 98.622 629.95 97.978C629.577 97.3247 628.993 96.998 628.2 96.998C627.416 96.998 626.833 97.3247 626.45 97.978C626.077 98.6313 625.89 99.6533 625.89 101.044C625.89 102.444 626.077 103.475 626.45 104.138C626.833 104.801 627.416 105.132 628.2 105.132ZM633.865 107.596L633.333 107.19C633.538 106.975 633.683 106.77 633.767 106.574C633.86 106.387 633.921 106.196 633.949 106H633.277V104.572H634.705V105.58C634.705 105.963 634.644 106.317 634.523 106.644C634.401 106.971 634.182 107.288 633.865 107.596ZM637.148 106L641.74 97.124H636.518V96.13H643.042V96.998L638.422 106H637.148ZM648.385 106.126C647.75 106.126 647.143 106.023 646.565 105.818C645.986 105.613 645.496 105.323 645.095 104.95L645.529 104.04C646.397 104.749 647.344 105.104 648.371 105.104C649.052 105.104 649.589 104.913 649.981 104.53C650.373 104.147 650.569 103.643 650.569 103.018C650.569 102.374 650.382 101.847 650.009 101.436C649.635 101.025 649.122 100.82 648.469 100.82C647.526 100.82 646.784 101.212 646.243 101.996H645.403V96.13H651.129V97.11H646.537V100.638C647.078 100.097 647.792 99.826 648.679 99.826C649.295 99.826 649.831 99.9567 650.289 100.218C650.746 100.479 651.096 100.848 651.339 101.324C651.591 101.791 651.717 102.337 651.717 102.962C651.717 103.578 651.581 104.124 651.311 104.6C651.04 105.076 650.653 105.449 650.149 105.72C649.654 105.991 649.066 106.126 648.385 106.126Z" fill="#6C707B"/>
<path d="M628.2 193.126C627.071 193.126 626.212 192.692 625.624 191.824C625.036 190.956 624.742 189.701 624.742 188.058C624.742 186.406 625.036 185.151 625.624 184.292C626.212 183.433 627.071 183.004 628.2 183.004C629.339 183.004 630.197 183.433 630.776 184.292C631.364 185.141 631.658 186.392 631.658 188.044C631.658 189.696 631.359 190.956 630.762 191.824C630.174 192.692 629.32 193.126 628.2 193.126ZM628.2 192.132C628.984 192.132 629.563 191.801 629.936 191.138C630.319 190.475 630.51 189.444 630.51 188.044C630.51 186.644 630.323 185.622 629.95 184.978C629.577 184.325 628.993 183.998 628.2 183.998C627.416 183.998 626.833 184.325 626.45 184.978C626.077 185.631 625.89 186.653 625.89 188.044C625.89 189.444 626.077 190.475 626.45 191.138C626.833 191.801 627.416 192.132 628.2 192.132ZM633.865 194.596L633.333 194.19C633.538 193.975 633.683 193.77 633.767 193.574C633.86 193.387 633.921 193.196 633.949 193H633.277V191.572H634.705V192.58C634.705 192.963 634.644 193.317 634.523 193.644C634.401 193.971 634.182 194.288 633.865 194.596ZM639.99 193.126C639.355 193.126 638.749 193.023 638.17 192.818C637.591 192.613 637.101 192.323 636.7 191.95L637.134 191.04C638.002 191.749 638.949 192.104 639.976 192.104C640.657 192.104 641.194 191.913 641.586 191.53C641.978 191.147 642.174 190.643 642.174 190.018C642.174 189.374 641.987 188.847 641.614 188.436C641.241 188.025 640.727 187.82 640.074 187.82C639.131 187.82 638.389 188.212 637.848 188.996H637.008V183.13H642.734V184.11H638.142V187.638C638.683 187.097 639.397 186.826 640.284 186.826C640.9 186.826 641.437 186.957 641.894 187.218C642.351 187.479 642.701 187.848 642.944 188.324C643.196 188.791 643.322 189.337 643.322 189.962C643.322 190.578 643.187 191.124 642.916 191.6C642.645 192.076 642.258 192.449 641.754 192.72C641.259 192.991 640.671 193.126 639.99 193.126ZM648.175 193.126C647.045 193.126 646.187 192.692 645.599 191.824C645.011 190.956 644.717 189.701 644.717 188.058C644.717 186.406 645.011 185.151 645.599 184.292C646.187 183.433 647.045 183.004 648.175 183.004C649.313 183.004 650.172 183.433 650.751 184.292C651.339 185.141 651.633 186.392 651.633 188.044C651.633 189.696 651.334 190.956 650.737 191.824C650.149 192.692 649.295 193.126 648.175 193.126ZM648.175 192.132C648.959 192.132 649.537 191.801 649.911 191.138C650.293 190.475 650.485 189.444 650.485 188.044C650.485 186.644 650.298 185.622 649.925 184.978C649.551 184.325 648.968 183.998 648.175 183.998C647.391 183.998 646.807 184.325 646.425 184.978C646.051 185.631 645.865 186.653 645.865 188.044C645.865 189.444 646.051 190.475 646.425 191.138C646.807 191.801 647.391 192.132 648.175 192.132Z" fill="#6C707B"/>
<path d="M628.2 280.126C627.071 280.126 626.212 279.692 625.624 278.824C625.036 277.956 624.742 276.701 624.742 275.058C624.742 273.406 625.036 272.151 625.624 271.292C626.212 270.433 627.071 270.004 628.2 270.004C629.339 270.004 630.197 270.433 630.776 271.292C631.364 272.141 631.658 273.392 631.658 275.044C631.658 276.696 631.359 277.956 630.762 278.824C630.174 279.692 629.32 280.126 628.2 280.126ZM628.2 279.132C628.984 279.132 629.563 278.801 629.936 278.138C630.319 277.475 630.51 276.444 630.51 275.044C630.51 273.644 630.323 272.622 629.95 271.978C629.577 271.325 628.993 270.998 628.2 270.998C627.416 270.998 626.833 271.325 626.45 271.978C626.077 272.631 625.89 273.653 625.89 275.044C625.89 276.444 626.077 277.475 626.45 278.138C626.833 278.801 627.416 279.132 628.2 279.132ZM633.865 281.596L633.333 281.19C633.538 280.975 633.683 280.77 633.767 280.574C633.86 280.387 633.921 280.196 633.949 280H633.277V278.572H634.705V279.58C634.705 279.963 634.644 280.317 634.523 280.644C634.401 280.971 634.182 281.288 633.865 281.596ZM636.84 280V279.132L640.214 275.492C640.69 274.969 641.031 274.493 641.236 274.064C641.451 273.635 641.558 273.196 641.558 272.748C641.558 271.6 640.891 271.026 639.556 271.026C638.557 271.026 637.675 271.399 636.91 272.146L636.476 271.25C636.84 270.877 637.302 270.578 637.862 270.354C638.431 270.121 639.029 270.004 639.654 270.004C640.643 270.004 641.399 270.237 641.922 270.704C642.454 271.161 642.72 271.815 642.72 272.664C642.72 273.252 642.575 273.831 642.286 274.4C641.997 274.96 641.553 275.557 640.956 276.192L638.31 279.02H643.126V280H636.84ZM648.385 280.126C647.75 280.126 647.143 280.023 646.565 279.818C645.986 279.613 645.496 279.323 645.095 278.95L645.529 278.04C646.397 278.749 647.344 279.104 648.371 279.104C649.052 279.104 649.589 278.913 649.981 278.53C650.373 278.147 650.569 277.643 650.569 277.018C650.569 276.374 650.382 275.847 650.009 275.436C649.635 275.025 649.122 274.82 648.469 274.82C647.526 274.82 646.784 275.212 646.243 275.996H645.403V270.13H651.129V271.11H646.537V274.638C647.078 274.097 647.792 273.826 648.679 273.826C649.295 273.826 649.831 273.957 650.289 274.218C650.746 274.479 651.096 274.848 651.339 275.324C651.591 275.791 651.717 276.337 651.717 276.962C651.717 277.578 651.581 278.124 651.311 278.6C651.04 279.076 650.653 279.449 650.149 279.72C649.654 279.991 649.066 280.126 648.385 280.126Z" fill="#6C707B"/>
<path d="M628.2 367.126C627.071 367.126 626.212 366.692 625.624 365.824C625.036 364.956 624.742 363.701 624.742 362.058C624.742 360.406 625.036 359.151 625.624 358.292C626.212 357.433 627.071 357.004 628.2 357.004C629.339 357.004 630.197 357.433 630.776 358.292C631.364 359.141 631.658 360.392 631.658 362.044C631.658 363.696 631.359 364.956 630.762 365.824C630.174 366.692 629.32 367.126 628.2 367.126ZM628.2 366.132C628.984 366.132 629.563 365.801 629.936 365.138C630.319 364.475 630.51 363.444 630.51 362.044C630.51 360.644 630.323 359.622 629.95 358.978C629.577 358.325 628.993 357.998 628.2 357.998C627.416 357.998 626.833 358.325 626.45 358.978C626.077 359.631 625.89 360.653 625.89 362.044C625.89 363.444 626.077 364.475 626.45 365.138C626.833 365.801 627.416 366.132 628.2 366.132ZM633.865 368.596L633.333 368.19C633.538 367.975 633.683 367.77 633.767 367.574C633.86 367.387 633.921 367.196 633.949 367H633.277V365.572H634.705V366.58C634.705 366.963 634.644 367.317 634.523 367.644C634.401 367.971 634.182 368.288 633.865 368.596ZM639.78 367.126C638.651 367.126 637.792 366.692 637.204 365.824C636.616 364.956 636.322 363.701 636.322 362.058C636.322 360.406 636.616 359.151 637.204 358.292C637.792 357.433 638.651 357.004 639.78 357.004C640.919 357.004 641.777 357.433 642.356 358.292C642.944 359.141 643.238 360.392 643.238 362.044C643.238 363.696 642.939 364.956 642.342 365.824C641.754 366.692 640.9 367.126 639.78 367.126ZM639.78 366.132C640.564 366.132 641.143 365.801 641.516 365.138C641.899 364.475 642.09 363.444 642.09 362.044C642.09 360.644 641.903 359.622 641.53 358.978C641.157 358.325 640.573 357.998 639.78 357.998C638.996 357.998 638.413 358.325 638.03 358.978C637.657 359.631 637.47 360.653 637.47 362.044C637.47 363.444 637.657 364.475 638.03 365.138C638.413 365.801 638.996 366.132 639.78 366.132ZM648.175 367.126C647.045 367.126 646.187 366.692 645.599 365.824C645.011 364.956 644.717 363.701 644.717 362.058C644.717 360.406 645.011 359.151 645.599 358.292C646.187 357.433 647.045 357.004 648.175 357.004C649.313 357.004 650.172 357.433 650.751 358.292C651.339 359.141 651.633 360.392 651.633 362.044C651.633 363.696 651.334 364.956 650.737 365.824C650.149 366.692 649.295 367.126 648.175 367.126ZM648.175 366.132C648.959 366.132 649.537 365.801 649.911 365.138C650.293 364.475 650.485 363.444 650.485 362.044C650.485 360.644 650.298 359.622 649.925 358.978C649.551 358.325 648.968 357.998 648.175 357.998C647.391 357.998 646.807 358.325 646.425 358.978C646.051 359.631 645.865 360.653 645.865 362.044C645.865 363.444 646.051 364.475 646.425 365.138C646.807 365.801 647.391 366.132 648.175 366.132Z" fill="#6C707B"/>
<rect x="10" y="362" width="604" height="1" fill="url(#graph11)" fill-opacity="0.1"/>
<rect x="613" y="15" width="1" height="348" fill="url(#graph12)" fill-opacity="0.1"/>
<rect x="513" y="15" width="1" height="348" fill="url(#graph13)" fill-opacity="0.1"/>
<rect x="412" y="15" width="1" height="348" fill="url(#graph14)" fill-opacity="0.1"/>
<rect x="210" y="15" width="1" height="348" fill="url(#graph15)" fill-opacity="0.1"/>
<rect x="109" y="15" width="1" height="348" fill="url(#graph16)" fill-opacity="0.1"/>
<rect x="311" y="15" width="1" height="348" fill="url(#graph17)" fill-opacity="0.1"/>
<path d="M40.4042 390V389.256L43.2962 386.136C43.7042 385.688 43.9962 385.28 44.1722 384.912C44.3562 384.544 44.4482 384.168 44.4482 383.784C44.4482 382.8 43.8762 382.308 42.7322 382.308C41.8762 382.308 41.1202 382.628 40.4642 383.268L40.0922 382.5C40.4042 382.18 40.8002 381.924 41.2802 381.732C41.7682 381.532 42.2802 381.432 42.8162 381.432C43.6642 381.432 44.3122 381.632 44.7602 382.032C45.2162 382.424 45.4442 382.984 45.4442 383.712C45.4442 384.216 45.3202 384.712 45.0722 385.2C44.8242 385.68 44.4442 386.192 43.9322 386.736L41.6642 389.16H45.7922V390H40.4042ZM50.2995 390.108C49.7555 390.108 49.2355 390.02 48.7395 389.844C48.2435 389.668 47.8235 389.42 47.4795 389.1L47.8515 388.32C48.5955 388.928 49.4075 389.232 50.2875 389.232C50.8715 389.232 51.3315 389.068 51.6675 388.74C52.0035 388.412 52.1715 387.98 52.1715 387.444C52.1715 386.892 52.0115 386.44 51.6915 386.088C51.3715 385.736 50.9315 385.56 50.3715 385.56C49.5635 385.56 48.9275 385.896 48.4635 386.568H47.7435V381.54H52.6515V382.38H48.7155V385.404C49.1795 384.94 49.7915 384.708 50.5515 384.708C51.0795 384.708 51.5395 384.82 51.9315 385.044C52.3235 385.268 52.6235 385.584 52.8315 385.992C53.0475 386.392 53.1555 386.86 53.1555 387.396C53.1555 387.924 53.0395 388.392 52.8075 388.8C52.5755 389.208 52.2435 389.528 51.8115 389.76C51.3875 389.992 50.8835 390.108 50.2995 390.108ZM57.8409 390V381.54H58.7649V388.368L63.8649 381.54H64.6209V390H63.7089V383.148L58.5969 390H57.8409ZM71.5117 390.108C70.7117 390.108 70.0677 389.864 69.5797 389.376C69.0917 388.88 68.8157 388.216 68.7517 387.384H67.5877V390H66.6397V384.168H67.5877V386.592H68.7637C68.8597 385.808 69.1477 385.192 69.6277 384.744C70.1157 384.288 70.7437 384.06 71.5117 384.06C72.0797 384.06 72.5717 384.184 72.9877 384.432C73.4037 384.68 73.7237 385.032 73.9477 385.488C74.1797 385.936 74.2957 386.468 74.2957 387.084C74.2957 387.7 74.1797 388.236 73.9477 388.692C73.7237 389.14 73.4037 389.488 72.9877 389.736C72.5717 389.984 72.0797 390.108 71.5117 390.108ZM71.5117 389.328C72.0637 389.328 72.4997 389.136 72.8197 388.752C73.1477 388.36 73.3117 387.804 73.3117 387.084C73.3117 386.356 73.1477 385.8 72.8197 385.416C72.4997 385.032 72.0637 384.84 71.5117 384.84C70.9677 384.84 70.5317 385.032 70.2037 385.416C69.8757 385.8 69.7117 386.356 69.7117 387.084C69.7117 387.804 69.8757 388.36 70.2037 388.752C70.5317 389.136 70.9677 389.328 71.5117 389.328ZM75.4212 390.132L75.0612 389.364C75.4212 389.212 75.7052 389 75.9132 388.728C76.1212 388.448 76.2652 388.064 76.3452 387.576C76.4332 387.088 76.4772 386.448 76.4772 385.656V384.168H80.7132V390H79.7412V384.948H77.3892V385.692C77.3892 386.604 77.3212 387.356 77.1852 387.948C77.0572 388.54 76.8492 389.008 76.5612 389.352C76.2732 389.696 75.8932 389.956 75.4212 390.132Z" fill="#6C707B"/>
<path d="M143.084 390V389.256L145.976 386.136C146.384 385.688 146.676 385.28 146.852 384.912C147.036 384.544 147.128 384.168 147.128 383.784C147.128 382.8 146.556 382.308 145.412 382.308C144.556 382.308 143.8 382.628 143.144 383.268L142.772 382.5C143.084 382.18 143.48 381.924 143.96 381.732C144.448 381.532 144.96 381.432 145.496 381.432C146.344 381.432 146.992 381.632 147.44 382.032C147.896 382.424 148.124 382.984 148.124 383.712C148.124 384.216 148 384.712 147.752 385.2C147.504 385.68 147.124 386.192 146.612 386.736L144.344 389.16H148.472V390H143.084ZM152.979 390.108C152.435 390.108 151.915 390.02 151.419 389.844C150.923 389.668 150.503 389.42 150.159 389.1L150.531 388.32C151.275 388.928 152.087 389.232 152.967 389.232C153.551 389.232 154.011 389.068 154.347 388.74C154.683 388.412 154.851 387.98 154.851 387.444C154.851 386.892 154.691 386.44 154.371 386.088C154.051 385.736 153.611 385.56 153.051 385.56C152.243 385.56 151.607 385.896 151.143 386.568H150.423V381.54H155.331V382.38H151.395V385.404C151.859 384.94 152.471 384.708 153.231 384.708C153.759 384.708 154.219 384.82 154.611 385.044C155.003 385.268 155.303 385.584 155.511 385.992C155.727 386.392 155.835 386.86 155.835 387.396C155.835 387.924 155.719 388.392 155.487 388.8C155.255 389.208 154.923 389.528 154.491 389.76C154.067 389.992 153.563 390.108 152.979 390.108ZM159.705 390L163.437 381.54H164.277L168.009 390H166.989L166.053 387.84H161.649L160.725 390H159.705ZM163.845 382.692L162.009 387.012H165.705L163.869 382.692H163.845ZM169.179 390V384.168H172.023C172.711 384.168 173.219 384.3 173.547 384.564C173.875 384.82 174.039 385.2 174.039 385.704C174.039 386.008 173.951 386.272 173.775 386.496C173.607 386.72 173.375 386.884 173.079 386.988C173.439 387.076 173.719 387.244 173.919 387.492C174.127 387.74 174.231 388.04 174.231 388.392C174.231 388.888 174.047 389.28 173.679 389.568C173.311 389.856 172.791 390 172.119 390H169.179ZM170.103 386.7H171.975C172.343 386.7 172.627 386.62 172.827 386.46C173.027 386.292 173.127 386.056 173.127 385.752C173.127 385.456 173.027 385.228 172.827 385.068C172.627 384.908 172.343 384.828 171.975 384.828H170.103V386.7ZM170.103 389.34H172.083C172.483 389.34 172.787 389.256 172.995 389.088C173.203 388.92 173.307 388.672 173.307 388.344C173.307 388.024 173.203 387.78 172.995 387.612C172.787 387.444 172.483 387.36 172.083 387.36H170.103V389.34ZM175.741 390V384.168H179.833V384.948H176.713V390H175.741Z" fill="#6C707B"/>
<path d="M244.828 390V389.16H246.76V382.728L245.236 383.688L244.816 382.956L247.036 381.54H247.744V389.16H249.556V390H244.828ZM254.135 390.108C253.167 390.108 252.431 389.736 251.927 388.992C251.423 388.248 251.171 387.172 251.171 385.764C251.171 384.348 251.423 383.272 251.927 382.536C252.431 381.8 253.167 381.432 254.135 381.432C255.111 381.432 255.847 381.8 256.343 382.536C256.847 383.264 257.099 384.336 257.099 385.752C257.099 387.168 256.843 388.248 256.331 388.992C255.827 389.736 255.095 390.108 254.135 390.108ZM254.135 389.256C254.807 389.256 255.303 388.972 255.623 388.404C255.951 387.836 256.115 386.952 256.115 385.752C256.115 384.552 255.955 383.676 255.635 383.124C255.315 382.564 254.815 382.284 254.135 382.284C253.463 382.284 252.963 382.564 252.635 383.124C252.315 383.684 252.155 384.56 252.155 385.752C252.155 386.952 252.315 387.836 252.635 388.404C252.963 388.972 253.463 389.256 254.135 389.256ZM265.409 390.108C264.625 390.108 263.941 389.932 263.357 389.58C262.781 389.22 262.333 388.716 262.013 388.068C261.701 387.42 261.545 386.652 261.545 385.764C261.545 384.876 261.701 384.108 262.013 383.46C262.325 382.812 262.769 382.312 263.345 381.96C263.929 381.608 264.617 381.432 265.409 381.432C266.209 381.432 266.897 381.608 267.473 381.96C268.057 382.312 268.505 382.812 268.817 383.46C269.137 384.1 269.297 384.864 269.297 385.752C269.297 386.64 269.137 387.412 268.817 388.068C268.497 388.716 268.045 389.22 267.461 389.58C266.885 389.932 266.201 390.108 265.409 390.108ZM265.409 389.232C266.313 389.232 267.013 388.928 267.509 388.32C268.005 387.712 268.253 386.86 268.253 385.764C268.253 384.668 268.005 383.82 267.509 383.22C267.013 382.612 266.313 382.308 265.409 382.308C264.521 382.308 263.829 382.612 263.333 383.22C262.837 383.82 262.589 384.668 262.589 385.764C262.589 386.852 262.837 387.704 263.333 388.32C263.829 388.928 264.521 389.232 265.409 389.232ZM270.972 390V384.168H271.944V386.604H273.036L274.944 384.168H276.012L273.984 386.796C274.192 386.876 274.38 387.008 274.548 387.192C274.716 387.376 274.904 387.64 275.112 387.984L276.312 390H275.268L274.212 388.236C274.012 387.892 273.82 387.664 273.636 387.552C273.452 387.44 273.192 387.384 272.856 387.384H271.944V390H270.972ZM278.5 390V384.948H276.388V384.168H281.596V384.948H279.472V390H278.5Z" fill="#6C707B"/>
<path d="M344.264 390V389.256L347.156 386.136C347.564 385.688 347.856 385.28 348.032 384.912C348.216 384.544 348.308 384.168 348.308 383.784C348.308 382.8 347.736 382.308 346.592 382.308C345.736 382.308 344.98 382.628 344.324 383.268L343.952 382.5C344.264 382.18 344.66 381.924 345.14 381.732C345.628 381.532 346.14 381.432 346.676 381.432C347.524 381.432 348.172 381.632 348.62 382.032C349.076 382.424 349.304 382.984 349.304 383.712C349.304 384.216 349.18 384.712 348.932 385.2C348.684 385.68 348.304 386.192 347.792 386.736L345.524 389.16H349.652V390H344.264ZM354.159 390.108C353.615 390.108 353.095 390.02 352.599 389.844C352.103 389.668 351.683 389.42 351.339 389.1L351.711 388.32C352.455 388.928 353.267 389.232 354.147 389.232C354.731 389.232 355.191 389.068 355.527 388.74C355.863 388.412 356.031 387.98 356.031 387.444C356.031 386.892 355.871 386.44 355.551 386.088C355.231 385.736 354.791 385.56 354.231 385.56C353.423 385.56 352.787 385.896 352.323 386.568H351.603V381.54H356.511V382.38H352.575V385.404C353.039 384.94 353.651 384.708 354.411 384.708C354.939 384.708 355.399 384.82 355.791 385.044C356.183 385.268 356.483 385.584 356.691 385.992C356.907 386.392 357.015 386.86 357.015 387.396C357.015 387.924 356.899 388.392 356.667 388.8C356.435 389.208 356.103 389.528 355.671 389.76C355.247 389.992 354.743 390.108 354.159 390.108ZM360.86 391.884V389.172H361.688C362.104 388.652 362.412 387.948 362.612 387.06C362.812 386.164 362.912 385.052 362.912 383.724V381.54H368.528V389.172H369.728V391.884H368.828V390H361.748V391.884H360.86ZM362.72 389.172H367.532V382.368H363.836V383.796C363.836 385.084 363.744 386.16 363.56 387.024C363.384 387.888 363.104 388.604 362.72 389.172ZM373.596 390.108C372.676 390.108 371.948 389.84 371.412 389.304C370.876 388.76 370.608 388.024 370.608 387.096C370.608 386.496 370.728 385.968 370.968 385.512C371.208 385.048 371.536 384.692 371.952 384.444C372.376 384.188 372.864 384.06 373.416 384.06C374.208 384.06 374.828 384.316 375.276 384.828C375.724 385.332 375.948 386.028 375.948 386.916V387.288H371.556C371.588 387.952 371.78 388.46 372.132 388.812C372.484 389.156 372.972 389.328 373.596 389.328C373.948 389.328 374.284 389.276 374.604 389.172C374.924 389.06 375.228 388.88 375.516 388.632L375.852 389.316C375.588 389.564 375.252 389.76 374.844 389.904C374.436 390.04 374.02 390.108 373.596 390.108ZM373.44 384.78C372.888 384.78 372.452 384.952 372.132 385.296C371.812 385.64 371.624 386.092 371.568 386.652H375.108C375.084 386.06 374.928 385.6 374.64 385.272C374.36 384.944 373.96 384.78 373.44 384.78ZM377.46 390V384.168H378.432V386.604H379.524L381.432 384.168H382.5L380.472 386.796C380.68 386.876 380.868 387.008 381.036 387.192C381.204 387.376 381.392 387.64 381.6 387.984L382.8 390H381.756L380.7 388.236C380.5 387.892 380.308 387.664 380.124 387.552C379.94 387.44 379.68 387.384 379.344 387.384H378.432V390H377.46Z" fill="#6C707B"/>
<path d="M396.471 391V390.132L399.845 386.492C400.321 385.969 400.662 385.493 400.867 385.064C401.082 384.635 401.189 384.196 401.189 383.748C401.189 382.6 400.522 382.026 399.187 382.026C398.188 382.026 397.306 382.399 396.541 383.146L396.107 382.25C396.471 381.877 396.933 381.578 397.493 381.354C398.062 381.121 398.66 381.004 399.285 381.004C400.274 381.004 401.03 381.237 401.553 381.704C402.085 382.161 402.351 382.815 402.351 383.664C402.351 384.252 402.206 384.831 401.917 385.4C401.628 385.96 401.184 386.557 400.587 387.192L397.941 390.02H402.757V391H396.471ZM407.805 391.126C406.676 391.126 405.817 390.692 405.229 389.824C404.641 388.956 404.347 387.701 404.347 386.058C404.347 384.406 404.641 383.151 405.229 382.292C405.817 381.433 406.676 381.004 407.805 381.004C408.944 381.004 409.803 381.433 410.381 382.292C410.969 383.141 411.263 384.392 411.263 386.044C411.263 387.696 410.965 388.956 410.367 389.824C409.779 390.692 408.925 391.126 407.805 391.126ZM407.805 390.132C408.589 390.132 409.168 389.801 409.541 389.138C409.924 388.475 410.115 387.444 410.115 386.044C410.115 384.644 409.929 383.622 409.555 382.978C409.182 382.325 408.599 381.998 407.805 381.998C407.021 381.998 406.438 382.325 406.055 382.978C405.682 383.631 405.495 384.653 405.495 386.044C405.495 387.444 405.682 388.475 406.055 389.138C406.438 389.801 407.021 390.132 407.805 390.132ZM413.26 391V390.132L416.634 386.492C417.11 385.969 417.451 385.493 417.656 385.064C417.871 384.635 417.978 384.196 417.978 383.748C417.978 382.6 417.311 382.026 415.976 382.026C414.977 382.026 414.095 382.399 413.33 383.146L412.896 382.25C413.26 381.877 413.722 381.578 414.282 381.354C414.851 381.121 415.449 381.004 416.074 381.004C417.063 381.004 417.819 381.237 418.342 381.704C418.874 382.161 419.14 382.815 419.14 383.664C419.14 384.252 418.995 384.831 418.706 385.4C418.417 385.96 417.973 386.557 417.376 387.192L414.73 390.02H419.546V391H413.26ZM421.655 391V390.132L425.029 386.492C425.505 385.969 425.845 385.493 426.051 385.064C426.265 384.635 426.373 384.196 426.373 383.748C426.373 382.6 425.705 382.026 424.371 382.026C423.372 382.026 422.49 382.399 421.725 383.146L421.291 382.25C421.655 381.877 422.117 381.578 422.677 381.354C423.246 381.121 423.843 381.004 424.469 381.004C425.458 381.004 426.214 381.237 426.737 381.704C427.269 382.161 427.535 382.815 427.535 383.664C427.535 384.252 427.39 384.831 427.101 385.4C426.811 385.96 426.368 386.557 425.771 387.192L423.125 390.02H427.941V391H421.655Z" fill="black"/>
<path d="M1.47094 391V390.132L4.84494 386.492C5.32094 385.969 5.6616 385.493 5.86694 385.064C6.0816 384.635 6.18894 384.196 6.18894 383.748C6.18894 382.6 5.5216 382.026 4.18694 382.026C3.18827 382.026 2.30627 382.399 1.54094 383.146L1.10694 382.25C1.47094 381.877 1.93294 381.578 2.49294 381.354C3.06227 381.121 3.6596 381.004 4.28494 381.004C5.27427 381.004 6.03027 381.237 6.55294 381.704C7.08494 382.161 7.35094 382.815 7.35094 383.664C7.35094 384.252 7.20627 384.831 6.91694 385.4C6.6276 385.96 6.18427 386.557 5.58694 387.192L2.94094 390.02H7.75694V391H1.47094ZM12.8055 391.126C11.6761 391.126 10.8175 390.692 10.2295 389.824C9.64147 388.956 9.34747 387.701 9.34747 386.058C9.34747 384.406 9.64147 383.151 10.2295 382.292C10.8175 381.433 11.6761 381.004 12.8055 381.004C13.9441 381.004 14.8028 381.433 15.3815 382.292C15.9695 383.141 16.2635 384.392 16.2635 386.044C16.2635 387.696 15.9648 388.956 15.3675 389.824C14.7795 390.692 13.9255 391.126 12.8055 391.126ZM12.8055 390.132C13.5895 390.132 14.1681 389.801 14.5415 389.138C14.9241 388.475 15.1155 387.444 15.1155 386.044C15.1155 384.644 14.9288 383.622 14.5555 382.978C14.1821 382.325 13.5988 381.998 12.8055 381.998C12.0215 381.998 11.4381 382.325 11.0555 382.978C10.6821 383.631 10.4955 384.653 10.4955 386.044C10.4955 387.444 10.6821 388.475 11.0555 389.138C11.4381 389.801 12.0215 390.132 12.8055 390.132ZM18.26 391V390.132L21.634 386.492C22.11 385.969 22.4507 385.493 22.656 385.064C22.8707 384.635 22.978 384.196 22.978 383.748C22.978 382.6 22.3107 382.026 20.976 382.026C19.9773 382.026 19.0953 382.399 18.33 383.146L17.896 382.25C18.26 381.877 18.722 381.578 19.282 381.354C19.8513 381.121 20.4487 381.004 21.074 381.004C22.0633 381.004 22.8193 381.237 23.342 381.704C23.874 382.161 24.14 382.815 24.14 383.664C24.14 384.252 23.9953 384.831 23.706 385.4C23.4167 385.96 22.9733 386.557 22.376 387.192L19.73 390.02H24.546V391H18.26ZM27.1305 391V390.02H29.3845V382.516L27.6065 383.636L27.1165 382.782L29.7065 381.13H30.5325V390.02H32.6465V391H27.1305Z" fill="black"/>
<path d="M445.541 390V389.256L448.433 386.136C448.841 385.688 449.133 385.28 449.309 384.912C449.493 384.544 449.585 384.168 449.585 383.784C449.585 382.8 449.013 382.308 447.869 382.308C447.013 382.308 446.257 382.628 445.601 383.268L445.229 382.5C445.541 382.18 445.937 381.924 446.417 381.732C446.905 381.532 447.417 381.432 447.953 381.432C448.801 381.432 449.449 381.632 449.897 382.032C450.353 382.424 450.581 382.984 450.581 383.712C450.581 384.216 450.457 384.712 450.209 385.2C449.961 385.68 449.581 386.192 449.069 386.736L446.801 389.16H450.929V390H445.541ZM455.436 390.108C454.892 390.108 454.372 390.02 453.876 389.844C453.38 389.668 452.96 389.42 452.616 389.1L452.988 388.32C453.732 388.928 454.544 389.232 455.424 389.232C456.008 389.232 456.468 389.068 456.804 388.74C457.14 388.412 457.308 387.98 457.308 387.444C457.308 386.892 457.148 386.44 456.828 386.088C456.508 385.736 456.068 385.56 455.508 385.56C454.7 385.56 454.064 385.896 453.6 386.568H452.88V381.54H457.788V382.38H453.852V385.404C454.316 384.94 454.928 384.708 455.688 384.708C456.216 384.708 456.676 384.82 457.068 385.044C457.46 385.268 457.76 385.584 457.968 385.992C458.184 386.392 458.292 386.86 458.292 387.396C458.292 387.924 458.176 388.392 457.944 388.8C457.712 389.208 457.38 389.528 456.948 389.76C456.524 389.992 456.02 390.108 455.436 390.108ZM466.218 392.16V389.052C466.074 389.388 465.87 389.648 465.606 389.832C465.342 390.016 465.026 390.108 464.658 390.108C464.234 390.108 463.862 389.984 463.542 389.736C463.23 389.488 462.986 389.14 462.81 388.692C462.634 388.236 462.546 387.7 462.546 387.084C462.546 386.156 462.738 385.42 463.122 384.876C463.506 384.332 464.018 384.06 464.658 384.06C465.026 384.06 465.342 384.152 465.606 384.336C465.87 384.52 466.074 384.78 466.218 385.116V381.54H467.19V385.104C467.334 384.768 467.538 384.512 467.802 384.336C468.066 384.152 468.382 384.06 468.75 384.06C469.382 384.06 469.89 384.332 470.274 384.876C470.666 385.42 470.862 386.156 470.862 387.084C470.862 388.004 470.67 388.74 470.286 389.292C469.902 389.836 469.39 390.108 468.75 390.108C468.382 390.108 468.066 390.016 467.802 389.832C467.538 389.648 467.334 389.392 467.19 389.064V392.16H466.218ZM464.874 389.34C465.298 389.34 465.63 389.148 465.87 388.764C466.11 388.38 466.23 387.82 466.23 387.084C466.23 386.348 466.106 385.788 465.858 385.404C465.618 385.02 465.29 384.828 464.874 384.828C464.458 384.828 464.126 385.02 463.878 385.404C463.638 385.788 463.518 386.348 463.518 387.084C463.518 387.82 463.638 388.38 463.878 388.764C464.126 389.148 464.458 389.34 464.874 389.34ZM468.522 389.34C468.938 389.34 469.27 389.148 469.518 388.764C469.766 388.38 469.89 387.82 469.89 387.084C469.89 386.348 469.766 385.788 469.518 385.404C469.27 385.02 468.938 384.828 468.522 384.828C468.106 384.828 467.778 385.02 467.538 385.404C467.298 385.788 467.178 386.348 467.178 387.084C467.178 387.82 467.294 388.38 467.526 388.764C467.766 389.148 468.098 389.34 468.522 389.34ZM475.073 390.108C474.153 390.108 473.425 389.84 472.889 389.304C472.353 388.76 472.085 388.024 472.085 387.096C472.085 386.496 472.205 385.968 472.445 385.512C472.685 385.048 473.013 384.692 473.429 384.444C473.853 384.188 474.341 384.06 474.893 384.06C475.685 384.06 476.305 384.316 476.753 384.828C477.201 385.332 477.425 386.028 477.425 386.916V387.288H473.033C473.065 387.952 473.257 388.46 473.609 388.812C473.961 389.156 474.449 389.328 475.073 389.328C475.425 389.328 475.761 389.276 476.081 389.172C476.401 389.06 476.705 388.88 476.993 388.632L477.329 389.316C477.065 389.564 476.729 389.76 476.321 389.904C475.913 390.04 475.497 390.108 475.073 390.108ZM474.917 384.78C474.365 384.78 473.929 384.952 473.609 385.296C473.289 385.64 473.101 386.092 473.045 386.652H476.585C476.561 386.06 476.405 385.6 476.117 385.272C475.837 384.944 475.437 384.78 474.917 384.78ZM478.937 390V384.168H481.781C482.469 384.168 482.977 384.3 483.305 384.564C483.633 384.82 483.797 385.2 483.797 385.704C483.797 386.008 483.709 386.272 483.533 386.496C483.365 386.72 483.133 386.884 482.837 386.988C483.197 387.076 483.477 387.244 483.677 387.492C483.885 387.74 483.989 388.04 483.989 388.392C483.989 388.888 483.805 389.28 483.437 389.568C483.069 389.856 482.549 390 481.877 390H478.937ZM479.861 386.7H481.733C482.101 386.7 482.385 386.62 482.585 386.46C482.785 386.292 482.885 386.056 482.885 385.752C482.885 385.456 482.785 385.228 482.585 385.068C482.385 384.908 482.101 384.828 481.733 384.828H479.861V386.7ZM479.861 389.34H481.841C482.241 389.34 482.545 389.256 482.753 389.088C482.961 388.92 483.065 388.672 483.065 388.344C483.065 388.024 482.961 387.78 482.753 387.612C482.545 387.444 482.241 387.36 481.841 387.36H479.861V389.34Z" fill="#6C707B"/>
<path d="M547.549 390V389.256L550.441 386.136C550.849 385.688 551.141 385.28 551.317 384.912C551.501 384.544 551.593 384.168 551.593 383.784C551.593 382.8 551.021 382.308 549.877 382.308C549.021 382.308 548.265 382.628 547.609 383.268L547.237 382.5C547.549 382.18 547.945 381.924 548.425 381.732C548.913 381.532 549.425 381.432 549.961 381.432C550.809 381.432 551.457 381.632 551.905 382.032C552.361 382.424 552.589 382.984 552.589 383.712C552.589 384.216 552.465 384.712 552.217 385.2C551.969 385.68 551.589 386.192 551.077 386.736L548.809 389.16H552.937V390H547.549ZM557.444 390.108C556.9 390.108 556.38 390.02 555.884 389.844C555.388 389.668 554.968 389.42 554.624 389.1L554.996 388.32C555.74 388.928 556.552 389.232 557.432 389.232C558.016 389.232 558.476 389.068 558.812 388.74C559.148 388.412 559.316 387.98 559.316 387.444C559.316 386.892 559.156 386.44 558.836 386.088C558.516 385.736 558.076 385.56 557.516 385.56C556.708 385.56 556.072 385.896 555.608 386.568H554.888V381.54H559.796V382.38H555.86V385.404C556.324 384.94 556.936 384.708 557.696 384.708C558.224 384.708 558.684 384.82 559.076 385.044C559.468 385.268 559.768 385.584 559.976 385.992C560.192 386.392 560.3 386.86 560.3 387.396C560.3 387.924 560.184 388.392 559.952 388.8C559.72 389.208 559.388 389.528 558.956 389.76C558.532 389.992 558.028 390.108 557.444 390.108ZM566.749 390.108C566.349 390.108 565.989 390.032 565.669 389.88C565.357 389.72 565.109 389.504 564.925 389.232C564.741 388.96 564.649 388.656 564.649 388.32C564.649 387.896 564.757 387.56 564.973 387.312C565.197 387.064 565.561 386.888 566.065 386.784C566.577 386.672 567.273 386.616 568.153 386.616H568.537V386.244C568.537 385.748 568.433 385.392 568.225 385.176C568.025 384.952 567.701 384.84 567.253 384.84C566.901 384.84 566.561 384.892 566.233 384.996C565.905 385.092 565.569 385.252 565.225 385.476L564.889 384.768C565.193 384.552 565.561 384.38 565.993 384.252C566.433 384.124 566.853 384.06 567.253 384.06C568.005 384.06 568.561 384.244 568.921 384.612C569.289 384.98 569.473 385.552 569.473 386.328V390H568.561V388.992C568.409 389.336 568.173 389.608 567.853 389.808C567.541 390.008 567.173 390.108 566.749 390.108ZM566.905 389.376C567.385 389.376 567.777 389.212 568.081 388.884C568.385 388.548 568.537 388.124 568.537 387.612V387.252H568.165C567.517 387.252 567.005 387.284 566.629 387.348C566.261 387.404 566.001 387.508 565.849 387.66C565.705 387.804 565.633 388.004 565.633 388.26C565.633 388.588 565.745 388.856 565.969 389.064C566.201 389.272 566.513 389.376 566.905 389.376ZM571.37 390V384.168H576.458V390H575.486V384.948H572.342V390H571.37ZM578.39 392.16V384.168H579.338V385.212C579.514 384.852 579.774 384.572 580.118 384.372C580.47 384.164 580.878 384.06 581.342 384.06C581.862 384.06 582.314 384.184 582.698 384.432C583.09 384.672 583.39 385.02 583.598 385.476C583.814 385.924 583.922 386.46 583.922 387.084C583.922 387.7 583.814 388.236 583.598 388.692C583.39 389.14 583.09 389.488 582.698 389.736C582.314 389.984 581.862 390.108 581.342 390.108C580.894 390.108 580.494 390.008 580.142 389.808C579.79 389.608 579.53 389.332 579.362 388.98V392.16H578.39ZM581.138 389.328C581.682 389.328 582.118 389.136 582.446 388.752C582.774 388.36 582.938 387.804 582.938 387.084C582.938 386.356 582.774 385.8 582.446 385.416C582.118 385.032 581.682 384.84 581.138 384.84C580.594 384.84 580.158 385.032 579.83 385.416C579.502 385.8 579.338 386.356 579.338 387.084C579.338 387.804 579.502 388.36 579.83 388.752C580.158 389.136 580.594 389.328 581.138 389.328Z" fill="#6C707B"/>
<rect x="311" y="376" width="1" height="20" fill="black" fill-opacity="0.05"/>
<rect x="412" y="376" width="1" height="20" fill="black" fill-opacity="0.05"/>
<rect x="513" y="376" width="1" height="20" fill="black" fill-opacity="0.05"/>
<rect x="613" y="376" width="1" height="20" fill="black" fill-opacity="0.05"/>
<rect x="210" y="376" width="1" height="20" fill="black" fill-opacity="0.05"/>
<rect x="109" y="376" width="1" height="20" fill="black" fill-opacity="0.05"/>
<path d="M19.184 359.637C17.8789 360.088 17.1863 361.511 17.6369 362.816C18.0876 364.121 19.5109 364.814 20.816 364.363L19.184 359.637ZM179.287 287.889L179.089 285.397L179.089 285.397L179.287 287.889ZM357.899 236.166L359.519 238.07L357.899 236.166ZM465.229 106.185L462.972 105.111L465.229 106.185ZM613 14L587.486 0.495968L588.548 29.3439L613 14ZM20.816 364.363C29.2856 361.438 39.1967 355.587 50.1998 348.556C61.3063 341.459 73.5615 333.136 87.058 324.937C114.007 308.566 145.266 293.104 179.486 290.381L179.089 285.397C143.676 288.215 111.596 304.18 84.4621 320.663C70.917 328.892 58.4446 337.354 47.5076 344.342C36.4673 351.397 27.0191 356.931 19.184 359.637L20.816 364.363ZM179.486 290.381C257.448 284.176 304.355 284.995 359.519 238.07L356.279 234.262C302.579 279.941 257.488 279.157 179.089 285.397L179.486 290.381ZM359.519 238.07C421.064 185.717 448.174 147.839 467.487 107.259L462.972 105.111C444.018 144.935 417.397 182.273 356.279 234.262L359.519 238.07ZM467.487 107.259C479.825 81.3342 492.938 60.2951 511.721 45.0168C530.455 29.7786 555.058 20.091 590.701 17.3207L590.313 12.3358C553.905 15.1654 528.262 25.1171 508.566 41.1379C488.919 57.1185 475.419 78.9579 462.972 105.111L467.487 107.259Z" fill="url(#graph18)" fill-opacity="0.7"/>
<path d="M18.7306 360.846C17.5411 361.547 17.1452 363.08 17.8463 364.269C18.5473 365.459 20.0799 365.855 21.2694 365.154L18.7306 360.846ZM158.406 228.984L157.547 226.636L157.547 226.636L158.406 228.984ZM263 15L241.961 34.7654L269.598 43.1035L263 15ZM21.2694 365.154C29.6601 360.208 37.5321 350.936 45.7399 339.794C49.8713 334.185 54.1545 328.006 58.6685 321.549C63.1912 315.08 67.9596 308.312 73.0985 301.468C93.6635 274.079 120.003 245.698 159.265 231.332L157.547 226.636C116.924 241.5 89.8645 270.812 69.1001 298.466C63.9067 305.382 59.097 312.21 54.5707 318.684C50.0357 325.171 45.7989 331.283 41.7142 336.828C33.4896 347.993 26.1443 356.477 18.7306 360.846L21.2694 365.154ZM159.265 231.332C187.193 221.113 205.687 193.843 220.347 158.933C235.028 123.972 246.171 80.5505 258.898 37.252L254.101 35.842C241.292 79.418 230.275 122.377 215.737 156.997C201.177 191.668 183.392 217.18 157.547 226.636L159.265 231.332Z" fill="url(#graph19)"/>
<rect x="277" y="15" width="70" height="39" rx="5" fill="#D88538"/>
<path d="M288.962 41V39.092H291.824V30.938L289.61 32.27L288.71 30.578L292.49 28.31H294.128V39.092H296.81V41H288.962ZM303.193 41.18C301.693 41.18 300.547 40.616 299.755 39.488C298.963 38.348 298.567 36.728 298.567 34.628C298.567 32.504 298.963 30.89 299.755 29.786C300.547 28.682 301.693 28.13 303.193 28.13C304.705 28.13 305.851 28.682 306.631 29.786C307.423 30.89 307.819 32.498 307.819 34.61C307.819 36.722 307.423 38.348 306.631 39.488C305.839 40.616 304.693 41.18 303.193 41.18ZM303.193 39.29C304.009 39.29 304.609 38.918 304.993 38.174C305.389 37.418 305.587 36.23 305.587 34.61C305.587 33.002 305.389 31.838 304.993 31.118C304.609 30.386 304.009 30.02 303.193 30.02C302.389 30.02 301.789 30.386 301.393 31.118C300.997 31.838 300.799 33.002 300.799 34.61C300.799 36.23 300.997 37.418 301.393 38.174C301.789 38.918 302.389 39.29 303.193 39.29ZM313.986 41.18C312.486 41.18 311.34 40.616 310.548 39.488C309.756 38.348 309.36 36.728 309.36 34.628C309.36 32.504 309.756 30.89 310.548 29.786C311.34 28.682 312.486 28.13 313.986 28.13C315.498 28.13 316.644 28.682 317.424 29.786C318.216 30.89 318.612 32.498 318.612 34.61C318.612 36.722 318.216 38.348 317.424 39.488C316.632 40.616 315.486 41.18 313.986 41.18ZM313.986 39.29C314.802 39.29 315.402 38.918 315.786 38.174C316.182 37.418 316.38 36.23 316.38 34.61C316.38 33.002 316.182 31.838 315.786 31.118C315.402 30.386 314.802 30.02 313.986 30.02C313.182 30.02 312.582 30.386 312.186 31.118C311.79 31.838 311.592 33.002 311.592 34.61C311.592 36.23 311.79 37.418 312.186 38.174C312.582 38.918 313.182 39.29 313.986 39.29ZM324.923 41.504L323.447 40.64L330.863 27.806L332.321 28.67L324.923 41.504ZM323.375 35.888C322.367 35.888 321.581 35.54 321.017 34.844C320.453 34.148 320.171 33.2 320.171 32C320.171 30.8 320.453 29.858 321.017 29.174C321.581 28.478 322.367 28.13 323.375 28.13C324.383 28.13 325.169 28.478 325.733 29.174C326.297 29.858 326.579 30.8 326.579 32C326.579 33.2 326.297 34.148 325.733 34.844C325.169 35.54 324.383 35.888 323.375 35.888ZM323.375 34.376C323.807 34.376 324.143 34.184 324.383 33.8C324.623 33.404 324.743 32.804 324.743 32C324.743 31.196 324.623 30.602 324.383 30.218C324.143 29.834 323.807 29.642 323.375 29.642C322.943 29.642 322.607 29.834 322.367 30.218C322.127 30.59 322.007 31.184 322.007 32C322.007 32.816 322.127 33.416 322.367 33.8C322.607 34.184 322.943 34.376 323.375 34.376ZM332.411 41.18C331.403 41.18 330.617 40.832 330.053 40.136C329.489 39.44 329.207 38.492 329.207 37.292C329.207 36.092 329.489 35.15 330.053 34.466C330.617 33.77 331.403 33.422 332.411 33.422C333.419 33.422 334.205 33.77 334.769 34.466C335.333 35.15 335.615 36.092 335.615 37.292C335.615 38.492 335.333 39.44 334.769 40.136C334.205 40.832 333.419 41.18 332.411 41.18ZM332.411 39.668C332.843 39.668 333.179 39.476 333.419 39.092C333.659 38.696 333.779 38.096 333.779 37.292C333.779 36.488 333.659 35.894 333.419 35.51C333.179 35.126 332.843 34.934 332.411 34.934C331.979 34.934 331.643 35.126 331.403 35.51C331.163 35.882 331.043 36.476 331.043 37.292C331.043 38.108 331.163 38.708 331.403 39.092C331.643 39.476 331.979 39.668 332.411 39.668Z" fill="white"/>
<defs>
<linearGradient id="graph11" x1="614" y1="362" x2="10" y2="362" gradientUnits="userSpaceOnUse">
<stop/>
<stop offset="1" stop-opacity="0"/>
</linearGradient>
<linearGradient id="graph12" x1="613.5" y1="15" x2="613.5" y2="363" gradientUnits="userSpaceOnUse">
<stop stop-opacity="0.2"/>
<stop offset="1"/>
</linearGradient>
<linearGradient id="graph13" x1="513.5" y1="15" x2="513.5" y2="363" gradientUnits="userSpaceOnUse">
<stop stop-opacity="0.2"/>
<stop offset="1"/>
</linearGradient>
<linearGradient id="graph14" x1="412.5" y1="15" x2="412.5" y2="363" gradientUnits="userSpaceOnUse">
<stop stop-opacity="0.2"/>
<stop offset="1"/>
</linearGradient>
<linearGradient id="graph15" x1="210.5" y1="15" x2="210.5" y2="363" gradientUnits="userSpaceOnUse">
<stop stop-opacity="0.2"/>
<stop offset="1"/>
</linearGradient>
<linearGradient id="graph16" x1="109.5" y1="15" x2="109.5" y2="363" gradientUnits="userSpaceOnUse">
<stop stop-opacity="0.2"/>
<stop offset="1"/>
</linearGradient>
<linearGradient id="graph17" x1="311.5" y1="15" x2="311.5" y2="363" gradientUnits="userSpaceOnUse">
<stop stop-opacity="0.2"/>
<stop offset="1"/>
</linearGradient>
<linearGradient id="graph18" x1="609.55" y1="2.47649" x2="-25.1776" y2="121.914" gradientUnits="userSpaceOnUse">
<stop/>
<stop offset="1" stop-opacity="0"/>
</linearGradient>
<linearGradient id="graph19" x1="260.956" y1="-46.2168" x2="77.4833" y2="-70.5435" gradientUnits="userSpaceOnUse">
<stop stop-color="#EB872A"/>
<stop offset="1" stop-color="#FEE60D" stop-opacity="0"/>
</linearGradient>
</defs>
</svg>
