<?xml version="1.0" encoding="utf-8"?><svg xmlns="http://www.w3.org/2000/svg" xmlns:xlink="http://www.w3.org/1999/xlink"><symbol fill="none" viewBox="0 0 20 20" id="arrow" xmlns="http://www.w3.org/2000/svg"><path d="M1 10h18m0 0l-7.714 8M19 10l-7.714-8" stroke="#A0A7BB" stroke-width="1.5" stroke-linecap="square" stroke-linejoin="round"/></symbol><symbol fill="none" viewBox="0 0 20 20" id="info" xmlns="http://www.w3.org/2000/svg"><path d="M10 6h.011m-1.01 4h1v4h1M19 10a9 9 0 11-18 0 9 9 0 0118 0z" stroke="#A0A7BB" stroke-width="1.5" stroke-linecap="square" stroke-linejoin="round"/></symbol><symbol fill="none" viewBox="0 0 27 17" id="lightning" xmlns="http://www.w3.org/2000/svg"><path d="M2 15l8-8.4 5.333 5.6L26 1m0 0h-9.333M26 1v9.8" stroke="#fff" stroke-width="1.5" stroke-linecap="square" stroke-linejoin="round"/></symbol><symbol fill="none" viewBox="0 0 24 24" id="mail" xmlns="http://www.w3.org/2000/svg"><path d="M16.889 12.014a4.889 4.889 0 11-9.778 0 4.889 4.889 0 019.778 0zm0 0v1.834a3.056 3.056 0 006.111 0v-1.834a11 11 0 10-6.722 10.12" stroke="#D88538" stroke-width="1.5" stroke-linecap="square" stroke-linejoin="round"/></symbol></svg>