<?xml version="1.0" encoding="utf-8"?><svg xmlns="http://www.w3.org/2000/svg" xmlns:xlink="http://www.w3.org/1999/xlink"><symbol fill="none" viewBox="0 0 24 30" id="apple" xmlns="http://www.w3.org/2000/svg"><path d="M20.045 15.954a6.906 6.906 0 01.873-3.277c.559-1 1.357-1.84 2.32-2.443a6.902 6.902 0 00-2.358-2.136 6.773 6.773 0 00-3.049-.837c-2.275-.243-4.48 1.385-5.64 1.385-1.18 0-2.966-1.36-4.888-1.32a7.113 7.113 0 00-3.516 1.067 7.27 7.27 0 00-2.543 2.69c-2.62 4.614-.666 11.393 1.844 15.122 1.256 1.826 2.723 3.866 4.643 3.793 1.88-.08 2.581-1.218 4.85-1.218 2.246 0 2.905 1.218 4.864 1.172 2.016-.033 3.287-1.834 4.498-3.677A15.214 15.214 0 0024 22.015a6.504 6.504 0 01-2.874-2.425 6.668 6.668 0 01-1.08-3.636zm-3.7-11.145A6.789 6.789 0 0017.855 0a6.68 6.68 0 00-4.345 2.286 6.415 6.415 0 00-1.228 2.159 6.49 6.49 0 00-.322 2.472 5.475 5.475 0 002.43-.541 5.57 5.57 0 001.955-1.567z" fill="#fff"/></symbol><symbol fill="none" viewBox="0 0 20 20" id="arrow" xmlns="http://www.w3.org/2000/svg"><path d="M1 10h18m0 0l-7.714 8M19 10l-7.714-8" stroke="#A0A7BB" stroke-width="1.5" stroke-linecap="square" stroke-linejoin="round"/></symbol><symbol fill="none" viewBox="0 0 14 16" id="cart" xmlns="http://www.w3.org/2000/svg"><path d="M1.227.97a.535.535 0 00-.53.54c0 .3.237.541.53.541h.883v9.089c-.815.236-1.413 1-1.413 1.908 0 1.096.87 1.983 1.943 1.983s1.943-.887 1.943-1.983c0-.324-.076-.63-.212-.9h4.31c-.136.27-.212.576-.212.9 0 1.096.87 1.983 1.943 1.983 1.072 0 1.942-.887 1.942-1.983 0-1.095-.87-1.982-1.942-1.982H3.17V9.262h8.655a.534.534 0 00.524-.464l.707-5.048a.548.548 0 00-.113-.416.527.527 0 00-.374-.2L3.17 2.45v-.938A.535.535 0 002.64.97H1.227z" fill="#0A0911"/></symbol><symbol fill="none" viewBox="0 0 20 20" id="info" xmlns="http://www.w3.org/2000/svg"><path d="M10 6h.011m-1.01 4h1v4h1M19 10a9 9 0 11-18 0 9 9 0 0118 0z" stroke="#A0A7BB" stroke-width="1.5" stroke-linecap="square" stroke-linejoin="round"/></symbol><symbol fill="none" viewBox="0 0 27 17" id="lightning" xmlns="http://www.w3.org/2000/svg"><path d="M2 15l8-8.4 5.333 5.6L26 1m0 0h-9.333M26 1v9.8" stroke="#fff" stroke-width="1.5" stroke-linecap="square" stroke-linejoin="round"/></symbol><symbol fill="none" viewBox="0 0 24 24" id="mail" xmlns="http://www.w3.org/2000/svg"><path d="M16.889 12.014a4.889 4.889 0 11-9.778 0 4.889 4.889 0 019.778 0zm0 0v1.834a3.056 3.056 0 006.111 0v-1.834a11 11 0 10-6.722 10.12" stroke="#D88538" stroke-width="1.5" stroke-linecap="square" stroke-linejoin="round"/></symbol><symbol fill="none" viewBox="0 0 14 14" id="message" xmlns="http://www.w3.org/2000/svg"><path fill-rule="evenodd" clip-rule="evenodd" d="M.697 13.06a.5.5 0 00.144-.013l3.034-.653a7.27 7.27 0 004.447.51c1.561-.314 2.957-1.13 3.918-2.31.963-1.183 1.424-2.652 1.28-4.132-.143-1.48-.877-2.848-2.045-3.857-1.168-1.009-2.693-1.594-4.29-1.66-1.595-.065-3.172.394-4.433 1.3C1.489 3.15.622 4.45.33 5.91a5.581 5.581 0 00.72 4.005L.242 12.37a.521.521 0 00.455.69zm6.55-6.245a.56.56 0 00-.559-.562.56.56 0 00-.559.562v.007c0 .31.25.563.56.563a.56.56 0 00.559-.563v-.007zM4.08 6.253a.56.56 0 01.559.562v.007a.56.56 0 01-.56.563.56.56 0 01-.558-.563v-.007c0-.31.25-.562.559-.562zm5.776.562a.56.56 0 00-.559-.562.56.56 0 00-.559.562v.007c0 .31.25.563.56.563a.56.56 0 00.558-.563v-.007z" fill="#0A0911"/></symbol><symbol fill="none" viewBox="0 0 13 14" id="money" xmlns="http://www.w3.org/2000/svg"><path d="M5.918 1.91c0-.392.263-.856.916-1.255C7.476.263 8.402 0 9.46 0c1.056 0 1.983.263 2.624.655.654.4.917.863.917 1.254 0 .392-.263.855-.917 1.254-.641.392-1.568.655-2.624.655-1.057 0-1.983-.263-2.625-.655-.653-.4-.916-.862-.916-1.254zm6.808 2.345A4.24 4.24 0 0013 4.073v1.23c0 .392-.263.855-.917 1.254-.641.392-1.568.655-2.624.655-1.057 0-1.983-.263-2.624-.655-.654-.4-.917-.862-.917-1.254v-1.23c.088.064.18.124.273.182.867.53 2.024.836 3.268.836 1.244 0 2.4-.307 3.267-.836zm0 3.394c.094-.058.185-.118.274-.182v1.23c0 .392-.263.855-.917 1.254-.641.392-1.568.655-2.624.655-1.057 0-1.983-.263-2.624-.655-.654-.4-.917-.862-.917-1.254v-1.23c.088.064.18.124.274.182.866.53 2.023.836 3.267.836 1.244 0 2.4-.307 3.267-.836zm0 3.394c.094-.058.185-.118.274-.182v1.23c0 .392-.263.855-.917 1.254-.641.392-1.568.655-2.624.655-1.057 0-1.983-.263-2.624-.655-.654-.4-.917-.863-.917-1.254v-1.23c.088.064.18.124.274.182.866.529 2.023.836 3.267.836 1.244 0 2.4-.307 3.267-.836z" fill="#0A0911"/><path fill-rule="evenodd" clip-rule="evenodd" d="M1.88 3.792a.51.51 0 01.512.506v.17h.854a.51.51 0 01.513.506.51.51 0 01-.513.506H1.538a.516.516 0 00-.363.149.504.504 0 000 .716.516.516 0 00.363.148h.683c.408 0 .799.16 1.087.446a1.51 1.51 0 010 2.149 1.545 1.545 0 01-.916.436v.178a.51.51 0 01-.513.506.51.51 0 01-.512-.506v-.17H.513A.51.51 0 010 9.027c0-.28.23-.506.513-.506H2.22a.516.516 0 00.362-.149.504.504 0 000-.716.516.516 0 00-.362-.148h-.683c-.408 0-.8-.16-1.088-.446a1.51 1.51 0 010-2.149c.248-.245.572-.397.917-.435v-.179c0-.28.23-.506.512-.506z" fill="#0A0911"/></symbol><symbol fill="none" viewBox="0 0 14 13" id="mountain" xmlns="http://www.w3.org/2000/svg"><path d="M10.515 4.782a.587.587 0 00-.866.047L6.84 8.288 4.158 6.967a.587.587 0 00-.744.194L.31 11.746a.566.566 0 00-.03.588.583.583 0 00.514.302h12.412a.577.577 0 00.582-.573v-3.82a.569.569 0 00-.17-.405l-3.104-3.056z" fill="#0A0911"/><path fill-rule="evenodd" clip-rule="evenodd" d="M10.077.03a.587.587 0 01.438.168l3.103 3.056a.567.567 0 010 .81.588.588 0 01-.823 0l-2.652-2.612-3.471 4.102a.588.588 0 01-.707.146L3.296 4.386 1.26 7.059a.588.588 0 01-.814.115.567.567 0 01-.117-.803l2.328-3.056a.588.588 0 01.725-.168l2.691 1.325L9.657.236a.585.585 0 01.42-.205z" fill="#0A0911"/></symbol><symbol fill="none" viewBox="0 0 15 17" id="play" xmlns="http://www.w3.org/2000/svg"><path d="M4.038 1.844C2.705 1.035 1 1.994 1 3.554v9.892c0 1.56 1.705 2.519 3.038 1.71l8.146-4.946a2 2 0 000-3.42L4.038 1.844z" fill="#A0A7BB" stroke="#A0A7BB" stroke-width="2" stroke-linecap="square" stroke-linejoin="round"/></symbol><symbol fill="none" viewBox="0 0 26 27" id="play_market" xmlns="http://www.w3.org/2000/svg"><path d="M1.453.602c-.302.324-.48.824-.48 1.46v23.063c0 .647.178 1.147.48 1.46l.073.073L14.445 13.75v-.313L1.526.53l-.073.073z" fill="#C7C7C7"/><path d="M18.75 18.057l-4.306-4.306v-.313l4.306-4.306.094.052 5.099 2.899c1.46.823 1.46 2.179 0 3.013l-5.099 2.898-.094.063z" fill="#F2F2F2"/><path d="M18.844 18.004l-4.4-4.41L1.453 26.585c.48.511 1.272.573 2.168.063l15.223-8.644z" fill="#9E9E9E"/><path d="M18.844 9.194L3.611.54C2.714.029 1.922.092 1.442.602l13.002 12.992 4.4-4.4z" fill="#B8B8B8"/><path opacity=".2" d="M18.751 17.9l-15.14 8.6c-.844.48-1.605.448-2.084.01l-.073.074.073.073c.49.438 1.24.469 2.085-.01l15.233-8.655-.094-.094z" fill="#000"/><path opacity=".12" d="M1.453 26.438c-.302-.323-.48-.823-.48-1.46v.157c0 .646.178 1.147.48 1.46l.073-.073-.073-.084zm22.49-11.488L18.74 17.9l.094.094 5.099-2.899c.73-.417 1.094-.96 1.094-1.501-.052.49-.417.98-1.084 1.355z" fill="#000"/><path opacity=".25" d="M3.611.686l20.332 11.552c.657.375 1.032.855 1.095 1.356 0-.543-.366-1.095-1.095-1.502L3.61.54C2.151-.284.963.404.963 2.072v.157C.963.55 2.162-.138 3.61.686z" fill="#fff"/></symbol><symbol fill="none" viewBox="0 0 14 14" id="purse" xmlns="http://www.w3.org/2000/svg"><path d="M9.332 7.812c.227-.228.535-.356.855-.356h2.42c.25 0 .454.204.454.456v1.52a.455.455 0 01-.454.456h-2.42c-.32 0-.628-.128-.855-.356a1.219 1.219 0 010-1.72zM.697 1.984a1.041 1.041 0 001.04 1.045h8.526V1.15a.21.21 0 00-.208-.21H1.737a1.048 1.048 0 00-1.04 1.045z" fill="#0A0911"/><path d="M11.927 6.544h-1.74c-.561 0-1.1.224-1.497.623a2.133 2.133 0 000 3.01c.397.399.936.623 1.497.623h1.74v2.052a.21.21 0 01-.208.209H1.737c-.276 0-.54-.11-.735-.306a1.048 1.048 0 01-.305-.74V4.033c.32.164.675.251 1.04.251h9.982a.207.207 0 01.208.21v2.051z" fill="#0A0911"/></symbol></svg>