<?xml version="1.0" encoding="utf-8"?><svg xmlns="http://www.w3.org/2000/svg" xmlns:xlink="http://www.w3.org/1999/xlink"><symbol fill="none" viewBox="0 0 24 30" id="apple" xmlns="http://www.w3.org/2000/svg"><path d="M20.045 15.954a6.906 6.906 0 01.873-3.277c.559-1 1.357-1.84 2.32-2.443a6.902 6.902 0 00-2.358-2.136 6.773 6.773 0 00-3.049-.837c-2.275-.243-4.48 1.385-5.64 1.385-1.18 0-2.966-1.36-4.888-1.32a7.113 7.113 0 00-3.516 1.067 7.27 7.27 0 00-2.543 2.69c-2.62 4.614-.666 11.393 1.844 15.122 1.256 1.826 2.723 3.866 4.643 3.793 1.88-.08 2.581-1.218 4.85-1.218 2.246 0 2.905 1.218 4.864 1.172 2.016-.033 3.287-1.834 4.498-3.677A15.214 15.214 0 0024 22.015a6.504 6.504 0 01-2.874-2.425 6.668 6.668 0 01-1.08-3.636zm-3.7-11.145A6.789 6.789 0 0017.855 0a6.68 6.68 0 00-4.345 2.286 6.415 6.415 0 00-1.228 2.159 6.49 6.49 0 00-.322 2.472 5.475 5.475 0 002.43-.541 5.57 5.57 0 001.955-1.567z" fill="#fff"/></symbol><symbol fill="none" viewBox="0 0 20 20" id="arrow" xmlns="http://www.w3.org/2000/svg"><path d="M1 10h18m0 0l-7.714 8M19 10l-7.714-8" stroke="#A0A7BB" stroke-width="1.5" stroke-linecap="square" stroke-linejoin="round"/></symbol><symbol fill="none" viewBox="0 0 20 20" id="info" xmlns="http://www.w3.org/2000/svg"><path d="M10 6h.011m-1.01 4h1v4h1M19 10a9 9 0 11-18 0 9 9 0 0118 0z" stroke="#A0A7BB" stroke-width="1.5" stroke-linecap="square" stroke-linejoin="round"/></symbol><symbol fill="none" viewBox="0 0 27 17" id="lightning" xmlns="http://www.w3.org/2000/svg"><path d="M2 15l8-8.4 5.333 5.6L26 1m0 0h-9.333M26 1v9.8" stroke="#fff" stroke-width="1.5" stroke-linecap="square" stroke-linejoin="round"/></symbol><symbol fill="none" viewBox="0 0 24 24" id="mail" xmlns="http://www.w3.org/2000/svg"><path d="M16.889 12.014a4.889 4.889 0 11-9.778 0 4.889 4.889 0 019.778 0zm0 0v1.834a3.056 3.056 0 006.111 0v-1.834a11 11 0 10-6.722 10.12" stroke="#D88538" stroke-width="1.5" stroke-linecap="square" stroke-linejoin="round"/></symbol><symbol fill="none" viewBox="0 0 26 27" id="play_market" xmlns="http://www.w3.org/2000/svg"><path d="M1.453.602c-.302.324-.48.824-.48 1.46v23.063c0 .647.178 1.147.48 1.46l.073.073L14.445 13.75v-.313L1.526.53l-.073.073z" fill="#C7C7C7"/><path d="M18.75 18.057l-4.306-4.306v-.313l4.306-4.306.094.052 5.099 2.899c1.46.823 1.46 2.179 0 3.013l-5.099 2.898-.094.063z" fill="#F2F2F2"/><path d="M18.844 18.004l-4.4-4.41L1.453 26.585c.48.511 1.272.573 2.168.063l15.223-8.644z" fill="#9E9E9E"/><path d="M18.844 9.194L3.611.54C2.714.029 1.922.092 1.442.602l13.002 12.992 4.4-4.4z" fill="#B8B8B8"/><path opacity=".2" d="M18.751 17.9l-15.14 8.6c-.844.48-1.605.448-2.084.01l-.073.074.073.073c.49.438 1.24.469 2.085-.01l15.233-8.655-.094-.094z" fill="#000"/><path opacity=".12" d="M1.453 26.438c-.302-.323-.48-.823-.48-1.46v.157c0 .646.178 1.147.48 1.46l.073-.073-.073-.084zm22.49-11.488L18.74 17.9l.094.094 5.099-2.899c.73-.417 1.094-.96 1.094-1.501-.052.49-.417.98-1.084 1.355z" fill="#000"/><path opacity=".25" d="M3.611.686l20.332 11.552c.657.375 1.032.855 1.095 1.356 0-.543-.366-1.095-1.095-1.502L3.61.54C2.151-.284.963.404.963 2.072v.157C.963.55 2.162-.138 3.61.686z" fill="#fff"/></symbol></svg>