<svg width="183" height="48" viewBox="0 0 183 48" fill="none" xmlns="http://www.w3.org/2000/svg">
    <path d="M4.09024 37.0243C5.66966 39.3684 7.65128 41.4201 9.93639 43.0807L38.2141 4.07881L4.09024 37.0243Z" fill="url(#logo1)"/>
    <path d="M28.8433 0L3.3333 35.8263C1.90966 33.419 0.893875 30.7427 0.380852 27.8922L28.8433 0Z" fill="url(#logo2)"/>
    <path d="M48.1699 21.9229L33.2046 45.9093C30.3992 47.0499 27.3301 47.6783 24.114 47.6783C23.8571 47.6783 23.6011 47.6743 23.3461 47.6664L48.1699 21.9229Z" fill="url(#logo3)"/>
    <path d="M44.7587 11.1621L19.7048 47.2769C16.9697 46.7724 14.3964 45.8072 12.0687 44.4649L44.7587 11.1621Z" fill="url(#logo4)"/>
    <path d="M15.6408 1.06521C6.50301 4.48911 0 13.2904 0 23.6078C0 24.2245 0.0232333 24.8358 0.0688738 25.4408L15.6408 1.06521Z" fill="url(#logo5)"/>
    <path d="M22.3604 31.2124H26.1589V19.9112L32.128 28.4992H35.6198L41.5654 19.8168V31.2124H45.3639V14.697H41.0699L33.9211 25.0073L26.7015 14.697H22.3604V31.2124Z" fill="#334F90"/>
    <path d="M50.2623 31.2124H54.3204V14.697H50.2623V31.2124Z" fill="#334F90"/>
    <path d="M57.9746 22.9783C57.9746 28.2161 61.7731 31.4719 68.1198 31.4719C71.5644 31.4719 73.9237 30.4102 75.3393 28.4992L75.6697 31.2124H78.6424V22.3413H68.3557V25.2433H74.6315C74.0653 27.2015 72.0835 28.2632 68.6388 28.2632C64.3212 28.2632 62.127 26.3994 62.127 22.9783C62.127 19.5337 64.3448 17.6462 68.6624 17.6462C71.8475 17.6462 73.6406 18.6607 74.2541 20.5482L78.3357 19.6752C77.2976 16.2542 74.0181 14.4375 68.6624 14.4375C61.9619 14.4375 57.9746 17.6934 57.9746 22.9783Z" fill="#334F90"/>
    <path d="M92.1609 31.4719C98.7906 31.4719 102.731 28.1925 102.731 22.9783C102.731 17.717 98.7906 14.4375 92.1609 14.4375C85.5076 14.4375 81.591 17.717 81.591 22.9783C81.591 28.1925 85.5076 31.4719 92.1609 31.4719ZM92.1609 28.2632C87.8905 28.2632 85.7435 26.3758 85.7435 22.9783C85.7435 19.5573 87.8905 17.6462 92.1609 17.6462C96.4313 17.6462 98.5547 19.5573 98.5547 22.9783C98.5547 26.3758 96.4313 28.2632 92.1609 28.2632Z" fill="#334F90"/>
    <path d="M111.283 31.2124H115.341V17.9057H122.561V14.697H104.134V17.9057H111.283V31.2124Z" fill="#334F90"/>
    <path d="M134.002 31.4719C140.632 31.4719 144.572 28.1925 144.572 22.9783C144.572 17.717 140.632 14.4375 134.002 14.4375C127.349 14.4375 123.432 17.717 123.432 22.9783C123.432 28.1925 127.349 31.4719 134.002 31.4719ZM134.002 28.2632C129.732 28.2632 127.585 26.3758 127.585 22.9783C127.585 19.5573 129.732 17.6462 134.002 17.6462C138.273 17.6462 140.396 19.5573 140.396 22.9783C140.396 26.3758 138.273 28.2632 134.002 28.2632Z" fill="#334F90"/>
    <path d="M155.279 30.8767H159.007V18.8913L170.072 30.8767H174.06V14.3613H170.308V26.3704L159.267 14.3613H155.279V30.8767Z" fill="#334F90"/>
    <path d="M178.942 30.8767H183V14.3613H178.942V30.8767Z" fill="#334F90"/>
    <defs>
        <linearGradient id="logo1" x1="6.82171" y1="2.8723" x2="43.7298" y2="43.1511" gradientUnits="userSpaceOnUse">
            <stop offset="0" stop-color="#FF0000"/>
            <stop offset="1" stop-color="#FEE60D"/>
        </linearGradient>
        <linearGradient id="logo2" x1="6.82171" y1="2.8723" x2="43.7298" y2="43.1511" gradientUnits="userSpaceOnUse">
            <stop offset="0" stop-color="#FF0000"/>
            <stop offset="1" stop-color="#FEE60D"/>
        </linearGradient>
        <linearGradient id="logo3" x1="6.82171" y1="2.8723" x2="43.7298" y2="43.1511" gradientUnits="userSpaceOnUse">
            <stop offset="0" stop-color="#FF0000"/>
            <stop offset="1" stop-color="#FEE60D"/>
        </linearGradient>
        <linearGradient id="logo4" x1="6.82171" y1="2.8723" x2="43.7298" y2="43.1511" gradientUnits="userSpaceOnUse">
            <stop offset="0" stop-color="#FF0000"/>
            <stop offset="1" stop-color="#FEE60D"/>
        </linearGradient>
        <linearGradient id="logo5" x1="6.82171" y1="2.8723" x2="43.7298" y2="43.1511" gradientUnits="userSpaceOnUse">
            <stop offset="0" stop-color="#FF0000"/>
            <stop offset="1" stop-color="#FEE60D"/>
        </linearGradient>
    </defs>
</svg>
