<svg width="222" height="64" viewBox="0 0 222 64" fill="none" xmlns="http://www.w3.org/2000/svg">
<path fill-rule="evenodd" clip-rule="evenodd" d="M31.7868 63.908C49.3422 63.908 63.5736 49.6766 63.5736 32.1212C63.5736 14.5658 49.3422 0.334385 31.7868 0.334385C14.2314 0.334385 0 14.5658 0 32.1212C0 49.6766 14.2314 63.908 31.7868 63.908ZM31.7868 63.2593C48.2674 63.2593 61.6275 49.8992 61.6275 33.4186C61.6275 16.9381 48.2674 3.57794 31.7868 3.57794C15.3063 3.57794 1.94613 16.9381 1.94613 33.4186C1.94613 49.8992 15.3063 63.2593 31.7868 63.2593Z" fill="url(#logo1)"/>
<path d="M39.2432 42.2176H42.1023V26.0637L51.2228 38.7009H53.8531L62.945 25.9779V42.2176H65.7755V22.2039H62.5447L52.5665 36.0419L42.5025 22.2039H39.2432V42.2176Z" fill="#3F1E10"/>
<path d="M72.9994 42.2176H76.03V22.2039H72.9994V42.2176Z" fill="#3F1E10"/>
<path d="M81.5874 32.2393C81.5874 38.5579 86.0762 42.5035 93.7385 42.5035C98.3989 42.5035 101.63 40.8738 103.345 38.0147L103.631 42.2176H105.861V32.1536H93.6528V34.4408H102.859C102.259 37.9575 99.3424 40.0732 93.9958 40.0732C87.9346 40.0732 84.6752 37.1856 84.6752 32.2393C84.6752 27.2931 88.0204 24.3482 94.1102 24.3482C98.7991 24.3482 101.63 26.0065 102.487 28.8656L105.547 28.2366C104.374 24.1767 100.4 21.918 94.1102 21.918C86.2191 21.918 81.5874 25.8922 81.5874 32.2393Z" fill="#3F1E10"/>
<path d="M122.472 42.5035C130.278 42.5035 134.766 38.4721 134.766 32.2393C134.766 25.9493 130.278 21.918 122.472 21.918C114.638 21.918 110.178 25.9779 110.178 32.2393C110.178 38.5007 114.638 42.5035 122.472 42.5035ZM122.472 40.0732C116.411 40.0732 113.266 37.0712 113.266 32.2393C113.266 27.3789 116.411 24.3482 122.472 24.3482C128.505 24.3482 131.65 27.3789 131.65 32.2393C131.65 37.0712 128.505 40.0732 122.472 40.0732Z" fill="#3F1E10"/>
<path d="M146.363 42.2176H149.394V24.6627H158.915V22.2039H136.9V24.6627H146.363V42.2176Z" fill="#3F1E10"/>
<path d="M172.283 42.5035C180.088 42.5035 184.577 38.4721 184.577 32.2393C184.577 25.9493 180.088 21.918 172.283 21.918C164.449 21.918 159.989 25.9779 159.989 32.2393C159.989 38.5007 164.449 42.5035 172.283 42.5035ZM172.283 40.0732C166.222 40.0732 163.077 37.0712 163.077 32.2393C163.077 27.3789 166.222 24.3482 172.283 24.3482C178.316 24.3482 181.461 27.3789 181.461 32.2393C181.461 37.0712 178.316 40.0732 172.283 40.0732Z" fill="#3F1E10"/>
<path d="M190.099 42.2175H192.901V25.6062L208.74 42.2175H211.742V22.2039H208.94V38.8438L193.129 22.2039H190.099V42.2175Z" fill="#DE5C1D"/>
<path d="M218.969 42.2175H222V22.2039H218.969V42.2175Z" fill="#DE5C1D"/>
<defs>
<linearGradient id="logo1" x1="31.7868" y1="0.334385" x2="31.7868" y2="63.908" gradientUnits="userSpaceOnUse">
<stop stop-color="#DD571D"/>
<stop offset="1" stop-color="#FFE600"/>
</linearGradient>
</defs>
</svg>
