<svg width="222" height="58" viewBox="0 0 222 58" fill="none" xmlns="http://www.w3.org/2000/svg">
<path d="M4.95213 44.8261C6.86437 47.6642 9.26356 50.1481 12.0302 52.1586L46.2666 4.93831L4.95213 44.8261Z" fill="url(#paint0_linear_1:75)"/>
<path d="M34.9212 0L4.03569 43.3757C2.31206 40.461 1.08223 37.2208 0.461105 33.7697L34.9212 0Z" fill="url(#paint1_linear_1:75)"/>
<path d="M58.3203 26.5425L40.2015 55.5833C36.8049 56.9643 33.0891 57.7252 29.1953 57.7252C28.8843 57.7252 28.5744 57.7203 28.2656 57.7107L58.3203 26.5425Z" fill="url(#paint2_linear_1:75)"/>
<path d="M54.1903 13.5142L23.8571 57.2391C20.5455 56.6283 17.43 55.4597 14.6118 53.8345L54.1903 13.5142Z" fill="url(#paint3_linear_1:75)"/>
<path d="M18.9366 1.28968C7.87333 5.43506 0 16.091 0 28.5825C0 29.3291 0.028129 30.0692 0.0833869 30.8017L18.9366 1.28968Z" fill="url(#paint4_linear_1:75)"/>
<path d="M27.0724 37.7892H31.6714V24.1066L38.8983 34.5043H43.1259L50.3243 23.9923V37.7892H54.9233V17.7937H49.7245L41.0693 30.2766L32.3284 17.7937H27.0724V37.7892Z" fill="#334F90"/>
<path d="M60.8539 37.7892H65.7671V17.7937H60.8539V37.7892Z" fill="#334F90"/>
<path d="M70.1913 27.82C70.1913 34.1615 74.7903 38.1034 82.4743 38.1034C86.6448 38.1034 89.5013 36.818 91.2152 34.5043L91.6151 37.7892H95.2143V27.0488H82.7599V30.5623H90.3582C89.6727 32.9332 87.2732 34.2186 83.1027 34.2186C77.8753 34.2186 75.2187 31.962 75.2187 27.82C75.2187 23.6495 77.9039 21.3643 83.1313 21.3643C86.9875 21.3643 89.1585 22.5926 89.9012 24.8778L94.8429 23.8209C93.5861 19.679 89.6155 17.4795 83.1313 17.4795C75.0188 17.4795 70.1913 21.4215 70.1913 27.82Z" fill="#334F90"/>
<path d="M111.581 38.1034C119.608 38.1034 124.378 34.1329 124.378 27.82C124.378 21.45 119.608 17.4795 111.581 17.4795C103.526 17.4795 98.7842 21.45 98.7842 27.82C98.7842 34.1329 103.526 38.1034 111.581 38.1034ZM111.581 34.2186C106.411 34.2186 103.812 31.9334 103.812 27.82C103.812 23.6781 106.411 21.3643 111.581 21.3643C116.752 21.3643 119.322 23.6781 119.322 27.82C119.322 31.9334 116.752 34.2186 111.581 34.2186Z" fill="#334F90"/>
<path d="M134.733 37.7892H139.646V21.6786H148.387V17.7937H126.078V21.6786H134.733V37.7892Z" fill="#334F90"/>
<path d="M162.24 38.1034C170.266 38.1034 175.037 34.1329 175.037 27.82C175.037 21.45 170.266 17.4795 162.24 17.4795C154.184 17.4795 149.443 21.45 149.443 27.82C149.443 34.1329 154.184 38.1034 162.24 38.1034ZM162.24 34.2186C157.069 34.2186 154.47 31.9334 154.47 27.82C154.47 23.6781 157.069 21.3643 162.24 21.3643C167.41 21.3643 169.981 23.6781 169.981 27.82C169.981 31.9334 167.41 34.2186 162.24 34.2186Z" fill="#334F90"/>
<path d="M188 37.3832H192.513V22.8722L205.91 37.3832H210.738V17.3877H206.196V31.9273L192.827 17.3877H188V37.3832Z" fill="#334F90"/>
<path d="M216.649 37.3832H221.562V17.3877H216.649V37.3832Z" fill="#334F90"/>
<defs>
<linearGradient id="paint0_linear_1:75" x1="8.25918" y1="3.47755" x2="52.9446" y2="52.2439" gradientUnits="userSpaceOnUse">
<stop stop-color="#FF0000"/>
<stop offset="1" stop-color="#FEE60D"/>
</linearGradient>
<linearGradient id="paint1_linear_1:75" x1="8.25918" y1="3.47755" x2="52.9446" y2="52.2439" gradientUnits="userSpaceOnUse">
<stop stop-color="#FF0000"/>
<stop offset="1" stop-color="#FEE60D"/>
</linearGradient>
<linearGradient id="paint2_linear_1:75" x1="8.25918" y1="3.47755" x2="52.9446" y2="52.2439" gradientUnits="userSpaceOnUse">
<stop stop-color="#FF0000"/>
<stop offset="1" stop-color="#FEE60D"/>
</linearGradient>
<linearGradient id="paint3_linear_1:75" x1="8.25918" y1="3.47755" x2="52.9446" y2="52.2439" gradientUnits="userSpaceOnUse">
<stop stop-color="#FF0000"/>
<stop offset="1" stop-color="#FEE60D"/>
</linearGradient>
<linearGradient id="paint4_linear_1:75" x1="8.25918" y1="3.47755" x2="52.9446" y2="52.2439" gradientUnits="userSpaceOnUse">
<stop stop-color="#FF0000"/>
<stop offset="1" stop-color="#FEE60D"/>
</linearGradient>
</defs>
</svg>
