<svg width="24" height="24" viewBox="0 0 24 24" fill="none" xmlns="http://www.w3.org/2000/svg">
    <path
        d="M12 18.4615C8.43785 18.4615 5.53846 15.5631 5.53846 12C5.53846 8.43692 8.43785 5.53846 12 5.53846C15.5622 5.53846 18.4615 8.43692 18.4615 12C18.4615 15.5631 15.5622 18.4615 12 18.4615ZM12 7.38462C9.45508 7.38462 7.38462 9.45508 7.38462 12C7.38462 14.5449 9.45508 16.6154 12 16.6154C14.5449 16.6154 16.6154 14.5449 16.6154 12C16.6154 9.45508 14.5449 7.38462 12 7.38462Z"
        fill="url(#paint0_radial_122:67)"/>
    <path
        d="M18.9231 6.46154C19.6878 6.46154 20.3077 5.84163 20.3077 5.07692C20.3077 4.31222 19.6878 3.69231 18.9231 3.69231C18.1584 3.69231 17.5385 4.31222 17.5385 5.07692C17.5385 5.84163 18.1584 6.46154 18.9231 6.46154Z"
        fill="url(#paint1_radial_122:67)"/>
    <path
        d="M17.5385 24H6.46154C2.89938 24 0 21.1015 0 17.5385V6.46154C0 2.89846 2.89938 0 6.46154 0H17.5385C21.1006 0 24 2.89846 24 6.46154V17.5385C24 21.1015 21.1006 24 17.5385 24ZM6.46154 1.84615C3.91662 1.84615 1.84615 3.91662 1.84615 6.46154V17.5385C1.84615 20.0834 3.91662 22.1538 6.46154 22.1538H17.5385C20.0834 22.1538 22.1538 20.0834 22.1538 17.5385V6.46154C22.1538 3.91662 20.0834 1.84615 17.5385 1.84615H6.46154Z"
        fill="url(#paint2_radial_122:67)"/>
    <defs>
        <radialGradient id="paint0_radial_122:67" cx="0" cy="0" r="1" gradientUnits="userSpaceOnUse"
                        gradientTransform="translate(8.92196 24.0173) scale(29.9169)">
            <stop offset="0" stop-color="#FFDD55"/>
            <stop offset="0.328" stop-color="#FF543F"/>
            <stop offset="0.348" stop-color="#FC5245"/>
            <stop offset="0.504" stop-color="#E64771"/>
            <stop offset="0.643" stop-color="#D53E91"/>
            <stop offset="0.761" stop-color="#CC39A4"/>
            <stop offset="0.841" stop-color="#C837AB"/>
        </radialGradient>
        <radialGradient id="paint1_radial_122:67" cx="0" cy="0" r="1" gradientUnits="userSpaceOnUse"
                        gradientTransform="translate(8.92196 24.0173) scale(29.9169)">
            <stop offset="0" stop-color="#FFDD55"/>
            <stop offset="0.328" stop-color="#FF543F"/>
            <stop offset="0.348" stop-color="#FC5245"/>
            <stop offset="0.504" stop-color="#E64771"/>
            <stop offset="0.643" stop-color="#D53E91"/>
            <stop offset="0.761" stop-color="#CC39A4"/>
            <stop offset="0.841" stop-color="#C837AB"/>
        </radialGradient>
        <radialGradient id="paint2_radial_122:67" cx="0" cy="0" r="1" gradientUnits="userSpaceOnUse"
                        gradientTransform="translate(8.92196 24.0173) scale(29.9169)">
            <stop offset="0" stop-color="#FFDD55"/>
            <stop offset="0.328" stop-color="#FF543F"/>
            <stop offset="0.348" stop-color="#FC5245"/>
            <stop offset="0.504" stop-color="#E64771"/>
            <stop offset="0.643" stop-color="#D53E91"/>
            <stop offset="0.761" stop-color="#CC39A4"/>
            <stop offset="0.841" stop-color="#C837AB"/>
        </radialGradient>
    </defs>
</svg>
