<svg width="24" height="30" viewBox="0 0 24 30" fill="none" xmlns="http://www.w3.org/2000/svg">
<path d="M20.0454 15.9539C20.06 14.804 20.3603 13.6766 20.9185 12.6765C21.4766 11.6764 22.2745 10.8361 23.2378 10.2338C22.6258 9.34497 21.8185 8.61351 20.8799 8.0975C19.9414 7.58149 18.8975 7.29515 17.8311 7.26122C15.5563 7.01839 13.3509 8.64554 12.1917 8.64554C11.0101 8.64554 9.22533 7.28533 7.30342 7.32554C6.06028 7.36639 4.84874 7.73402 3.78685 8.39263C2.72496 9.05123 1.84893 9.97834 1.24411 11.0836C-1.37581 15.6966 0.578418 22.4762 3.08808 26.205C4.34372 28.0309 5.81121 30.0705 7.73138 29.9981C9.61038 29.9189 10.3122 28.7796 12.5803 28.7796C14.8273 28.7796 15.4857 29.9981 17.4449 29.9521C19.4611 29.9189 20.7315 28.1181 21.9431 26.275C22.8452 24.9739 23.5394 23.536 24 22.0145C22.8286 21.5107 21.829 20.6673 21.1257 19.5895C20.4225 18.5118 20.0468 17.2474 20.0454 15.9539Z" fill="white"/>
<path d="M16.345 4.80891C17.4443 3.46677 17.9859 1.74169 17.8548 0C16.1752 0.1794 14.6238 0.995748 13.5096 2.28639C12.9648 2.9169 12.5476 3.65042 12.2817 4.44501C12.0159 5.23961 11.9066 6.0797 11.9602 6.91726C12.8003 6.92605 13.6314 6.74088 14.3909 6.37568C15.1504 6.01048 15.8185 5.47477 16.345 4.80891Z" fill="white"/>
</svg>
