<svg width="48" height="45" viewBox="0 0 48 45" fill="none" xmlns="http://www.w3.org/2000/svg">
<path d="M14 11.5V6.5C14 5.17392 14.5268 3.90215 15.4645 2.96447C16.4021 2.02678 17.6739 1.5 19 1.5H29C30.3261 1.5 31.5978 2.02678 32.5355 2.96447C33.4732 3.90215 34 5.17392 34 6.5V11.5M24 24V24.025M1.5 26.5001C8.47895 30.0168 16.1851 31.8487 24 31.8487C31.8149 31.8487 39.521 30.0168 46.5 26.5001M6.5 11.5001H41.5C44.2614 11.5001 46.5 13.7387 46.5 16.5001V39.0001C46.5 41.7615 44.2614 44.0001 41.5 44.0001H6.5C3.73858 44.0001 1.5 41.7615 1.5 39.0001V16.5001C1.5 13.7387 3.73858 11.5001 6.5 11.5001Z" stroke="white" stroke-width="2" stroke-linecap="round" stroke-linejoin="round"/>
</svg>
