<svg width="28" height="22" viewBox="0 0 28 22" fill="none" xmlns="http://www.w3.org/2000/svg">
<path d="M21.0833 6.75016V3.91683C21.0833 3.16538 20.7848 2.44471 20.2535 1.91336C19.7221 1.38201 19.0014 1.0835 18.25 1.0835H4.08333C3.33189 1.0835 2.61122 1.38201 2.07986 1.91336C1.54851 2.44471 1.25 3.16538 1.25 3.91683V12.4168C1.25 13.1683 1.54851 13.8889 2.07986 14.4203C2.61122 14.9517 3.33189 15.2502 4.08333 15.2502H6.91667M9.75 6.75013H23.9167C25.4815 6.75013 26.75 8.01865 26.75 9.58346V18.0835C26.75 19.6483 25.4815 20.9168 23.9167 20.9168H9.75C8.18519 20.9168 6.91667 19.6483 6.91667 18.0835V9.58346C6.91667 8.01865 8.18519 6.75013 9.75 6.75013ZM19.6667 13.8335C19.6667 15.3983 18.3981 16.6668 16.8333 16.6668C15.2685 16.6668 14 15.3983 14 13.8335C14 12.2687 15.2685 11.0001 16.8333 11.0001C18.3981 11.0001 19.6667 12.2687 19.6667 13.8335Z" stroke="white" stroke-width="2" stroke-linecap="round" stroke-linejoin="round"/>
</svg>
