<svg width="19" height="28" viewBox="0 0 19 28" fill="none" xmlns="http://www.w3.org/2000/svg">
<path d="M1.5 5.5H12.8333C13.9605 5.5 15.0415 5.94777 15.8385 6.7448C16.6356 7.54183 17.0833 8.62283 17.0833 9.75C17.0833 10.8772 16.6356 11.9582 15.8385 12.7552C15.0415 13.5522 13.9605 14 12.8333 14M12.8333 14C13.9605 14 15.0415 14.4478 15.8385 15.2448C16.6356 16.0418 17.0833 17.1228 17.0833 18.25C17.0833 19.3772 16.6356 20.4582 15.8385 21.2552C15.0415 22.0522 13.9605 22.5 12.8333 22.5H1.5M12.8333 14H4.33333M4.33333 5.5V22.5M5.75 1.25V5.5M11.4167 1.25V5.5M5.75 22.5V26.75M11.4167 22.5V26.75" stroke="white" stroke-width="2" stroke-linecap="round" stroke-linejoin="round"/>
</svg>
