<svg width="22" height="28" viewBox="0 0 22 28" fill="none" xmlns="http://www.w3.org/2000/svg">
<path d="M6.74967 4.08337H3.91634C3.16489 4.08337 2.44422 4.38188 1.91287 4.91323C1.38152 5.44459 1.08301 6.16526 1.08301 6.9167V23.9167C1.08301 24.6682 1.38152 25.3888 1.91287 25.9202C2.44422 26.4515 3.16489 26.75 3.91634 26.75H18.083C18.8345 26.75 19.5551 26.4515 20.0865 25.9202C20.6178 25.3888 20.9163 24.6682 20.9163 23.9167V6.9167C20.9163 6.16526 20.6178 5.44459 20.0865 4.91323C19.5551 4.38188 18.8345 4.08337 18.083 4.08337H15.2497M6.74967 4.08337C6.74967 5.64818 8.0182 6.91667 9.58301 6.91667H12.4163C13.9811 6.91667 15.2497 5.64818 15.2497 4.08337M6.74967 4.08337C6.74967 2.51856 8.0182 1.25 9.58301 1.25H12.4163C13.9811 1.25 15.2497 2.51856 15.2497 4.08337M13.833 12.5834H10.2913C9.72776 12.5834 9.18725 12.8073 8.78874 13.2058C8.39023 13.6043 8.16634 14.1448 8.16634 14.7084C8.16634 15.272 8.39023 15.8125 8.78874 16.211C9.18725 16.6095 9.72776 16.8334 10.2913 16.8334H11.708C12.2716 16.8334 12.8121 17.0573 13.2106 17.4558C13.6091 17.8543 13.833 18.3948 13.833 18.9584C13.833 19.522 13.6091 20.0625 13.2106 20.461C12.8121 20.8595 12.2716 21.0834 11.708 21.0834H8.16634M10.9997 21.0833V22.5M10.9997 11.1666V12.5833" stroke="white" stroke-width="2" stroke-linecap="round" stroke-linejoin="round"/>
</svg>
