<svg width="26" height="28" viewBox="0 0 26 28" fill="none" xmlns="http://www.w3.org/2000/svg">
<path d="M4.50033 21.0834C2.93552 21.0834 1.66699 22.3519 1.66699 23.9167C1.66699 25.4815 2.93552 26.75 4.50033 26.75C6.06513 26.75 7.33366 25.4815 7.33366 23.9167C7.33366 22.3519 6.06513 21.0834 4.50033 21.0834ZM4.50033 21.0834H20.0837M4.50033 21.0834L4.50033 1.25H1.66699M20.0837 21.0834C18.5188 21.0834 17.2503 22.3519 17.2503 23.9167C17.2503 25.4815 18.5188 26.75 20.0837 26.75C21.6485 26.75 22.917 25.4815 22.917 23.9167C22.917 22.3519 21.6485 21.0834 20.0837 21.0834ZM4.50032 4.08337L24.3337 5.50004L22.917 15.4167H4.50032" stroke="white" stroke-width="2" stroke-linecap="round" stroke-linejoin="round"/>
</svg>
