<svg width="14" height="16" viewBox="0 0 14 16" fill="none" xmlns="http://www.w3.org/2000/svg">
<path d="M1.22714 0.969727C0.934496 0.969727 0.697266 1.21185 0.697266 1.51052C0.697266 1.80919 0.934496 2.05131 1.22714 2.05131H2.11025V2.94902C2.11023 2.95181 2.11023 2.9546 2.11025 2.95738V11.1392C1.29478 11.3746 0.697266 12.1398 0.697266 13.0474C0.697266 14.1426 1.56711 15.0303 2.64012 15.0303C3.71313 15.0303 4.58298 14.1426 4.58298 13.0474C4.58298 12.7229 4.50658 12.4165 4.37114 12.1461H8.68051C8.54507 12.4165 8.46867 12.7229 8.46867 13.0474C8.46867 14.1426 9.33852 15.0303 10.4115 15.0303C11.4845 15.0303 12.3544 14.1426 12.3544 13.0474C12.3544 11.9523 11.4845 11.0645 10.4115 11.0645L10.4035 11.0645H3.16999V9.2619H11.8245C12.0882 9.2619 12.3118 9.064 12.3491 8.79758L13.0556 3.75018C13.0764 3.60163 13.0358 3.45095 12.9434 3.33416C12.8511 3.21737 12.7154 3.14497 12.5688 3.13428L3.16999 2.4491V1.51052C3.16999 1.21185 2.93276 0.969727 2.64012 0.969727H1.22714Z" fill="#0A0911"/>
</svg>
