<svg width="48" height="48" viewBox="0 0 48 48" fill="none" xmlns="http://www.w3.org/2000/svg">
<path d="M46.5 9C46.5 13.1421 40.9035 16.5 34 16.5C27.0964 16.5 21.5 13.1421 21.5 9M46.5 9C46.5 4.85786 40.9035 1.5 34 1.5C27.0964 1.5 21.5 4.85786 21.5 9M46.5 9V19M21.5 9V19M21.5 19C21.5 23.1425 27.0975 26.5 34 26.5C40.9025 26.5 46.5 23.1425 46.5 19M21.5 19V29.0001M46.5 19V29.0001M21.5 29.0001C21.5 33.1426 27.0975 36.5001 34 36.5001C40.9025 36.5001 46.5 33.1426 46.5 29.0001M21.5 29.0001V38.9998C21.5 43.1423 27.0975 46.4998 34 46.4998C40.9025 46.4998 46.5 43.1423 46.5 38.9998V29.0001M11.5 16.5H5.25C4.25544 16.5 3.30161 16.8951 2.59835 17.5983C1.89509 18.3016 1.5 19.2554 1.5 20.25C1.5 21.2446 1.89509 22.1984 2.59835 22.9017C3.30161 23.6049 4.25544 24 5.25 24H7.75C8.74456 24 9.69839 24.3951 10.4017 25.0983C11.1049 25.8016 11.5 26.7554 11.5 27.75C11.5 28.7446 11.1049 29.6984 10.4017 30.4017C9.69839 31.1049 8.74456 31.5 7.75 31.5H1.5M6.50001 31.4999V33.9999M6.50001 13.9999V16.4999" stroke="white" stroke-width="2" stroke-linecap="round" stroke-linejoin="round"/>
</svg>
