<svg width="44" height="65" viewBox="0 0 44 65" fill="none" xmlns="http://www.w3.org/2000/svg">
<path d="M21.986 1C20.3551 2.64019 19.3612 4.78576 19.3612 7.14218C19.4575 12.3154 20.1732 17.4825 20.2361 22.6449C20.3656 27.4662 18.7348 31.993 16.7504 36.4113C16.089 37.6314 15.3751 38.8251 14.6594 40.0219L12.5595 39.6467C10.6644 39.3119 9.43255 37.6794 9.81227 36.0005C10.143 34.5324 11.6024 33.5045 13.2297 33.5045L13.9962 33.5774L12.2866 20.9272C11.7284 15.2997 8.44913 10.3543 3.62478 7.14528C2.79535 6.59338 1.91517 6.08799 1 5.64306V50.5544H12.703C13.578 54.7557 16.1922 58.4298 19.8669 60.9412C20.7401 61.4745 21.4733 62.1784 22 63C22.525 62.1784 23.2581 61.4745 24.1331 60.9412C27.8078 58.4236 30.422 54.7572 31.297 50.5544H43V5.64306C42.0848 6.08799 41.2047 6.59338 40.3752 7.14528C35.5456 10.359 32.2734 15.2997 31.7134 20.9272L30.0038 33.5774L30.7703 33.5045C32.3976 33.5107 33.857 34.5308 34.1877 36.0005C34.5657 37.6794 33.3338 39.3103 31.4405 39.6467L29.3406 40.0219C28.6249 38.8266 27.9093 37.6329 27.2496 36.4113C25.2635 31.9961 23.6326 27.4693 23.7621 22.6449C23.8251 17.467 24.5408 12.3046 24.637 7.14218C24.637 4.78576 23.6431 2.64639 22.0123 1H21.986ZM4.48746 12.1154C6.75177 14.4703 8.27239 17.4019 8.72211 20.6311L10.122 31.0644C8.32839 31.855 6.97225 33.3061 6.4578 35.0626H4.47521V12.1185L4.48746 12.1154ZM39.4845 12.1154V35.0595H37.502C36.991 33.3046 35.6314 31.8535 33.8378 31.0613L35.2376 20.628C35.6909 17.4019 37.2115 14.4672 39.4723 12.1108L39.4845 12.1154ZM21.986 33.0906C22.9257 35.8144 24.2188 38.408 25.8269 40.8079C24.2976 41.2187 22.9677 42.0186 21.986 43.0961C21.0043 42.0186 19.6744 41.2202 18.1451 40.8063C19.7532 38.4018 21.0463 35.8144 21.986 33.0906ZM4.48746 38.1662H6.47004C7.09474 40.3071 8.98109 41.9969 11.3696 42.5876L13.0512 42.9271C12.6015 44.3719 12.3548 45.8881 12.3548 47.4694H4.48046V38.1678L4.48746 38.1662ZM37.5072 38.1662H39.4898V47.4678H31.6154C31.6154 45.8959 31.3687 44.3719 30.919 42.9255L32.6006 42.586C34.9979 41.9954 36.8825 40.304 37.5002 38.1647L37.5072 38.1662ZM16.474 43.6387C18.5965 43.9038 20.2326 45.5145 20.2326 47.4663H15.858C15.858 46.1377 16.0802 44.8556 16.474 43.6387ZM27.4928 43.6387C27.8865 44.8556 28.1087 46.1346 28.1087 47.4663H23.7341C23.7341 45.5114 25.3702 43.9038 27.4928 43.6387ZM16.2587 50.5684H20.2361V57.095C18.3113 55.3045 16.9114 53.0643 16.2587 50.5684ZM23.7359 50.5684H27.7133C27.0693 53.0643 25.6659 55.3076 23.7359 57.095V50.5684Z" fill="white" stroke="black" stroke-width="1.5"/>
</svg>
