<svg width="24" height="24" viewBox="0 0 24 24" fill="none" xmlns="http://www.w3.org/2000/svg">
<path d="M16.8889 12.0141C16.8889 14.7142 14.7001 16.903 12 16.903C9.29993 16.903 7.11111 14.7142 7.11111 12.0141C7.11111 9.31407 9.29993 7.12524 12 7.12524C14.7001 7.12524 16.8889 9.31407 16.8889 12.0141ZM16.8889 12.0141V13.8475C16.8889 14.6578 17.2108 15.435 17.7838 16.0081C18.3569 16.5811 19.1341 16.903 19.9444 16.903C20.7548 16.903 21.532 16.5811 22.105 16.0081C22.6781 15.435 23 14.6578 23 13.8475V12.0141C23.003 9.65048 22.2446 7.34872 20.8371 5.44981C19.4297 3.55091 17.4479 2.15588 15.1856 1.47137C12.9232 0.786859 10.5005 0.849286 8.27642 1.6494C6.05231 2.44952 4.14507 3.94476 2.83725 5.91363C1.52943 7.8825 0.890577 10.2203 1.01534 12.5806C1.1401 14.941 2.02184 17.1984 3.52994 19.0184C5.03804 20.8384 7.09228 22.1243 9.38834 22.6855C11.6844 23.2467 14.1002 23.0533 16.2778 22.1341"/>
</svg>
