<svg width="48" height="45" viewBox="0 0 48 45" fill="none" xmlns="http://www.w3.org/2000/svg">
<path d="M26.5 32.7502V44.0002L31.5 40.2502L36.5 44.0002V32.7502M19 36.5H6.5C5.17392 36.5 3.90215 35.9732 2.96447 35.0355C2.02678 34.0979 1.5 32.8261 1.5 31.5V6.5C1.5 3.75 3.75 1.5 6.5 1.5H41.5C42.8261 1.5 44.0979 2.02678 45.0355 2.96447C45.9732 3.90215 46.5 5.17392 46.5 6.5V31.5C46.4991 32.3768 46.2676 33.238 45.8288 33.9971C45.39 34.7562 44.7593 35.3866 44 35.825M9 11.5001H39M9 19.0001H16.5M9 26.5001H14M39 26.5001C39 30.6422 35.6421 34.0001 31.5 34.0001C27.3579 34.0001 24 30.6422 24 26.5001C24 22.358 27.3579 19.0001 31.5 19.0001C35.6421 19.0001 39 22.358 39 26.5001Z" stroke="white" stroke-width="2" stroke-linecap="round" stroke-linejoin="round"/>
</svg>
