<svg width="14" height="14" viewBox="0 0 14 14" fill="none" xmlns="http://www.w3.org/2000/svg">
<path fill-rule="evenodd" clip-rule="evenodd" d="M0.696759 13.0598C0.745637 13.0626 0.794026 13.0583 0.840601 13.0473L3.87498 12.3937C5.24787 13.0249 6.81942 13.2049 8.32167 12.9035C9.88347 12.5903 11.2786 11.7748 12.2402 10.5937C13.2033 9.41063 13.6638 7.9421 13.5206 6.46205C13.3775 4.98283 12.6434 3.61407 11.4746 2.60462C10.307 1.59631 8.78207 1.01118 7.18536 0.945629C5.58867 0.880081 4.01331 1.33786 2.7519 2.24394C1.4894 3.15081 0.62172 4.45029 0.329954 5.90975C0.0545838 7.28719 0.313711 8.7015 1.0499 9.9155L0.242068 12.3693C0.226143 12.4149 0.21642 12.4631 0.213706 12.5126C0.210139 12.5763 0.218341 12.6391 0.2369 12.6983C0.259267 12.7701 0.296083 12.8341 0.343325 12.8875C0.390468 12.941 0.449104 12.9852 0.517087 13.0157C0.573091 13.041 0.633864 13.0563 0.696759 13.0598ZM7.24751 6.81486C7.24751 6.50433 6.99723 6.25259 6.68848 6.25259C6.37974 6.25259 6.12945 6.50433 6.12945 6.81486V6.82236C6.12945 7.13289 6.37974 7.38463 6.68848 7.38463C6.99723 7.38463 7.24751 7.13289 7.24751 6.82236V6.81486ZM4.07966 6.25259C4.38841 6.25259 4.6387 6.50433 4.6387 6.81486V6.82236C4.6387 7.13289 4.38841 7.38463 4.07966 7.38463C3.77092 7.38463 3.52063 7.13289 3.52063 6.82236V6.81486C3.52063 6.50433 3.77092 6.25259 4.07966 6.25259ZM9.85633 6.81486C9.85633 6.50433 9.60605 6.25259 9.2973 6.25259C8.98856 6.25259 8.73827 6.50433 8.73827 6.81486V6.82236C8.73827 7.13289 8.98856 7.38463 9.2973 7.38463C9.60605 7.38463 9.85633 7.13289 9.85633 6.82236V6.81486Z" fill="#0A0911"/>
</svg>
