<svg width="28" height="26" viewBox="0 0 28 26" fill="none" xmlns="http://www.w3.org/2000/svg">
<path d="M14 13V13.0141M8.33333 13V13.0141M19.6667 13V13.0141M1.25 24.3332L3.09167 18.8082C1.49996 16.4541 0.924157 13.6663 1.47131 10.9632C2.01846 8.26001 3.65134 5.82544 6.06634 4.11213C8.48134 2.39882 11.5141 1.52335 14.6008 1.6485C17.6875 1.77365 20.618 2.89091 22.8475 4.79254C25.077 6.69416 26.4537 9.25076 26.7218 11.987C26.9898 14.7232 26.1308 17.4528 24.3047 19.6683C22.4785 21.8839 19.8093 23.4345 16.7934 24.032C13.7775 24.6295 10.6201 24.2331 7.90833 22.9166L1.25 24.3332Z" stroke="white" stroke-width="2" stroke-linecap="round" stroke-linejoin="round"/>
</svg>
