<svg width="13" height="14" viewBox="0 0 13 14" fill="none" xmlns="http://www.w3.org/2000/svg">
<path d="M5.91756 1.90909C5.91756 1.51753 6.1806 1.05432 6.83439 0.65486C7.47575 0.262999 8.40212 0 9.45878 0C10.5154 0 11.4418 0.262999 12.0832 0.65486C12.737 1.05432 13 1.51753 13 1.90909C13 2.30065 12.737 2.76386 12.0832 3.16332C11.4418 3.55518 10.5154 3.81818 9.45878 3.81818C8.40212 3.81818 7.47575 3.55518 6.83439 3.16332C6.1806 2.76386 5.91756 2.30065 5.91756 1.90909Z" fill="#0A0911"/>
<path d="M12.7262 4.25468C12.8199 4.19743 12.9114 4.13672 13 4.07265V5.30299C13 5.69458 12.7369 6.1578 12.0831 6.55728C11.4416 6.94915 10.5153 7.21212 9.45878 7.21212C8.4023 7.21212 7.47593 6.94915 6.83451 6.55728C6.18065 6.1578 5.91756 5.69458 5.91756 5.30299V4.07265C6.00618 4.13672 6.09766 4.19743 6.19136 4.25468C7.05784 4.78409 8.21455 5.09091 9.45878 5.09091C10.703 5.09091 11.8597 4.78409 12.7262 4.25468Z" fill="#0A0911"/>
<path d="M12.7261 7.64865C12.8198 7.59138 12.9113 7.53064 13 7.46654V8.69697C13 9.08855 12.7369 9.55176 12.0831 9.95121C11.4416 10.3431 10.5153 10.606 9.45878 10.606C8.4023 10.606 7.47591 10.3431 6.8345 9.95121C6.18064 9.55176 5.91756 9.08855 5.91756 8.69697V7.46654C6.00623 7.53064 6.09776 7.59138 6.19151 7.64865C7.05802 8.17805 8.21472 8.48485 9.45878 8.48485C10.7028 8.48485 11.8595 8.17805 12.7261 7.64865Z" fill="#0A0911"/>
<path d="M12.726 11.0426C12.8198 10.9853 12.9113 10.9246 13 10.8605V12.0909C13 12.4825 12.7369 12.9457 12.0831 13.3452C11.4416 13.737 10.5153 14 9.45878 14C8.4023 14 7.47592 13.737 6.83451 13.3452C6.18064 12.9457 5.91756 12.4825 5.91756 12.0909V10.8605C6.00623 10.9246 6.09776 10.9853 6.19152 11.0426C7.05804 11.572 8.21472 11.8788 9.45878 11.8788C10.7028 11.8788 11.8595 11.572 12.726 11.0426Z" fill="#0A0911"/>
<path fill-rule="evenodd" clip-rule="evenodd" d="M1.87933 3.7917C2.1624 3.7917 2.39188 4.0185 2.39188 4.29828V4.46714H3.24612C3.52919 4.46714 3.75866 4.69394 3.75866 4.97371C3.75866 5.25349 3.52919 5.48029 3.24612 5.48029H1.53763C1.4017 5.48029 1.27133 5.53366 1.17521 5.62867C1.07909 5.72367 1.02509 5.85252 1.02509 5.98687C1.02509 6.12123 1.07909 6.25008 1.17521 6.34508C1.27133 6.44008 1.4017 6.49345 1.53763 6.49345H2.22103C2.62883 6.49345 3.01994 6.65357 3.3083 6.93857C3.59666 7.22358 3.75866 7.61013 3.75866 8.01319C3.75866 8.41625 3.59666 8.8028 3.3083 9.0878C3.0605 9.33272 2.73682 9.48541 2.39188 9.52352V9.70179C2.39188 9.98156 2.1624 10.2084 1.87933 10.2084C1.59626 10.2084 1.36679 9.98156 1.36679 9.70179V9.53292H0.512545C0.229474 9.53292 0 9.30612 0 9.02635C0 8.74657 0.229474 8.51977 0.512545 8.51977H2.22103C2.35696 8.51977 2.48733 8.4664 2.58345 8.37139C2.67957 8.27639 2.73357 8.14754 2.73357 8.01319C2.73357 7.87883 2.67957 7.74998 2.58345 7.65498C2.48733 7.55998 2.35696 7.50661 2.22103 7.50661H1.53763C1.12983 7.50661 0.738725 7.34649 0.450363 7.06149C0.162 6.77648 0 6.38993 0 5.98687C0 5.58381 0.162 5.19726 0.450363 4.91226C0.698166 4.66734 1.02184 4.51465 1.36679 4.47654V4.29828C1.36679 4.0185 1.59626 3.7917 1.87933 3.7917Z" fill="#0A0911"/>
</svg>
