<svg width="28" height="28" viewBox="0 0 28 28" fill="none" xmlns="http://www.w3.org/2000/svg">
<path d="M26.75 5.5C26.75 7.84721 23.5787 9.75 19.6667 9.75C15.7546 9.75 12.5833 7.84721 12.5833 5.5M26.75 5.5C26.75 3.15279 23.5787 1.25 19.6667 1.25C15.7546 1.25 12.5833 3.15279 12.5833 5.5M26.75 5.5V11.1667M12.5833 5.5V11.1667M12.5833 11.1667C12.5833 13.5141 15.7552 15.4167 19.6667 15.4167C23.5781 15.4167 26.75 13.5141 26.75 11.1667M12.5833 11.1667V16.8333M26.75 11.1667V16.8333M12.5833 16.8333C12.5833 19.1807 15.7552 21.0833 19.6667 21.0833C23.5781 21.0833 26.75 19.1807 26.75 16.8333M12.5833 16.8333V22.5C12.5833 24.8475 15.7552 26.75 19.6667 26.75C23.5781 26.75 26.75 24.8475 26.75 22.5V16.8333M6.91667 9.75H3.375C2.81141 9.75 2.27091 9.97388 1.8724 10.3724C1.47388 10.7709 1.25 11.3114 1.25 11.875C1.25 12.4386 1.47388 12.9791 1.8724 13.3776C2.27091 13.7761 2.81141 14 3.375 14H4.79167C5.35525 14 5.89575 14.2239 6.29427 14.6224C6.69278 15.0209 6.91667 15.5614 6.91667 16.125C6.91667 16.6886 6.69278 17.2291 6.29427 17.6276C5.89575 18.0261 5.35525 18.25 4.79167 18.25H1.25M4.08333 18.25V19.6667M4.08333 8.33337V9.75004" stroke="white" stroke-width="2" stroke-linecap="round" stroke-linejoin="round"/>
</svg>
