<svg width="14" height="13" viewBox="0 0 14 13" fill="none" xmlns="http://www.w3.org/2000/svg">
<path d="M10.5152 4.78212C10.3982 4.66688 10.2369 4.60616 10.0716 4.61517C9.9064 4.62419 9.75287 4.70208 9.64949 4.82935L6.8403 8.28765L4.15797 6.9668C3.89553 6.83756 3.57644 6.92102 3.41368 7.16146L0.310659 11.7455C0.191636 11.9213 0.18054 12.1474 0.281787 12.3337C0.383034 12.52 0.580188 12.6363 0.794759 12.6363H13.2068C13.5282 12.6363 13.7886 12.3798 13.7886 12.0633V8.24331C13.7886 8.09134 13.7273 7.9456 13.6182 7.83814L10.5152 4.78212Z" fill="#0A0911"/>
<path fill-rule="evenodd" clip-rule="evenodd" d="M10.0774 0.0308628C10.2407 0.0235676 10.3996 0.0842649 10.5152 0.198103L13.6182 3.25412C13.8454 3.47789 13.8454 3.84069 13.6182 4.06447C13.391 4.28824 13.0226 4.28824 12.7954 4.06447L10.1429 1.45213L6.67199 5.55413C6.49914 5.7584 6.20632 5.81872 5.96483 5.69981L3.29612 4.38566L1.26019 7.05911C1.0674 7.31228 0.702714 7.36358 0.445651 7.17371C0.188589 6.98383 0.136491 6.62467 0.329288 6.3715L2.65655 3.31549C2.82526 3.09395 3.1307 3.02294 3.3822 3.14678L6.07306 4.47183L9.65683 0.23645C9.76148 0.112773 9.91413 0.038158 10.0774 0.0308628Z" fill="#0A0911"/>
</svg>
