<svg width="26" height="27" viewBox="0 0 26 27" fill="none" xmlns="http://www.w3.org/2000/svg">
<path d="M1.45325 0.602282C1.15088 0.925501 0.973633 1.42597 0.973633 2.06198V25.1252C0.973633 25.7716 1.15088 26.2721 1.45325 26.5849L1.52623 26.6579L14.4446 13.75V13.5936V13.4372L1.52623 0.529297L1.45325 0.602282Z" fill="#C7C7C7"/>
<path d="M18.7504 18.0568L14.4443 13.7507V13.5943V13.4379L18.7504 9.13184L18.8443 9.18397L23.9428 12.0825C25.4025 12.9062 25.4025 14.2616 23.9428 15.0957L18.8443 17.9943L18.7504 18.0568Z" fill="#F2F2F2"/>
<path d="M18.8439 18.0041L14.4439 13.5938L1.45264 26.5851C1.93225 27.096 2.72466 27.1585 3.62133 26.6476L18.8439 18.0041Z" fill="#9E9E9E"/>
<path d="M18.8441 9.19377L3.61108 0.539848C2.7144 0.0289534 1.922 0.0915118 1.44238 0.602406L14.4441 13.5937L18.8441 9.19377Z" fill="#B8B8B8"/>
<path opacity="0.2" d="M18.751 17.8994L3.61188 26.5012C2.76734 26.9808 2.00621 26.9495 1.5266 26.5116L1.45361 26.5846L1.5266 26.6576C2.01664 27.0955 2.76734 27.1268 3.61188 26.6472L18.8449 17.9933L18.751 17.8994Z" fill="black"/>
<path opacity="0.12" d="M1.45325 26.4382C1.15088 26.115 0.973633 25.6145 0.973633 24.9785V25.1349C0.973633 25.7813 1.15088 26.2818 1.45325 26.5946L1.52623 26.5216L1.45325 26.4382Z" fill="black"/>
<path opacity="0.12" d="M23.943 14.9492L18.7402 17.8999L18.8341 17.9937L23.9326 15.0952C24.6624 14.6781 25.0274 14.1359 25.0274 13.5938C24.9752 14.0838 24.6103 14.5738 23.943 14.9492Z" fill="black"/>
<path opacity="0.25" d="M3.6112 0.685557L23.9427 12.238C24.5996 12.6134 24.9749 13.093 25.0375 13.5935C25.0375 13.0513 24.6725 12.4987 23.9427 12.0921L3.6112 0.539587C2.1515 -0.284099 0.962891 0.404044 0.962891 2.07227V2.22867C0.962891 0.550014 2.16193 -0.13813 3.6112 0.685557Z" fill="white"/>
</svg>
