<svg width="14" height="14" viewBox="0 0 14 14" fill="none" xmlns="http://www.w3.org/2000/svg">
<path d="M9.33187 7.81215C9.55877 7.58412 9.86651 7.45601 10.1874 7.45601H12.6072C12.8578 7.45601 13.0609 7.66016 13.0609 7.91198V9.43188C13.0609 9.68371 12.8578 9.88785 12.6072 9.88785L10.1874 9.88785C9.86651 9.88785 9.55877 9.75975 9.33187 9.53172C9.10497 9.30369 8.9775 8.99441 8.9775 8.67193C8.9775 8.34945 9.10497 8.04018 9.33187 7.81215Z" fill="#0A0911"/>
<path d="M0.697266 1.98439C0.697266 2.26152 0.806811 2.5273 1.0018 2.72326C1.19679 2.91923 1.46126 3.02932 1.73702 3.02932H10.263V1.14844C10.263 1.09301 10.2411 1.03986 10.2021 1.00066C10.1631 0.961472 10.1102 0.939453 10.0551 0.939453H1.73702C1.46126 0.939453 1.19679 1.04954 1.0018 1.24551C0.806811 1.44147 0.697266 1.70725 0.697266 1.98439Z" fill="#0A0911"/>
<path d="M11.9266 6.54407H10.1874C9.62585 6.54407 9.0873 6.76826 8.69023 7.16731C8.29315 7.56636 8.07008 8.10759 8.07008 8.67193C8.07008 9.23628 8.29315 9.7775 8.69023 10.1766C9.0873 10.5756 9.62585 10.7998 10.1874 10.7998H11.9266V12.8517C11.9266 12.9071 11.9047 12.9603 11.8657 12.9995C11.8267 13.0386 11.7738 13.0607 11.7187 13.0607H1.73702C1.46126 13.0607 1.19679 12.9506 1.0018 12.7546C0.806811 12.5586 0.697266 12.2929 0.697266 12.0157V4.03203C1.0163 4.19564 1.37217 4.28324 1.73702 4.28324H11.7187C11.7738 4.28324 11.8267 4.30525 11.8657 4.34445C11.9047 4.38364 11.9266 4.43679 11.9266 4.49222V6.54407Z" fill="#0A0911"/>
</svg>
