<svg width="47" height="31" viewBox="0 0 47 31" fill="none" xmlns="http://www.w3.org/2000/svg">
<path fill-rule="evenodd" clip-rule="evenodd" d="M0.727539 6.52866C0.727539 3.17405 3.62047 0.45459 7.18908 0.45459H25.9863C29.5549 0.45459 32.4478 3.17405 32.4478 6.52866V8.26602L40.5958 4.43716C41.2226 4.14276 41.9189 4.00378 42.6188 4.03342C43.3188 4.06305 43.999 4.26031 44.5951 4.60648C45.1911 4.95266 45.6832 5.43625 46.0246 6.0114C46.366 6.58654 46.5453 7.23415 46.5457 7.89276V22.8337C46.5453 23.4923 46.366 24.1408 46.0246 24.7159C45.6832 25.291 45.1911 25.7746 44.5951 26.1208C43.999 26.467 43.3188 26.6642 42.6188 26.6939C41.9189 26.7235 41.2225 26.5845 40.5958 26.2901L32.4478 22.4613V24.1987C32.4478 27.5533 29.5549 30.2728 25.9863 30.2728H7.18908C3.62047 30.2728 0.727539 27.5533 0.727539 24.1987V6.52866ZM8.77668 9.99641C9.80254 9.99641 10.6342 9.19541 10.6342 8.20732C10.6342 7.21923 9.80254 6.41823 8.77668 6.41823C7.75081 6.41823 6.91918 7.21923 6.91918 8.20732C6.91918 9.19541 7.75081 9.99641 8.77668 9.99641Z" fill="#0A0911"/>
</svg>
