<svg viewBox="0 0 768 644" fill="none" xmlns="http://www.w3.org/2000/svg">
    <path d="M865.5 374.5L866.182 375.232L866.276 375.144L866.345 375.035L865.5 374.5ZM781.5 24L781.66 24.9871L781.5 24ZM161.5 2L168.62 11.0908L172.933 0.379468L161.5 2ZM-8.77109 643.473C61.3975 626.973 188.607 588.006 416.452 598.999L416.548 597.001C188.393 585.994 60.9358 625.027 -9.22891 641.527L-8.77109 643.473ZM416.452 598.999C653.186 610.42 780.626 454.962 866.182 375.232L864.818 373.768C779.041 453.705 652.264 608.373 416.548 597.001L416.452 598.999ZM866.345 375.035C904.719 314.387 947.828 216.201 949.25 138.268C949.961 99.2848 940.24 65.1715 914.045 43.449C887.859 21.7347 845.467 12.6172 781.34 23.0129L781.66 24.9871C845.533 14.6328 887.224 23.8069 912.768 44.9885C938.301 66.1618 947.956 99.5486 947.25 138.232C945.838 215.632 902.947 313.447 864.655 373.965L866.345 375.035ZM781.34 23.0129C477.238 72.3107 310.822 59.9893 170.233 4.43825L169.498 6.29831C310.575 62.0423 477.411 74.3087 781.66 24.9871L781.34 23.0129Z" fill="#C0C2CE" fill-opacity="0.7"/>
</svg>

