<svg viewBox="0 0 1224 120" fill="none" xmlns="http://www.w3.org/2000/svg">
<path d="M223.886 50.1944V47.6944V50.1944ZM1224 0L1195.7 5.67461L1214.76 27.3495L1224 0ZM3.18236 119.203C69.662 83.5183 146.32 52.6944 223.886 52.6944V47.6944C145.081 47.6944 67.5417 78.9817 0.817637 114.797L3.18236 119.203ZM223.886 52.6944C278.675 52.6944 313.99 69.1789 349.001 85.8543C384.08 102.562 418.916 119.5 472.195 119.5V114.5C420.142 114.5 386.203 98.0351 351.151 81.3402C316.031 64.6127 279.858 47.6944 223.886 47.6944V52.6944ZM472.195 119.5C519.856 119.5 557.505 102.562 594.526 85.8764C631.626 69.1554 668.085 52.6944 713.989 52.6944V47.6944C666.867 47.6944 629.484 64.6363 592.472 81.318C555.381 98.0351 518.646 114.5 472.195 114.5V119.5ZM713.989 52.6944C761.568 52.6944 784.429 69.0255 815.882 85.803C847.512 102.675 887.096 119.5 967.365 119.5V114.5C888.007 114.5 849.225 97.922 818.235 81.3914C787.068 64.7662 763.055 47.6944 713.989 47.6944V52.6944ZM967.365 119.5C1090.43 119.5 1166.86 54.0556 1208.77 16.7259L1205.45 12.9922C1163.69 50.1823 1088.47 114.5 967.365 114.5V119.5Z" fill="url(#roadmap31)" fill-opacity="0.7"/>
<defs>
<linearGradient id="roadmap31" x1="1216.89" y1="-3.87428" x2="635.703" y2="666.443" gradientUnits="userSpaceOnUse">
<stop/>
<stop offset="1" stop-opacity="0"/>
</linearGradient>
</defs>
</svg>
