<svg width="1690" height="165" viewBox="0 0 1690 165" fill="none" xmlns="http://www.w3.org/2000/svg">
    <path d="M308.5 70L308.5 67.5L308.5 70ZM1690 0.5L1661.69 6.13346L1680.72 27.8361L1690 0.5ZM3.18454 164.702C95.0624 115.267 201.121 72.4999 308.5 72.5L308.5 67.5C199.879 67.4999 92.9376 110.733 0.815464 160.298L3.18454 164.702ZM308.5 72.5C384.407 72.5 433.352 95.4071 481.735 118.506C530.186 141.637 578.136 165 651.5 165V160C579.364 160 532.314 137.113 483.89 113.994C435.398 90.8429 385.593 67.5 308.5 67.5L308.5 72.5ZM651.5 165C717.106 165 768.939 141.637 820.092 118.528C871.323 95.3834 921.86 72.5 985.5 72.5V67.5C920.64 67.5 869.177 90.8665 818.033 113.972C766.811 137.113 715.894 160 651.5 160V165ZM985.5 72.5C1051.51 72.5 1083.3 95.253 1126.7 118.455C1170.27 141.751 1224.79 165 1335.5 165V160C1225.71 160 1171.98 136.999 1129.05 114.045C1085.95 90.9969 1052.99 67.5 985.5 67.5V72.5ZM1335.5 165C1511.6 165 1618.42 67.5609 1674.75 17.2026L1671.42 13.4752C1615.14 63.7861 1509.56 160 1335.5 160V165Z" fill="url(#roadmap41)" fill-opacity="0.7"/>
    <defs>
        <linearGradient id="roadmap41" x1="1680.18" y1="-4.86439" x2="875.191" y2="921.381" gradientUnits="userSpaceOnUse">
            <stop/>
            <stop offset="1" stop-opacity="0"/>
        </linearGradient>
    </defs>
</svg>
